<svg width="51" height="43" viewBox="0 0 51 43" fill="none" xmlns="http://www.w3.org/2000/svg">
<path d="M11.2391 5.27181L10.7007 4.98089C9.58541 4.33486 8.31142 3.9658 6.99996 3.90884H6.90595C6.71168 3.9073 6.51751 3.91795 6.32478 3.94072C4.56844 4.11209 3.45737 4.60626 2.42749 5.84171C1.24805 7.15287 1.0002 8.92235 1.08567 10.6241C1.08567 15.6575 4.87184 21.7829 9.54687 24.2897L10.0853 24.5806C11.2002 25.2281 12.4742 25.5985 13.786 25.6567C15.944 25.6567 17.7004 24.8596 18.7687 23.1858C19.3243 22.5242 19.7046 21.0696 19.7046 19.5273V18.9374C19.7003 13.904 15.9141 7.78654 11.2391 5.27181ZM9.81609 23.6042C5.40601 21.213 1.8335 15.4583 1.8335 10.7118C1.8335 5.96525 5.40601 4.03637 9.81609 6.41161C14.2262 8.78685 17.7987 14.5576 17.7987 19.3041C17.7987 24.0506 14.2262 25.9994 9.81609 23.6242V23.6042Z" fill="#37474F"/>
<path d="M10.0854 5.77451L9.54692 5.48358C7.23504 4.23618 5.14111 4.10865 3.61126 4.90571C1.47459 6.0216 1.00452 8.52039 1.08572 10.6167C1.08572 15.6501 4.87189 21.7755 9.54692 24.2823L10.0854 24.5732C11.2218 25.2343 12.5244 25.6054 13.863 25.6492C14.6532 25.6591 15.4314 25.4691 16.115 25.0993C17.6192 24.2624 18.5466 22.5088 18.5466 20.018V19.4401C18.5466 14.3947 14.7561 8.28924 10.0854 5.77451ZM9.81614 23.6247C5.40606 21.2335 1.83355 15.4787 1.83355 10.7322C1.83355 5.98573 5.40606 4.05684 9.81614 6.43209C14.2262 8.80733 17.7987 14.5781 17.7987 19.3246C17.7987 24.0711 14.2262 26 9.81614 23.6247Z" fill="#263238"/>
<path d="M15.7514 22.4085C14.4694 23.8074 12.3029 24.0027 9.81578 22.6716C5.89713 20.5593 2.71777 15.4263 2.71777 11.2058C2.71777 9.32077 3.3545 7.93388 4.40574 7.1687C3.67073 7.96576 3.24767 9.18527 3.24767 10.7316C3.24767 14.948 6.42276 20.0811 10.3457 22.1933C12.508 23.361 14.4523 23.357 15.7514 22.4085Z" fill="#F07846"/>
<path opacity="0.2" d="M15.7514 22.4085C14.4694 23.8074 12.3029 24.0027 9.81578 22.6716C5.89713 20.5593 2.71777 15.4263 2.71777 11.2058C2.71777 9.32077 3.3545 7.93388 4.40574 7.1687C3.67073 7.96576 3.24767 9.18527 3.24767 10.7316C3.24767 14.948 6.42276 20.0811 10.3457 22.1933C12.508 23.361 14.4523 23.357 15.7514 22.4085Z" fill="black"/>
<path d="M9.81657 6.42523C5.40649 4.03405 1.83398 5.97489 1.83398 10.7214C1.83398 15.4679 5.40649 21.2426 9.81657 23.6179C14.2267 25.9931 17.7992 24.0682 17.7992 19.3217C17.7992 14.5752 14.2267 8.81642 9.81657 6.42523ZM9.81657 22.6614C5.89793 20.5532 2.71857 15.4201 2.71857 11.1996C2.71857 6.97919 5.89793 5.26949 9.81657 7.3817C13.7352 9.49392 16.9103 14.623 16.9103 18.8435C16.9103 23.0639 13.7352 24.7816 9.81657 22.6693V22.6614Z" fill="#F07846"/>
<path opacity="0.5" d="M9.81657 6.42523C5.40649 4.03405 1.83398 5.97489 1.83398 10.7214C1.83398 15.4679 5.40649 21.2426 9.81657 23.6179C14.2267 25.9931 17.7992 24.0682 17.7992 19.3217C17.7992 14.5752 14.2267 8.81642 9.81657 6.42523ZM9.81657 22.6614C5.89793 20.5532 2.71857 15.4201 2.71857 11.1996C2.71857 6.97919 5.89793 5.26949 9.81657 7.3817C13.7352 9.49392 16.9103 14.623 16.9103 18.8435C16.9103 23.0639 13.7352 24.7816 9.81657 22.6693V22.6614Z" fill="white"/>
<path d="M16.6708 16.7487C16.6708 16.673 16.6366 16.5973 16.6195 16.5256L9.81639 14.9314L15.9614 14.5329C15.9358 14.4652 15.9102 14.4014 15.8803 14.3336L9.81639 14.9394L14.8504 12.341C14.8162 12.2812 14.7777 12.2254 14.7393 12.1656L9.82494 14.9274L13.4017 10.3563L13.2607 10.1929L9.84203 14.9274L11.7479 8.69044C11.6838 8.64262 11.624 8.5908 11.5642 8.539L9.85485 14.9155L9.96168 7.43506L9.85485 7.37529L9.74374 7.31949L9.85485 14.9155L8.14552 6.68184C8.0686 6.65793 7.9874 6.64199 7.91048 6.62206L9.84203 14.9155L6.44473 6.47461L6.21825 6.49453L9.84203 14.9155L4.96616 6.84126C4.90206 6.86915 4.83796 6.90502 4.77386 6.9369L9.84203 14.9075L3.80381 7.73396C3.7568 7.78976 3.71407 7.84555 3.67134 7.90533L9.84203 14.8995L3.01752 9.17266C2.99615 9.24439 2.97051 9.31613 2.95342 9.38787L9.81639 14.9274L2.72266 10.9939C2.72266 11.0657 2.72266 11.1334 2.72266 11.2052V11.2251L9.82066 14.9274L2.91923 13.0982C2.91923 13.1739 2.94915 13.2496 2.96624 13.3214L9.80357 14.9155L3.57732 15.314L3.65852 15.5093L9.80357 14.8956L4.67557 17.5338C4.70976 17.5936 4.74395 17.6534 4.78241 17.7132L9.79075 14.8956L6.13278 19.5743L6.27379 19.7377L9.79075 14.8956L7.83784 21.2721L8.02159 21.4235L9.79075 14.8756L9.72238 22.6071L9.83348 22.6669L9.94031 22.7227L9.83348 14.9274L11.5727 23.3723L11.8078 23.4321L9.83348 14.9274L13.2906 23.5596L13.5171 23.5397L9.81639 14.9274L14.782 23.1611C14.8471 23.129 14.9099 23.0931 14.97 23.0535L9.81639 14.9314L15.9358 22.1927L16.064 22.0213L9.81639 14.9314L16.6537 20.7301C16.6751 20.6583 16.6922 20.5826 16.7135 20.5069L9.80784 14.9274L16.9016 18.8689C16.9016 18.7972 16.9016 18.7215 16.9016 18.6497L9.81212 14.9474L16.6708 16.7487Z" fill="#EBEBEB"/>
<path d="M10.1497 12.9945C9.97208 12.873 9.76188 12.7997 9.54238 12.7828C9.32288 12.7659 9.10265 12.8061 8.90612 12.8988C8.84202 12.9387 8.7651 12.9705 8.67964 13.0184L8.61554 13.0582L8.53007 13.122L8.4617 13.1897V13.2176C8.4617 13.2416 8.42324 13.2655 8.40614 13.2934L8.3805 13.3372L8.34204 13.4089L8.31641 13.4687L8.29076 13.5444C8.28114 13.5704 8.27399 13.597 8.2694 13.6241C8.26697 13.6467 8.26697 13.6694 8.2694 13.6919C8.26699 13.7264 8.26699 13.761 8.2694 13.7955C8.26731 13.8154 8.26731 13.8354 8.2694 13.8553C8.2694 13.9151 8.2694 13.9709 8.2694 14.0346C8.29878 14.5923 8.4689 15.1356 8.76592 15.6203C9.06295 16.1051 9.47849 16.5176 9.97873 16.8243L10.1539 16.908L10.2565 16.9479L10.3249 16.9718H10.3975L10.4958 16.9957H10.53L10.6539 17.0156C10.8513 17.0323 11.0492 16.9889 11.218 16.8921C11.2992 16.8443 11.3761 16.8124 11.4701 16.7606C11.6397 16.6431 11.7737 16.4866 11.8591 16.3064C11.9445 16.1262 11.9783 15.9284 11.9573 15.7324C11.9075 15.1757 11.7179 14.6378 11.4039 14.1622C11.0899 13.6865 10.6602 13.2865 10.1497 12.9945ZM9.65823 16.0791C9.29498 15.7238 9.00523 15.309 8.80357 14.8556C8.89331 14.9114 8.99586 14.9712 9.1027 15.027C9.53003 15.2422 9.53003 14.9473 9.72233 15.1505C9.80177 15.2998 9.84311 15.4641 9.84311 15.6307C9.84311 15.7974 9.80177 15.9617 9.72233 16.111C9.70037 16.104 9.68005 16.0932 9.6625 16.0791H9.65823ZM10.5129 14.1781L10.4402 14.21L10.1753 14.3495C10.121 14.38 10.0755 14.4224 10.0428 14.473C9.77062 14.1236 9.6119 13.7086 9.58558 13.2774C10.026 13.4529 10.4134 13.7266 10.7137 14.0745C10.715 14.0904 10.715 14.1064 10.7137 14.1223C10.6522 14.1358 10.5922 14.1545 10.5343 14.1781H10.5129ZM9.20953 13.9669C9.35055 14.4531 9.56849 14.5248 9.58558 14.6842C9.24371 14.6324 8.69673 14.3256 8.65827 14.0227C8.6507 13.7319 8.75705 13.4485 8.95741 13.2256C9.11979 13.2655 9.11125 13.5683 9.2309 13.9669H9.20953ZM10.1796 16.5095C10.0001 16.3581 10.1796 16.2106 10.2907 15.8918C10.3369 15.742 10.3369 15.5832 10.2907 15.4335C10.6454 15.6925 11.1753 16.374 11.0385 16.5773C11.0367 16.5838 11.0367 16.5906 11.0385 16.5972C10.7577 16.67 10.4575 16.6385 10.2009 16.5095H10.1796ZM11.0342 15.4574C10.6582 14.9911 10.5129 15.1505 10.4189 14.8994C10.4021 14.8391 10.4049 14.7754 10.4269 14.7165C10.449 14.6576 10.4893 14.6061 10.5428 14.5687C10.6395 14.5291 10.7484 14.5244 10.8486 14.5553C10.9488 14.5862 11.0332 14.6506 11.0855 14.736C11.2688 15.1119 11.3676 15.5188 11.3761 15.9316C11.2949 15.8081 11.1838 15.6327 11.0428 15.4574H11.0342Z" fill="#E0E0E0"/>
<path opacity="0.2" d="M10.1497 12.9945C9.97208 12.873 9.76188 12.7997 9.54238 12.7828C9.32288 12.7659 9.10265 12.8061 8.90612 12.8988C8.84202 12.9387 8.7651 12.9705 8.67964 13.0184L8.61554 13.0582L8.53007 13.122L8.4617 13.1897V13.2176C8.4617 13.2416 8.42324 13.2655 8.40614 13.2934L8.3805 13.3372L8.34204 13.4089L8.31641 13.4687L8.29076 13.5444C8.28114 13.5704 8.27399 13.597 8.2694 13.6241C8.26697 13.6467 8.26697 13.6694 8.2694 13.6919C8.26699 13.7264 8.26699 13.761 8.2694 13.7955C8.26731 13.8154 8.26731 13.8354 8.2694 13.8553C8.2694 13.9151 8.2694 13.9709 8.2694 14.0346C8.29878 14.5923 8.4689 15.1356 8.76592 15.6203C9.06295 16.1051 9.47849 16.5176 9.97873 16.8243L10.1539 16.908L10.2565 16.9479L10.3249 16.9718H10.3975L10.4958 16.9957H10.53L10.6539 17.0156C10.8513 17.0323 11.0492 16.9889 11.218 16.8921C11.2992 16.8443 11.3761 16.8124 11.4701 16.7606C11.6397 16.6431 11.7737 16.4866 11.8591 16.3064C11.9445 16.1262 11.9783 15.9284 11.9573 15.7324C11.9075 15.1757 11.7179 14.6378 11.4039 14.1622C11.0899 13.6865 10.6602 13.2865 10.1497 12.9945ZM9.65823 16.0791C9.29498 15.7238 9.00523 15.309 8.80357 14.8556C8.89331 14.9114 8.99586 14.9712 9.1027 15.027C9.53003 15.2422 9.53003 14.9473 9.72233 15.1505C9.80177 15.2998 9.84311 15.4641 9.84311 15.6307C9.84311 15.7974 9.80177 15.9617 9.72233 16.111C9.70037 16.104 9.68005 16.0932 9.6625 16.0791H9.65823ZM10.5129 14.1781L10.4402 14.21L10.1753 14.3495C10.121 14.38 10.0755 14.4224 10.0428 14.473C9.77062 14.1236 9.6119 13.7086 9.58558 13.2774C10.026 13.4529 10.4134 13.7266 10.7137 14.0745C10.715 14.0904 10.715 14.1064 10.7137 14.1223C10.6522 14.1358 10.5922 14.1545 10.5343 14.1781H10.5129ZM9.20953 13.9669C9.35055 14.4531 9.56849 14.5248 9.58558 14.6842C9.24371 14.6324 8.69673 14.3256 8.65827 14.0227C8.6507 13.7319 8.75705 13.4485 8.95741 13.2256C9.11979 13.2655 9.11125 13.5683 9.2309 13.9669H9.20953ZM10.1796 16.5095C10.0001 16.3581 10.1796 16.2106 10.2907 15.8918C10.3369 15.742 10.3369 15.5832 10.2907 15.4335C10.6454 15.6925 11.1753 16.374 11.0385 16.5773C11.0367 16.5838 11.0367 16.5906 11.0385 16.5972C10.7577 16.67 10.4575 16.6385 10.2009 16.5095H10.1796ZM11.0342 15.4574C10.6582 14.9911 10.5129 15.1505 10.4189 14.8994C10.4021 14.8391 10.4049 14.7754 10.4269 14.7165C10.449 14.6576 10.4893 14.6061 10.5428 14.5687C10.6395 14.5291 10.7484 14.5244 10.8486 14.5553C10.9488 14.5862 11.0332 14.6506 11.0855 14.736C11.2688 15.1119 11.3676 15.5188 11.3761 15.9316C11.2949 15.8081 11.1838 15.6327 11.0428 15.4574H11.0342Z" fill="black"/>
<path d="M9.88902 13.1342C8.93607 12.6241 8.17969 13.0386 8.17969 14.0628C8.20906 14.6205 8.37919 15.1638 8.67621 15.6485C8.97324 16.1333 9.38878 16.5458 9.88902 16.8525C10.8377 17.3626 11.5984 16.9482 11.5984 15.9239C11.5683 15.3664 11.3979 14.8234 11.1009 14.3387C10.804 13.854 10.3888 13.4414 9.88902 13.1342ZM9.46169 13.2458C9.97152 13.3966 10.4192 13.6902 10.7437 14.0867C10.8548 14.3099 10.5557 14.2262 10.2822 14.3179C9.93175 14.4334 10.0984 14.7483 9.89329 14.6686C9.58561 14.553 9.12409 13.2378 9.46169 13.2458ZM8.94889 13.194C9.1241 13.2219 9.10273 13.5447 9.23093 13.9672C9.38904 14.5012 9.65826 14.5371 9.60271 14.7363C9.55143 15.0312 8.466 14.5928 8.41472 14.1585C8.36344 13.7241 8.77368 13.1661 8.94889 13.198V13.194ZM9.39759 16.2189C8.96482 15.8185 8.6372 15.3302 8.44036 14.7921C8.44036 14.5889 8.7224 14.8678 9.07281 15.0392C9.50015 15.2544 9.50014 14.9595 9.69244 15.1627C9.97876 15.4497 9.76937 16.4899 9.39759 16.2189ZM11.0556 16.5775C10.8762 16.8406 10.1155 16.8047 9.93603 16.6493C9.75655 16.4938 9.9574 16.3504 10.0514 16.0315C10.1668 15.633 9.91039 15.4138 10.0514 15.3381C10.2736 15.2305 11.2308 16.3145 11.0556 16.5775ZM10.7779 15.5932C10.4061 15.1309 10.2565 15.2903 10.1668 15.0392C10.0343 14.6765 10.8292 14.3019 11.0941 14.7363C11.3318 15.1983 11.4195 15.715 11.3462 16.2228C11.2394 16.3304 11.077 15.9598 10.7779 15.5892V15.5932Z" fill="#E0E0E0"/>
<path d="M9.81621 15.9054C10.2649 16.1485 10.6281 15.9492 10.6281 15.467C10.6128 15.2038 10.5313 14.9476 10.3903 14.7192C10.2492 14.4907 10.0526 14.2964 9.81621 14.1519C9.36751 13.9088 9 14.108 9 14.5903C9.01616 14.8538 9.09843 15.11 9.2402 15.3385C9.38197 15.5669 9.57926 15.7611 9.81621 15.9054Z" fill="#455A64"/>
<path d="M14.252 6.82093L13.8759 7.1278C13.0783 6.41093 12.1934 5.78362 11.2393 5.25869L10.7008 4.96776C9.58599 4.32033 8.31197 3.94988 7.00014 3.89172H6.90184C6.709 3.89031 6.51627 3.90096 6.32495 3.92361C4.56861 4.09497 3.45754 4.58915 2.42766 5.8246C1.24395 7.13577 1.00037 8.90923 1.08584 10.607C1.12077 12.3843 1.50609 14.1405 2.22255 15.7879L1.90632 15.9991C0.940713 14.0057 0.35366 11.8711 0.171345 9.69035C-0.0252282 6.37058 1.83367 3.73231 5.57284 3.0827C9.312 2.4331 14.252 6.82093 14.252 6.82093Z" fill="#F07846"/>
<path opacity="0.3" d="M14.252 6.82093L13.8759 7.1278C13.0783 6.41093 12.1934 5.78362 11.2393 5.25869L10.7008 4.96776C9.58599 4.32033 8.31197 3.94988 7.00014 3.89172H6.90184C6.709 3.89031 6.51627 3.90096 6.32495 3.92361C4.56861 4.09497 3.45754 4.58915 2.42766 5.8246C1.24395 7.13577 1.00037 8.90923 1.08584 10.607C1.12077 12.3843 1.50609 14.1405 2.22255 15.7879L1.90632 15.9991C0.940713 14.0057 0.35366 11.8711 0.171345 9.69035C-0.0252282 6.37058 1.83367 3.73231 5.57284 3.0827C9.312 2.4331 14.252 6.82093 14.252 6.82093Z" fill="black"/>
<path d="M14.9358 6.89488C14.6373 7.21611 14.2687 7.47426 13.8547 7.65209H13.8205C13.6679 7.71976 13.5109 7.77833 13.3504 7.82745H13.3205C12.2927 6.81765 11.1326 5.93259 9.86765 5.19316C4.73965 2.29185 0.543241 3.74649 0.521874 9.91974C0.579348 12.0013 1.04875 14.055 1.90644 15.9774C1.66573 15.9472 1.43753 15.8593 1.24407 15.7223C0.472604 13.9204 0.0570918 12.0031 0.0176176 10.0632C-0.0806691 8.15424 0.205647 6.1576 1.55602 4.695C2.68418 3.3639 3.91063 2.83385 5.82935 2.64256C6.04204 2.61846 6.2561 2.60648 6.47035 2.60669H6.57719C8.03423 2.67269 9.44914 3.08419 10.6881 3.80228L11.2864 4.12509C12.6406 4.87823 13.87 5.81128 14.9358 6.89488Z" fill="#F07846"/>
<path opacity="0.5" d="M14.9358 6.89488C14.6373 7.21611 14.2687 7.47426 13.8547 7.65209H13.8205C13.6679 7.71976 13.5109 7.77833 13.3504 7.82745H13.3205C12.2927 6.81765 11.1326 5.93259 9.86765 5.19316C4.73965 2.29185 0.543241 3.74649 0.521874 9.91974C0.579348 12.0013 1.04875 14.055 1.90644 15.9774C1.66573 15.9472 1.43753 15.8593 1.24407 15.7223C0.472604 13.9204 0.0570918 12.0031 0.0176176 10.0632C-0.0806691 8.15424 0.205647 6.1576 1.55602 4.695C2.68418 3.3639 3.91063 2.83385 5.82935 2.64256C6.04204 2.61846 6.2561 2.60648 6.47035 2.60669H6.57719C8.03423 2.67269 9.44914 3.08419 10.6881 3.80228L11.2864 4.12509C12.6406 4.87823 13.87 5.81128 14.9358 6.89488Z" fill="white"/>
<path d="M13.8551 7.64891H13.821C13.6751 7.73004 13.5165 7.78922 13.3509 7.82426H13.321C12.2932 6.81447 11.1331 5.92941 9.86812 5.18997C4.74012 2.28867 0.543711 3.7433 0.522344 9.91655C0.579818 11.9981 1.04922 14.0518 1.90691 15.9742C1.6662 15.944 1.438 15.8561 1.24454 15.7192C0.473074 13.9172 0.057562 11.9999 0.0180878 10.06C-0.0759255 7.72463 0.445426 4.95484 2.8214 3.71142C4.53073 2.82668 6.84688 2.97015 9.41515 4.35305L10.0134 4.67586C11.4479 5.47988 12.7433 6.48231 13.8551 7.64891Z" fill="#F07846"/>
<path d="M36.6825 17.4379C36.6597 17.4065 36.63 17.3799 36.5955 17.3598C36.561 17.3397 36.5224 17.3266 36.4821 17.3214C36.4418 17.3161 36.4008 17.3188 36.3617 17.3293C36.3226 17.3397 36.2863 17.3577 36.2551 17.3821L35.5073 17.9041L35.3705 17.398L22.4693 24.5317C22.4693 24.5317 22.23 24.6513 22.2172 24.6672L9.82456 14.7558C9.79533 14.7299 9.76066 14.71 9.72274 14.6973C9.68483 14.6846 9.6445 14.6794 9.60432 14.6821C9.56413 14.6847 9.52497 14.6951 9.48932 14.7126C9.45367 14.73 9.42231 14.7543 9.39723 14.7836C9.37034 14.8114 9.34982 14.8441 9.33693 14.8795C9.32403 14.915 9.31903 14.9525 9.32223 14.9898C9.32543 15.0271 9.33677 15.0634 9.35554 15.0965C9.37432 15.1296 9.40013 15.1587 9.43142 15.1822L22.2514 25.4563C22.2824 25.4798 22.3153 25.5011 22.3497 25.5201C22.4276 25.5625 22.5159 25.5858 22.6061 25.5878C22.7341 25.583 22.8571 25.5396 22.9565 25.4643L35.6184 18.494L36.644 17.8205C36.6735 17.7977 36.698 17.7698 36.7159 17.7383C36.7339 17.7067 36.7449 17.6722 36.7485 17.6366C36.7521 17.6011 36.7481 17.5652 36.7367 17.5311C36.7254 17.497 36.707 17.4653 36.6825 17.4379Z" fill="#F07846"/>
<path opacity="0.3" d="M36.6825 17.4379C36.6597 17.4065 36.63 17.3799 36.5955 17.3598C36.561 17.3397 36.5224 17.3266 36.4821 17.3214C36.4418 17.3161 36.4008 17.3188 36.3617 17.3293C36.3226 17.3397 36.2863 17.3577 36.2551 17.3821L35.5073 17.9041L35.3705 17.398L22.4693 24.5317C22.4693 24.5317 22.23 24.6513 22.2172 24.6672L9.82456 14.7558C9.79533 14.7299 9.76066 14.71 9.72274 14.6973C9.68483 14.6846 9.6445 14.6794 9.60432 14.6821C9.56413 14.6847 9.52497 14.6951 9.48932 14.7126C9.45367 14.73 9.42231 14.7543 9.39723 14.7836C9.37034 14.8114 9.34982 14.8441 9.33693 14.8795C9.32403 14.915 9.31903 14.9525 9.32223 14.9898C9.32543 15.0271 9.33677 15.0634 9.35554 15.0965C9.37432 15.1296 9.40013 15.1587 9.43142 15.1822L22.2514 25.4563C22.2824 25.4798 22.3153 25.5011 22.3497 25.5201C22.4276 25.5625 22.5159 25.5858 22.6061 25.5878C22.7341 25.583 22.8571 25.5396 22.9565 25.4643L35.6184 18.494L36.644 17.8205C36.6735 17.7977 36.698 17.7698 36.7159 17.7383C36.7339 17.7067 36.7449 17.6722 36.7485 17.6366C36.7521 17.6011 36.7481 17.5652 36.7367 17.5311C36.7254 17.497 36.707 17.4653 36.6825 17.4379Z" fill="black"/>
<path d="M22.5423 25.5547C22.474 25.5547 22.408 25.5324 22.3556 25.4916C22.3033 25.4508 22.268 25.3941 22.2559 25.3315L19.4142 3.18513C19.3988 3.11817 19.4092 3.04829 19.4436 2.98778C19.478 2.92728 19.5341 2.88002 19.6022 2.85434C19.642 2.84167 19.6843 2.83709 19.7262 2.84091C19.768 2.84472 19.8086 2.85686 19.845 2.87649C19.8814 2.89612 19.9129 2.92279 19.9374 2.95471C19.9619 2.98664 19.9787 3.02308 19.9868 3.06158L22.8328 25.2319C22.8466 25.3032 22.8296 25.3766 22.7856 25.4363C22.7416 25.496 22.6741 25.5371 22.5978 25.5507L22.5423 25.5547Z" fill="#F07846"/>
<path opacity="0.3" d="M22.5423 25.5547C22.474 25.5547 22.408 25.5324 22.3556 25.4916C22.3033 25.4508 22.268 25.3941 22.2559 25.3315L19.4142 3.18513C19.3988 3.11817 19.4092 3.04829 19.4436 2.98778C19.478 2.92728 19.5341 2.88002 19.6022 2.85434C19.642 2.84167 19.6843 2.83709 19.7262 2.84091C19.768 2.84472 19.8086 2.85686 19.845 2.87649C19.8814 2.89612 19.9129 2.92279 19.9374 2.95471C19.9619 2.98664 19.9787 3.02308 19.9868 3.06158L22.8328 25.2319C22.8466 25.3032 22.8296 25.3766 22.7856 25.4363C22.7416 25.496 22.6741 25.5371 22.5978 25.5507L22.5423 25.5547Z" fill="black"/>
<path d="M9.8763 15.1043C9.84847 15.0756 9.82791 15.0414 9.81612 15.0043C9.80433 14.9672 9.80162 14.9281 9.80817 14.8898C9.81473 14.8516 9.8304 14.8152 9.85402 14.7834C9.87764 14.7515 9.90862 14.725 9.94467 14.7058L13.5343 12.9603C15.7571 11.8116 18.2065 11.095 20.7346 10.8539C23.2627 10.6128 25.8169 10.8521 28.2431 11.5574C29.6542 11.9176 31.0412 12.3554 32.3968 12.8686C33.76 13.4106 35.183 14.4906 35.418 16.005V16.1286C35.418 16.1286 35.6488 17.9419 33.0976 16.9974C30.5464 16.0529 25.6876 14.3073 23.3202 13.7693C20.9528 13.2313 19.5383 12.6255 19.2434 11.7168C17.1068 12.0795 14.4616 13.032 10.184 15.1681C10.1314 15.1934 10.0716 15.2024 10.0132 15.1938C9.95477 15.1852 9.90083 15.1595 9.8592 15.1203L9.8763 15.1043Z" fill="#F07846"/>
<path d="M32.6277 13.8689C30.1107 12.4063 23.0811 10.9237 19.2607 11.6969C19.3156 11.8488 19.3964 11.9914 19.5 12.1193C23.0811 11.8882 26.4656 12.6255 28.504 13.7134C30.2133 14.6181 30.4056 15.6702 30.4312 16.001C31.4397 16.3597 32.3756 16.7024 33.1149 16.9734C34.4396 17.4636 35.0122 17.2086 35.2515 16.8539C35.2216 16.005 34.961 15.2279 32.6277 13.8689Z" fill="#F0F0F0"/>
<path d="M22.9699 22.4775C22.2947 22.1148 21.6879 22.0789 21.2606 22.3459C21.1708 22.3977 21.064 22.4416 20.9486 22.5054L20.8546 22.5611C20.8135 22.5872 20.7749 22.6165 20.7392 22.6488L20.7136 22.6727C20.68 22.7041 20.6486 22.7373 20.6196 22.7724L20.5854 22.8082L20.5127 22.9118L20.4786 22.9716C20.4575 23.0049 20.4389 23.0396 20.423 23.0752C20.423 23.0992 20.4016 23.131 20.3888 23.1589L20.3504 23.2586C20.3384 23.2939 20.3284 23.3298 20.3204 23.3662L20.2948 23.4658C20.2948 23.5096 20.2948 23.5615 20.2734 23.6093V23.689C20.2734 23.7687 20.2734 23.8524 20.2734 23.9361C20.317 24.7067 20.5553 25.4569 20.9689 26.1252C21.3826 26.7936 21.9599 27.3613 22.6537 27.7819C22.7322 27.8264 22.8135 27.8663 22.8973 27.9015L23.0383 27.9533C23.0703 27.9669 23.1031 27.9789 23.1366 27.9891L23.2306 28.017L23.3673 28.0489H23.4186L23.5895 28.0728C23.86 28.0965 24.1314 28.0377 24.363 27.9054L24.7134 27.7221C24.9488 27.5601 25.1349 27.3437 25.2533 27.0942C25.3717 26.8447 25.4183 26.5708 25.3886 26.2994C25.3355 25.5299 25.0889 24.783 24.6687 24.119C24.2485 23.455 23.6665 22.8927 22.9699 22.4775ZM22.299 26.7497C21.7853 26.2603 21.3764 25.6841 21.0939 25.052C21.2178 25.1277 21.3589 25.2154 21.5212 25.2911C22.1409 25.59 22.1238 25.1835 22.3759 25.4625C22.628 25.7414 22.581 26.4349 22.3759 26.7896L22.299 26.7497ZM23.5041 24.1194C23.4686 24.1295 23.4342 24.1429 23.4015 24.1593L23.0383 24.3545C22.9623 24.3943 22.899 24.452 22.8545 24.5219C22.4754 24.0384 22.2556 23.4622 22.2221 22.864C22.8331 23.1134 23.3678 23.5011 23.7776 23.9919C23.7891 24.012 23.7978 24.0334 23.8032 24.0556C23.7014 24.065 23.6011 24.0851 23.5041 24.1154V24.1194ZM21.6965 23.8245C21.8973 24.494 22.2007 24.5976 22.2178 24.8168C21.752 24.7451 20.9914 24.3227 20.9358 23.9002C20.9255 23.4894 21.0776 23.0893 21.3631 22.7764C21.5469 22.8521 21.5341 23.2705 21.6879 23.8205L21.6965 23.8245ZM23.0426 27.3435C22.7947 27.1323 23.0725 26.945 23.2007 26.4907C23.2626 26.282 23.2626 26.0616 23.2007 25.853C23.6878 26.2117 24.4186 27.1562 24.2305 27.4471L24.2049 27.475C23.8133 27.572 23.3966 27.5234 23.0426 27.3395V27.3435ZM24.2049 25.8849C23.6878 25.2393 23.4827 25.4625 23.3502 25.1197C23.3271 25.0353 23.3306 24.9464 23.3601 24.8637C23.3897 24.7811 23.4441 24.7081 23.5169 24.6534C23.6519 24.6036 23.8014 24.5999 23.939 24.6429C24.0766 24.6859 24.1935 24.7729 24.269 24.8886C24.5232 25.4099 24.6613 25.9739 24.675 26.5465C24.5596 26.3711 24.4058 26.124 24.2049 25.8809V25.8849Z" fill="#E0E0E0"/>
<path opacity="0.2" d="M22.9699 22.4775C22.2947 22.1148 21.6879 22.0789 21.2606 22.3459C21.1708 22.3977 21.064 22.4416 20.9486 22.5054L20.8546 22.5611C20.8135 22.5872 20.7749 22.6165 20.7392 22.6488L20.7136 22.6727C20.68 22.7041 20.6486 22.7373 20.6196 22.7724L20.5854 22.8082L20.5127 22.9118L20.4786 22.9716C20.4575 23.0049 20.4389 23.0396 20.423 23.0752C20.423 23.0992 20.4016 23.131 20.3888 23.1589L20.3504 23.2586C20.3384 23.2939 20.3284 23.3298 20.3204 23.3662L20.2948 23.4658C20.2948 23.5096 20.2948 23.5615 20.2734 23.6093V23.689C20.2734 23.7687 20.2734 23.8524 20.2734 23.9361C20.317 24.7067 20.5553 25.4569 20.9689 26.1252C21.3826 26.7936 21.9599 27.3613 22.6537 27.7819C22.7322 27.8264 22.8135 27.8663 22.8973 27.9015L23.0383 27.9533C23.0703 27.9669 23.1031 27.9789 23.1366 27.9891L23.2306 28.017L23.3673 28.0489H23.4186L23.5895 28.0728C23.86 28.0965 24.1314 28.0377 24.363 27.9054L24.7134 27.7221C24.9488 27.5601 25.1349 27.3437 25.2533 27.0942C25.3717 26.8447 25.4183 26.5708 25.3886 26.2994C25.3355 25.5299 25.0889 24.783 24.6687 24.119C24.2485 23.455 23.6665 22.8927 22.9699 22.4775ZM22.299 26.7497C21.7853 26.2603 21.3764 25.6841 21.0939 25.052C21.2178 25.1277 21.3589 25.2154 21.5212 25.2911C22.1409 25.59 22.1238 25.1835 22.3759 25.4625C22.628 25.7414 22.581 26.4349 22.3759 26.7896L22.299 26.7497ZM23.5041 24.1194C23.4686 24.1295 23.4342 24.1429 23.4015 24.1593L23.0383 24.3545C22.9623 24.3943 22.899 24.452 22.8545 24.5219C22.4754 24.0384 22.2556 23.4622 22.2221 22.864C22.8331 23.1134 23.3678 23.5011 23.7776 23.9919C23.7891 24.012 23.7978 24.0334 23.8032 24.0556C23.7014 24.065 23.6011 24.0851 23.5041 24.1154V24.1194ZM21.6965 23.8245C21.8973 24.494 22.2007 24.5976 22.2178 24.8168C21.752 24.7451 20.9914 24.3227 20.9358 23.9002C20.9255 23.4894 21.0776 23.0893 21.3631 22.7764C21.5469 22.8521 21.5341 23.2705 21.6879 23.8205L21.6965 23.8245ZM23.0426 27.3435C22.7947 27.1323 23.0725 26.945 23.2007 26.4907C23.2626 26.282 23.2626 26.0616 23.2007 25.853C23.6878 26.2117 24.4186 27.1562 24.2305 27.4471L24.2049 27.475C23.8133 27.572 23.3966 27.5234 23.0426 27.3395V27.3435ZM24.2049 25.8849C23.6878 25.2393 23.4827 25.4625 23.3502 25.1197C23.3271 25.0353 23.3306 24.9464 23.3601 24.8637C23.3897 24.7811 23.4441 24.7081 23.5169 24.6534C23.6519 24.6036 23.8014 24.5999 23.939 24.6429C24.0766 24.6859 24.1935 24.7729 24.269 24.8886C24.5232 25.4099 24.6613 25.9739 24.675 26.5465C24.5596 26.3711 24.4058 26.124 24.2049 25.8809V25.8849Z" fill="black"/>
<path d="M22.6107 22.6681C21.2945 21.9627 20.2305 22.5366 20.2305 23.9514C20.274 24.722 20.5123 25.4721 20.926 26.1405C21.3396 26.8089 21.9169 27.3766 22.6107 27.7972C23.9269 28.5066 24.991 27.9327 24.991 26.5179C24.9468 25.7468 24.7082 24.9964 24.2946 24.3275C23.881 23.6586 23.3041 23.09 22.6107 22.6681ZM22.021 22.8195C22.4911 22.8195 23.6235 23.6843 23.7773 23.9872C23.9312 24.2901 23.5209 24.1785 23.1406 24.306C22.6577 24.4655 22.8885 24.8999 22.6064 24.7923C22.1919 24.6289 21.5509 22.8155 22.021 22.8195ZM21.3116 22.7558C21.5552 22.7916 21.5253 23.234 21.6962 23.8198C21.9184 24.5611 22.2646 24.6169 22.2176 24.8839C22.1449 25.2824 20.645 24.6847 20.5723 24.0869C20.4997 23.4891 21.068 22.7119 21.3116 22.7637V22.7558ZM21.9313 26.9363C21.3455 26.3728 20.9068 25.6909 20.6493 24.9437C20.6493 24.6647 21.0381 25.0513 21.5253 25.2864C22.1449 25.5853 22.1278 25.1788 22.38 25.4578C22.7346 25.8683 22.4483 27.311 21.9313 26.9363ZM24.2218 27.4305C23.9739 27.7932 22.9398 27.7454 22.6791 27.5341C22.4184 27.3229 22.709 27.1157 22.8329 26.6773C22.9953 26.1194 22.6406 25.8205 22.8329 25.7168C23.1449 25.5534 24.4696 27.0639 24.2218 27.4305ZM23.8243 26.0715C23.3073 25.4299 23.1021 25.6491 22.9697 25.3064C22.7859 24.8002 23.8884 24.2861 24.2517 24.8839C24.6149 25.4817 24.7474 26.7929 24.5978 26.9443C24.4482 27.0958 24.2517 26.5777 23.8243 26.0715Z" fill="#E0E0E0"/>
<path d="M22.6106 26.018C23.0123 26.2332 23.3371 26.0578 23.3371 25.6194C23.3263 25.3807 23.2549 25.1478 23.1285 24.9399C23.0022 24.732 22.8247 24.5551 22.6106 24.4238C22.2089 24.2086 21.8799 24.384 21.8799 24.8224C21.8914 25.0614 21.9637 25.2944 22.0908 25.5023C22.2178 25.7102 22.396 25.8869 22.6106 26.018Z" fill="#455A64"/>
<path d="M20.2046 28.8165C20.1747 28.818 20.1449 28.8111 20.1192 28.7966C20.0959 28.7864 20.0751 28.7719 20.0579 28.7541C20.0408 28.7362 20.0276 28.7154 20.0193 28.6927C20.0109 28.67 20.0075 28.646 20.0092 28.6221C20.011 28.5982 20.0178 28.5749 20.0294 28.5535L21.6405 25.5127L22.4952 25.0584C22.5176 25.0463 22.5423 25.0384 22.568 25.0353C22.5937 25.0321 22.6198 25.0337 22.6449 25.04C22.6699 25.0463 22.6933 25.0572 22.7138 25.0719C22.7344 25.0867 22.7515 25.1051 22.7644 25.1261C22.7773 25.1467 22.7856 25.1695 22.7889 25.1932C22.7923 25.2169 22.7905 25.2409 22.7837 25.2639C22.777 25.2869 22.7653 25.3084 22.7495 25.3272C22.7337 25.346 22.7141 25.3616 22.6917 25.3732L21.9482 25.7717L20.3927 28.7129C20.3763 28.7459 20.3495 28.7735 20.316 28.792C20.2824 28.8105 20.2436 28.8191 20.2046 28.8165Z" fill="#F07846"/>
<g opacity="0.3">
<path d="M20.2046 28.8153C20.1747 28.8168 20.1449 28.8099 20.1192 28.7954C20.0959 28.7852 20.0751 28.7707 20.0579 28.7529C20.0408 28.735 20.0276 28.7142 20.0193 28.6915C20.0109 28.6688 20.0075 28.6448 20.0092 28.6209C20.011 28.597 20.0178 28.5737 20.0294 28.5523L21.6405 25.5115L22.4952 25.0571C22.5176 25.045 22.5423 25.0372 22.568 25.034C22.5937 25.0309 22.6198 25.0325 22.6449 25.0388C22.6699 25.0451 22.6933 25.0559 22.7138 25.0707C22.7344 25.0855 22.7515 25.1039 22.7644 25.1249C22.7773 25.1455 22.7856 25.1683 22.7889 25.192C22.7923 25.2156 22.7905 25.2397 22.7837 25.2627C22.777 25.2857 22.7653 25.3072 22.7495 25.326C22.7337 25.3448 22.7141 25.3604 22.6917 25.372L21.9482 25.7705L20.3927 28.7117C20.3763 28.7447 20.3495 28.7723 20.316 28.7908C20.2824 28.8093 20.2436 28.8178 20.2046 28.8153Z" fill="black"/>
</g>
<path d="M21.021 29.1039L19.4783 28.271C19.4357 28.2494 19.3879 28.238 19.3394 28.238C19.2909 28.238 19.2432 28.2494 19.2005 28.271L17.0639 29.4307C17.0214 29.4531 16.9861 29.4855 16.9613 29.5247C16.9365 29.5639 16.9233 29.6084 16.9229 29.6539V29.7814C16.9237 29.8268 16.9371 29.8712 16.9619 29.9103C16.9866 29.9494 17.0217 29.9819 17.0639 30.0046L18.6108 30.8375C18.6519 30.8612 18.6993 30.8737 18.7476 30.8737C18.7959 30.8737 18.8432 30.8612 18.8843 30.8375L21.021 29.6778C21.0629 29.6552 21.0977 29.6227 21.1217 29.5835C21.1457 29.5442 21.1582 29.4998 21.1577 29.4546V29.3271C21.1582 29.2819 21.1457 29.2375 21.1217 29.1983C21.0977 29.1591 21.0629 29.1265 21.021 29.1039Z" fill="#F07846"/>
<path opacity="0.2" d="M21.021 29.1039L19.4783 28.271C19.4357 28.2494 19.3879 28.238 19.3394 28.238C19.2909 28.238 19.2432 28.2494 19.2005 28.271L17.0639 29.4307C17.0214 29.4531 16.9861 29.4855 16.9613 29.5247C16.9365 29.5639 16.9233 29.6084 16.9229 29.6539V29.7814C16.9237 29.8268 16.9371 29.8712 16.9619 29.9103C16.9866 29.9494 17.0217 29.9819 17.0639 30.0046L18.6108 30.8375C18.6519 30.8612 18.6993 30.8737 18.7476 30.8737C18.7959 30.8737 18.8432 30.8612 18.8843 30.8375L21.021 29.6778C21.0629 29.6552 21.0977 29.6227 21.1217 29.5835C21.1457 29.5442 21.1582 29.4998 21.1577 29.4546V29.3271C21.1582 29.2819 21.1457 29.2375 21.1217 29.1983C21.0977 29.1591 21.0629 29.1265 21.021 29.1039Z" fill="black"/>
<path d="M18.6069 30.4151C18.6457 30.4365 18.69 30.4478 18.7351 30.4478C18.7802 30.4478 18.8245 30.4365 18.8633 30.4151L21.1196 29.1956C21.0971 29.1568 21.0629 29.1249 21.0213 29.1039L20.594 28.8688L19.4829 28.271C19.4403 28.2494 19.3926 28.238 19.3441 28.238C19.2955 28.238 19.2478 28.2494 19.2052 28.271L18.9445 28.4105L17.0557 29.4307C17.0137 29.4526 16.9784 29.4842 16.9531 29.5224L18.6069 30.4151Z" fill="#F07846"/>
<path d="M26.0555 25.7765C26.0555 24.1425 25.8248 23.0784 23.671 21.4126C21.7993 19.9619 12.7868 16.2317 12.7868 16.2317L12.415 16.4469L20.3164 22.8234L20.6882 22.6082C20.7526 22.4363 20.8612 22.2816 21.0044 22.1578C21.2688 22.0891 21.5457 22.0727 21.8173 22.1097C22.0889 22.1468 22.3491 22.2365 22.5813 22.3731C23.2855 22.6707 23.8933 23.136 24.3434 23.7223C24.7935 24.3086 25.0701 24.9951 25.1453 25.7127L25.7008 25.9957L26.0555 25.7765Z" fill="#F07846"/>
<path opacity="0.3" d="M26.0555 25.7765C26.0555 24.1425 25.8248 23.0784 23.671 21.4126C21.7993 19.9619 12.7868 16.2317 12.7868 16.2317L12.415 16.4469L20.3164 22.8234L20.6882 22.6082C20.7526 22.4363 20.8612 22.2816 21.0044 22.1578C21.2688 22.0891 21.5457 22.0727 21.8173 22.1097C22.0889 22.1468 22.3491 22.2365 22.5813 22.3731C23.2855 22.6707 23.8933 23.136 24.3434 23.7223C24.7935 24.3086 25.0701 24.9951 25.1453 25.7127L25.7008 25.9957L26.0555 25.7765Z" fill="black"/>
<path d="M20.3164 22.8184L12.415 16.4419C12.415 16.4419 21.4275 20.1761 23.2992 21.6228C25.4359 23.2887 25.6709 24.3527 25.6837 25.9867L25.1282 25.7038C25.053 24.9861 24.7764 24.2996 24.3263 23.7133C23.8762 23.127 23.2684 22.6617 22.5642 22.3641C20.7267 21.5152 20.3164 22.8184 20.3164 22.8184Z" fill="#F07846"/>
<path d="M26.5386 5.88136C25.949 5.09574 25.2869 4.35964 24.56 3.68147C24.56 3.68147 20.9832 -0.809974 17.0133 1.32615C16.6472 1.50828 16.3321 1.76792 16.0931 2.08422C15.8541 2.40053 15.698 2.76468 15.6373 3.14744C15.5921 3.41095 15.582 3.67868 15.6074 3.9445C15.6378 4.35855 15.8101 4.75252 16.0988 5.06836C16.6202 5.74188 18.0987 6.29583 19.8679 6.71429L20.2525 6.79798C20.8807 6.93348 21.5345 7.04905 22.1541 7.16861C22.7738 7.28817 23.4361 7.40773 24.0344 7.56714C24.2908 7.63091 24.5429 7.69866 24.7908 7.78235C24.8933 7.81822 24.9916 7.85807 25.0899 7.90191C25.2056 7.97645 25.3365 8.028 25.4745 8.05335C25.5663 8.05509 25.6581 8.04707 25.748 8.02944C25.8307 8.01513 25.9121 7.99515 25.9916 7.96966C26.0603 7.94155 26.1249 7.90539 26.1839 7.86206C26.4112 7.69829 26.5809 7.47483 26.671 7.22042C26.7549 7.0017 26.7865 6.76853 26.7636 6.53722C26.7407 6.30592 26.6639 6.08208 26.5386 5.88136Z" fill="#9A4A4D"/>
<path d="M17.0124 1.32615C15.8116 1.97576 15.1535 3.16737 16.098 4.38289C16.6193 5.0564 18.0979 5.61036 19.867 6.02483C21.6362 6.4393 24.666 6.82189 25.4224 7.39179C26.1787 7.96169 27.2385 6.93348 26.5462 5.88136C25.9567 5.09574 25.2946 4.35964 24.5677 3.68147C24.5677 3.68147 20.9824 -0.809974 17.0124 1.32615Z" fill="#B16668"/>
<path d="M41.072 31.6824C41.0147 31.6834 40.9585 31.6684 40.9105 31.6393C40.8625 31.6101 40.825 31.5682 40.8027 31.519L39.0079 27.6652V27.6254L36.179 17.6621C36.1654 17.6263 36.1599 17.5882 36.1629 17.5502C36.1659 17.5123 36.1773 17.4754 36.1964 17.4418C36.2154 17.4082 36.2418 17.3786 36.2737 17.355C36.3056 17.3313 36.3425 17.3141 36.3819 17.3045C36.4214 17.2948 36.4625 17.2928 36.5028 17.2988C36.5431 17.3047 36.5816 17.3183 36.6159 17.3388C36.6503 17.3593 36.6797 17.3862 36.7023 17.4179C36.7249 17.4495 36.7403 17.4852 36.7473 17.5226L39.5677 27.458L41.3497 31.2919C41.3659 31.3245 41.3749 31.3598 41.3761 31.3957C41.3773 31.4316 41.3707 31.4674 41.3568 31.5009C41.3428 31.5344 41.3218 31.5649 41.2948 31.5906C41.2679 31.6163 41.2357 31.6367 41.2002 31.6505C41.1608 31.6705 41.1168 31.6815 41.072 31.6824Z" fill="#F07846"/>
<path opacity="0.5" d="M41.072 31.6824C41.0147 31.6834 40.9585 31.6684 40.9105 31.6393C40.8625 31.6101 40.825 31.5682 40.8027 31.519L39.0079 27.6652V27.6254L36.179 17.6621C36.1654 17.6263 36.1599 17.5882 36.1629 17.5502C36.1659 17.5123 36.1773 17.4754 36.1964 17.4418C36.2154 17.4082 36.2418 17.3786 36.2737 17.355C36.3056 17.3313 36.3425 17.3141 36.3819 17.3045C36.4214 17.2948 36.4625 17.2928 36.5028 17.2988C36.5431 17.3047 36.5816 17.3183 36.6159 17.3388C36.6503 17.3593 36.6797 17.3862 36.7023 17.4179C36.7249 17.4495 36.7403 17.4852 36.7473 17.5226L39.5677 27.458L41.3497 31.2919C41.3659 31.3245 41.3749 31.3598 41.3761 31.3957C41.3773 31.4316 41.3707 31.4674 41.3568 31.5009C41.3428 31.5344 41.3218 31.5649 41.2948 31.5906C41.2679 31.6163 41.2357 31.6367 41.2002 31.6505C41.1608 31.6705 41.1168 31.6815 41.072 31.6824Z" fill="black"/>
<path d="M42.033 21.868L41.4946 21.5771C40.3794 20.931 39.1054 20.562 37.7939 20.505H37.6999C37.5056 20.5035 37.3114 20.5141 37.1187 20.5369C35.3624 20.7083 34.2513 21.1985 33.2214 22.4339C32.042 23.7491 31.7941 25.5185 31.8796 27.2163C31.8796 32.2497 35.6658 38.3752 40.3408 40.8819L40.8792 41.1728C41.9941 41.8203 43.2681 42.1907 44.58 42.2489C46.738 42.2489 48.4943 41.4518 49.5627 39.778C50.1182 39.1164 50.4985 37.6618 50.4985 36.1195V35.5376C50.4943 30.5002 46.7081 24.3827 42.033 21.868ZM40.61 40.2203C36.1999 37.8292 32.6274 32.0744 32.6274 27.3279C32.6274 22.5814 36.1999 20.6525 40.61 23.0277C45.0201 25.403 48.6097 31.1737 48.6097 35.9122C48.6097 40.6508 45.0201 42.5956 40.61 40.2203Z" fill="#37474F"/>
<path d="M40.8793 22.3656L40.3409 22.0746C38.029 20.8272 35.9351 20.6997 34.4052 21.4968C32.2685 22.6127 31.7985 25.1114 31.8797 27.2077C31.8797 32.2412 35.6658 38.3666 40.3409 40.8733L40.8793 41.1643C42.0157 41.8254 43.3184 42.1964 44.6569 42.2403C45.4471 42.2502 46.2254 42.0601 46.909 41.6903C48.4132 40.8534 49.3405 39.0999 49.3405 36.6091V36.0312C49.3405 31.0057 45.5501 24.8883 40.8793 22.3656ZM40.6101 40.2158C36.2 37.8246 32.6275 32.0698 32.6275 27.3233C32.6275 22.5768 36.2 20.6479 40.6101 23.0231C45.0202 25.3984 48.6098 31.1771 48.6098 35.9156C48.6098 40.6542 45.0202 42.599 40.6101 40.2237V40.2158Z" fill="#263238"/>
<path d="M46.5454 39.0071C45.2847 40.406 43.0968 40.6013 40.6097 39.2662C36.6911 37.158 33.5117 32.0249 33.5117 27.8044C33.5117 25.9194 34.1484 24.5325 35.1997 23.7673C34.4689 24.5644 34.0416 25.7839 34.0416 27.3302C34.0416 31.5467 37.2167 36.6797 41.1396 38.7919C43.3062 39.9596 45.2463 39.9557 46.5454 39.0071Z" fill="#F07846"/>
<path opacity="0.2" d="M46.5454 39.0071C45.2847 40.406 43.0968 40.6013 40.6097 39.2662C36.6911 37.158 33.5117 32.0249 33.5117 27.8044C33.5117 25.9194 34.1484 24.5325 35.1997 23.7673C34.4689 24.5644 34.0416 25.7839 34.0416 27.3302C34.0416 31.5467 37.2167 36.6797 41.1396 38.7919C43.3062 39.9596 45.2463 39.9557 46.5454 39.0071Z" fill="black"/>
<path d="M40.6095 23.029C36.1995 20.6378 32.627 22.5787 32.627 27.3252C32.627 32.0717 36.1995 37.8464 40.6095 40.2216C45.0196 42.5969 48.6092 40.672 48.6092 35.9135C48.6092 31.155 45.0196 25.4042 40.6095 23.029ZM40.6095 39.2651C36.6909 37.1569 33.5115 32.0238 33.5115 27.8034C33.5115 23.5829 36.6909 21.8733 40.6095 23.9855C44.5282 26.0977 47.7033 31.2268 47.7033 35.4472C47.7033 39.6677 44.5282 41.3774 40.6095 39.2651Z" fill="#F07846"/>
<path opacity="0.5" d="M40.6095 23.029C36.1995 20.6378 32.627 22.5787 32.627 27.3252C32.627 32.0717 36.1995 37.8464 40.6095 40.2216C45.0196 42.5969 48.6092 40.672 48.6092 35.9135C48.6092 31.155 45.0196 25.4042 40.6095 23.029ZM40.6095 39.2651C36.6909 37.1569 33.5115 32.0238 33.5115 27.8034C33.5115 23.5829 36.6909 21.8733 40.6095 23.9855C44.5282 26.0977 47.7033 31.2268 47.7033 35.4472C47.7033 39.6677 44.5282 41.3774 40.6095 39.2651Z" fill="white"/>
<path d="M47.4644 33.3492C47.4644 33.2735 47.4302 33.1978 47.4131 33.1261L40.61 31.5319L46.755 31.1334C46.7294 31.0657 46.7037 31.0019 46.6738 30.9341L40.61 31.5319L45.6183 28.9415C45.5841 28.8817 45.5457 28.8219 45.5072 28.7661L40.61 31.5319L44.191 26.9608L44.0457 26.7974L40.6271 31.5319L42.533 25.2949C42.4689 25.2471 42.409 25.1953 42.3492 25.1435L40.6399 31.52L40.7467 24.0396L40.6399 23.9798L40.5288 23.924L40.6399 31.52L38.9305 23.2863C38.8536 23.2624 38.7724 23.2465 38.6955 23.2266L40.61 31.5319L37.2127 23.0911L36.9862 23.111L40.61 31.5319L35.7341 23.4577L35.5418 23.5534L40.61 31.524L34.5717 24.3504C34.5247 24.4062 34.482 24.462 34.4393 24.5218L40.61 31.5319L33.8111 25.7772C33.7897 25.8489 33.7641 25.9206 33.747 25.9924L40.61 31.5319L33.5205 27.5984C33.5205 27.6702 33.5205 27.7379 33.5205 27.8097L40.61 31.5319L33.7085 29.7027C33.7085 29.7784 33.7384 29.8541 33.7555 29.9259L40.5929 31.52L34.3666 31.9185L34.4478 32.1138L40.61 31.5319L35.482 34.1702C35.5162 34.23 35.5503 34.2898 35.5888 34.3496L40.61 31.5319L36.952 36.2107L37.093 36.3741L40.61 31.5319L38.657 37.9084L38.8408 38.0599L40.61 31.5319L40.4903 39.2076L40.6014 39.2674L40.7083 39.3232L40.61 31.5319L42.3492 39.9768C42.4304 40.0007 42.5073 40.0167 42.5842 40.0326L40.61 31.5319L44.0842 40.1641L44.3107 40.1442L40.61 31.5319L45.5756 39.7616C45.6407 39.7295 45.7035 39.6936 45.7636 39.654L40.61 31.5319L46.7294 38.7932L46.8576 38.6218L40.61 31.5319L47.4473 37.3306C47.4687 37.2588 47.4858 37.1831 47.5071 37.1074L40.6014 31.528L47.6951 35.4694C47.6951 35.3977 47.6951 35.322 47.6951 35.2502L40.61 31.5319L47.4644 33.3492Z" fill="#EBEBEB"/>
<path d="M40.9475 29.5933C40.7699 29.4718 40.5597 29.3986 40.3402 29.3817C40.1207 29.3648 39.9005 29.405 39.704 29.4977C39.6399 29.5375 39.563 29.5694 39.4775 29.6173L39.4134 29.6571L39.3279 29.7209V29.7408L39.2596 29.8085L39.2382 29.8364C39.2382 29.8604 39.1997 29.8843 39.1826 29.9122C39.173 29.9256 39.1658 29.9404 39.1613 29.956C39.1454 29.979 39.1311 30.003 39.1185 30.0277L39.0929 30.0875L39.0673 30.1632C39.0648 30.1898 39.0648 30.2164 39.0673 30.2429C39.0648 30.2655 39.0648 30.2882 39.0673 30.3107C39.0648 30.3452 39.0648 30.3798 39.0673 30.4143C39.0652 30.4342 39.0652 30.4542 39.0673 30.4741C39.0673 30.5339 39.0673 30.5897 39.0673 30.6534C39.0966 31.2111 39.2668 31.7544 39.5638 32.2391C39.8608 32.7239 40.2763 33.1364 40.7766 33.4431L40.9518 33.5268L41.0544 33.5667L41.1227 33.5906L41.1954 33.6105L41.2937 33.6344H41.3278L41.4518 33.6544C41.6492 33.671 41.847 33.6277 42.0159 33.5308C42.097 33.483 42.174 33.4511 42.268 33.3993C42.4375 33.2818 42.5716 33.1253 42.6569 32.9451C42.7423 32.7649 42.7761 32.5671 42.7551 32.3711C42.7129 31.8073 42.5269 31.261 42.2125 30.7778C41.898 30.2946 41.4643 29.8885 40.9475 29.5933ZM40.4561 32.678C40.0917 32.322 39.8018 31.9057 39.6014 31.4505C39.6977 31.5139 39.7975 31.5725 39.9006 31.6258C40.3493 31.8411 40.3279 31.5461 40.5202 31.7494C40.5996 31.8986 40.641 32.063 40.641 32.2296C40.641 32.3962 40.5996 32.5606 40.5202 32.7099C40.4967 32.7034 40.4749 32.6926 40.4561 32.678ZM41.3108 30.777L41.2381 30.8089L40.9732 30.9483C40.9189 30.9788 40.8734 31.0213 40.8407 31.0719C40.5685 30.7225 40.4098 30.3075 40.3834 29.8763C40.8238 30.0518 41.2112 30.3255 41.5116 30.6734V30.7212C41.4545 30.7354 41.3987 30.754 41.3449 30.777H41.3108ZM40.0288 30.5658C40.1698 31.052 40.3877 31.1237 40.4048 31.2831C40.0629 31.2313 39.516 30.9244 39.4775 30.6215C39.4646 30.324 39.5713 30.0326 39.7766 29.8046C39.9134 29.8643 39.9048 30.1672 40.0245 30.5658H40.0288ZM40.9988 33.1084C40.8193 32.9569 41.0202 32.8095 41.1099 32.4907C41.1561 32.3409 41.1561 32.1821 41.1099 32.0323C41.4646 32.2914 41.9945 32.9729 41.8577 33.1761C41.8559 33.1827 41.8559 33.1895 41.8577 33.1961C41.7159 33.2378 41.5666 33.2529 41.4185 33.2406C41.2703 33.2283 41.1262 33.1888 40.9945 33.1243L40.9988 33.1084ZM41.8535 32.0563C41.4774 31.59 41.3321 31.7494 41.2424 31.4983C41.2242 31.4378 41.2259 31.3735 41.2472 31.3138C41.2685 31.2542 41.3085 31.2018 41.362 31.1636C41.4592 31.1244 41.5685 31.1202 41.6688 31.1518C41.769 31.1835 41.8531 31.2487 41.9047 31.3349C42.088 31.7108 42.1869 32.1177 42.1953 32.5305C42.0885 32.407 41.9774 32.2316 41.8364 32.0563H41.8535Z" fill="#E0E0E0"/>
<path opacity="0.2" d="M40.9475 29.5933C40.7699 29.4718 40.5597 29.3986 40.3402 29.3817C40.1207 29.3648 39.9005 29.405 39.704 29.4977C39.6399 29.5375 39.563 29.5694 39.4775 29.6173L39.4134 29.6571L39.3279 29.7209V29.7408L39.2596 29.8085L39.2382 29.8364C39.2382 29.8604 39.1997 29.8843 39.1826 29.9122C39.173 29.9256 39.1658 29.9404 39.1613 29.956C39.1454 29.979 39.1311 30.003 39.1185 30.0277L39.0929 30.0875L39.0673 30.1632C39.0648 30.1898 39.0648 30.2164 39.0673 30.2429C39.0648 30.2655 39.0648 30.2882 39.0673 30.3107C39.0648 30.3452 39.0648 30.3798 39.0673 30.4143C39.0652 30.4342 39.0652 30.4542 39.0673 30.4741C39.0673 30.5339 39.0673 30.5897 39.0673 30.6534C39.0966 31.2111 39.2668 31.7544 39.5638 32.2391C39.8608 32.7239 40.2763 33.1364 40.7766 33.4431L40.9518 33.5268L41.0544 33.5667L41.1227 33.5906L41.1954 33.6105L41.2937 33.6344H41.3278L41.4518 33.6544C41.6492 33.671 41.847 33.6277 42.0159 33.5308C42.097 33.483 42.174 33.4511 42.268 33.3993C42.4375 33.2818 42.5716 33.1253 42.6569 32.9451C42.7423 32.7649 42.7761 32.5671 42.7551 32.3711C42.7129 31.8073 42.5269 31.261 42.2125 30.7778C41.898 30.2946 41.4643 29.8885 40.9475 29.5933ZM40.4561 32.678C40.0917 32.322 39.8018 31.9057 39.6014 31.4505C39.6977 31.5139 39.7975 31.5725 39.9006 31.6258C40.3493 31.8411 40.3279 31.5461 40.5202 31.7494C40.5996 31.8986 40.641 32.063 40.641 32.2296C40.641 32.3962 40.5996 32.5606 40.5202 32.7099C40.4967 32.7034 40.4749 32.6926 40.4561 32.678ZM41.3108 30.777L41.2381 30.8089L40.9732 30.9483C40.9189 30.9788 40.8734 31.0213 40.8407 31.0719C40.5685 30.7225 40.4098 30.3075 40.3834 29.8763C40.8238 30.0518 41.2112 30.3255 41.5116 30.6734V30.7212C41.4545 30.7354 41.3987 30.754 41.3449 30.777H41.3108ZM40.0288 30.5658C40.1698 31.052 40.3877 31.1237 40.4048 31.2831C40.0629 31.2313 39.516 30.9244 39.4775 30.6215C39.4646 30.324 39.5713 30.0326 39.7766 29.8046C39.9134 29.8643 39.9048 30.1672 40.0245 30.5658H40.0288ZM40.9988 33.1084C40.8193 32.9569 41.0202 32.8095 41.1099 32.4907C41.1561 32.3409 41.1561 32.1821 41.1099 32.0323C41.4646 32.2914 41.9945 32.9729 41.8577 33.1761C41.8559 33.1827 41.8559 33.1895 41.8577 33.1961C41.7159 33.2378 41.5666 33.2529 41.4185 33.2406C41.2703 33.2283 41.1262 33.1888 40.9945 33.1243L40.9988 33.1084ZM41.8535 32.0563C41.4774 31.59 41.3321 31.7494 41.2424 31.4983C41.2242 31.4378 41.2259 31.3735 41.2472 31.3138C41.2685 31.2542 41.3085 31.2018 41.362 31.1636C41.4592 31.1244 41.5685 31.1202 41.6688 31.1518C41.769 31.1835 41.8531 31.2487 41.9047 31.3349C42.088 31.7108 42.1869 32.1177 42.1953 32.5305C42.0885 32.407 41.9774 32.2316 41.8364 32.0563H41.8535Z" fill="black"/>
<path d="M40.683 29.7329C39.73 29.2227 38.9736 29.6372 38.9736 30.6614C39.003 31.2191 39.1731 31.7624 39.4701 32.2471C39.7672 32.7319 40.1827 33.1444 40.683 33.4511C41.6316 33.9613 42.3923 33.5468 42.3923 32.5226C42.3619 31.9651 42.1914 31.4222 41.8944 30.9376C41.5975 30.453 41.1825 30.0403 40.683 29.7329ZM40.2556 29.8444C40.7655 29.9952 41.2131 30.2888 41.5376 30.6853C41.6487 30.9085 41.3496 30.8248 41.0761 30.9165C40.7257 31.0321 40.8924 31.3469 40.6872 31.2672C40.3796 31.1516 39.918 29.8365 40.2556 29.8444ZM39.7428 29.7926C39.918 29.8205 39.8967 30.1433 40.0249 30.5658C40.183 31.0998 40.4308 31.1357 40.3966 31.3349C40.3454 31.6299 39.2599 31.1915 39.2087 30.7571C39.1574 30.3227 39.5676 29.7647 39.7428 29.7926ZM40.1915 32.8175C39.7633 32.412 39.4415 31.9196 39.2514 31.3788C39.2514 31.1755 39.5334 31.4545 39.8838 31.6259C40.3325 31.8411 40.3112 31.5462 40.5035 31.7494C40.7727 32.0483 40.5633 33.0885 40.1915 32.8175ZM41.8496 33.1762C41.6701 33.4392 40.9094 33.4033 40.73 33.2479C40.5505 33.0925 40.7513 32.949 40.8453 32.6302C40.9607 32.2316 40.7043 32.0125 40.8453 31.9367C40.9864 31.861 42.0248 32.9091 41.8496 33.1762ZM41.5718 32.1918C41.2 31.7295 41.0505 31.8889 40.9607 31.6378C40.8283 31.2752 41.6231 30.9005 41.888 31.3349C42.153 31.7693 42.247 32.7139 42.1402 32.8215C42.0333 32.9291 41.8709 32.5584 41.5718 32.1918Z" fill="#E0E0E0"/>
<path d="M40.6102 32.5043C41.0589 32.7474 41.4221 32.5481 41.4221 32.0659C41.4071 31.8026 41.3257 31.5463 41.1847 31.3178C41.0436 31.0893 40.8468 30.895 40.6102 30.7508C40.1828 30.5076 39.7939 30.7069 39.7939 31.1891C39.8101 31.4526 39.8924 31.7089 40.0342 31.9373C40.1759 32.1658 40.3732 32.36 40.6102 32.5043Z" fill="#455A64"/>
<path d="M45.0459 23.4322L44.6699 23.7391C43.8722 23.0222 42.9873 22.3949 42.0332 21.87L41.4948 21.5791C40.3799 20.9317 39.1059 20.5612 37.7941 20.5031H37.6958C37.5029 20.5016 37.3102 20.5123 37.1189 20.5349C35.3625 20.7063 34.2515 21.2005 33.2216 22.4359C32.0379 23.7471 31.7943 25.5205 31.8798 27.2183C31.9147 28.9957 32.3 30.7519 33.0165 32.3992L32.7003 32.6104C31.7347 30.617 31.1476 28.4824 30.9653 26.3017C30.7687 22.9819 32.6276 20.3436 36.3668 19.694C40.106 19.0444 45.0459 23.4322 45.0459 23.4322Z" fill="#F07846"/>
<path opacity="0.3" d="M45.0459 23.4322L44.6699 23.7391C43.8722 23.0222 42.9873 22.3949 42.0332 21.87L41.4948 21.5791C40.3799 20.9317 39.1059 20.5612 37.7941 20.5031H37.6958C37.5029 20.5016 37.3102 20.5123 37.1189 20.5349C35.3625 20.7063 34.2515 21.2005 33.2216 22.4359C32.0379 23.7471 31.7943 25.5205 31.8798 27.2183C31.9147 28.9957 32.3 30.7519 33.0165 32.3992L32.7003 32.6104C31.7347 30.617 31.1476 28.4824 30.9653 26.3017C30.7687 22.9819 32.6276 20.3436 36.3668 19.694C40.106 19.0444 45.0459 23.4322 45.0459 23.4322Z" fill="black"/>
<path d="M45.7298 23.4922C45.4312 23.8134 45.0626 24.0716 44.6486 24.2494H44.6144C44.4619 24.3171 44.3049 24.3757 44.1444 24.4248H44.1144C43.0854 23.4173 41.9255 22.5337 40.6616 21.7945C35.5336 18.8932 31.3372 20.3478 31.3158 26.521C31.3733 28.6026 31.8427 30.6563 32.7004 32.5787C32.4597 32.5485 32.2315 32.4606 32.038 32.3237C31.2665 30.5217 30.851 28.6044 30.8116 26.6645C30.7133 24.7556 30.9996 22.7589 32.35 21.2963C33.4781 19.9652 34.7046 19.4352 36.6233 19.2439C36.836 19.2198 37.05 19.2078 37.2643 19.208H37.3711C38.8282 19.274 40.2431 19.6855 41.4821 20.4036L42.0803 20.7264C43.4343 21.4783 44.6636 22.41 45.7298 23.4922Z" fill="#F07846"/>
<path opacity="0.5" d="M45.7298 23.4922C45.4312 23.8134 45.0626 24.0716 44.6486 24.2494H44.6144C44.4619 24.3171 44.3049 24.3757 44.1444 24.4248H44.1144C43.0854 23.4173 41.9255 22.5337 40.6616 21.7945C35.5336 18.8932 31.3372 20.3478 31.3158 26.521C31.3733 28.6026 31.8427 30.6563 32.7004 32.5787C32.4597 32.5485 32.2315 32.4606 32.038 32.3237C31.2665 30.5217 30.851 28.6044 30.8116 26.6645C30.7133 24.7556 30.9996 22.7589 32.35 21.2963C33.4781 19.9652 34.7046 19.4352 36.6233 19.2439C36.836 19.2198 37.05 19.2078 37.2643 19.208H37.3711C38.8282 19.274 40.2431 19.6855 41.4821 20.4036L42.0803 20.7264C43.4343 21.4783 44.6636 22.41 45.7298 23.4922Z" fill="white"/>
<path d="M44.6481 24.2487H44.6139C44.4681 24.3298 44.3094 24.389 44.1438 24.424H44.1139C43.0849 23.4166 41.925 22.533 40.6611 21.7937C35.5331 18.8924 31.3367 20.3471 31.3153 26.5203C31.3728 28.6018 31.8422 30.6555 32.6999 32.578C32.4592 32.5477 32.231 32.4599 32.0375 32.3229C31.266 30.521 30.8505 28.6037 30.8111 26.6638C30.717 24.3284 31.2384 21.5586 33.6144 20.3152C35.3237 19.4304 37.6398 19.5739 40.2081 20.9568L40.8064 21.2796C42.2406 22.0824 43.5359 23.0835 44.6481 24.2487Z" fill="#F07846"/>
<path d="M40.6099 31.9525C40.5677 31.9523 40.526 31.9437 40.4877 31.9272C40.4493 31.9107 40.4152 31.8867 40.3877 31.8569L37.5203 28.8161C37.4907 28.7835 37.4689 28.7455 37.4562 28.7045L34.6272 18.7412C34.6136 18.7054 34.6082 18.6673 34.6111 18.6293C34.6141 18.5914 34.6255 18.5545 34.6446 18.5209C34.6637 18.4873 34.69 18.4577 34.7219 18.4341C34.7539 18.4104 34.7907 18.3932 34.8302 18.3836C34.8696 18.3739 34.9108 18.3719 34.951 18.3779C34.9913 18.3838 35.0299 18.3974 35.0642 18.4179C35.0985 18.4384 35.1279 18.4653 35.1506 18.497C35.1732 18.5286 35.1885 18.5643 35.1956 18.6017L38.0032 28.4933L40.8278 31.4902C40.8564 31.5169 40.8786 31.5489 40.8929 31.5842C40.9073 31.6195 40.9134 31.6572 40.911 31.6949C40.9086 31.7325 40.8976 31.7692 40.8789 31.8027C40.8601 31.8361 40.834 31.8654 40.8022 31.8887C40.7489 31.9316 40.6803 31.9544 40.6099 31.9525Z" fill="#F07846"/>
<path opacity="0.3" d="M40.6099 31.9525C40.5677 31.9523 40.526 31.9437 40.4877 31.9272C40.4493 31.9107 40.4152 31.8867 40.3877 31.8569L37.5203 28.8161C37.4907 28.7835 37.4689 28.7455 37.4562 28.7045L34.6272 18.7412C34.6136 18.7054 34.6082 18.6673 34.6111 18.6293C34.6141 18.5914 34.6255 18.5545 34.6446 18.5209C34.6637 18.4873 34.69 18.4577 34.7219 18.4341C34.7539 18.4104 34.7907 18.3932 34.8302 18.3836C34.8696 18.3739 34.9108 18.3719 34.951 18.3779C34.9913 18.3838 35.0299 18.3974 35.0642 18.4179C35.0985 18.4384 35.1279 18.4653 35.1506 18.497C35.1732 18.5286 35.1885 18.5643 35.1956 18.6017L38.0032 28.4933L40.8278 31.4902C40.8564 31.5169 40.8786 31.5489 40.8929 31.5842C40.9073 31.6195 40.9134 31.6572 40.911 31.6949C40.9086 31.7325 40.8976 31.7692 40.8789 31.8027C40.8601 31.8361 40.834 31.8654 40.8022 31.8887C40.7489 31.9316 40.6803 31.9544 40.6099 31.9525Z" fill="black"/>
<path d="M35.2211 18.2013L34.0801 7.963C34.0801 7.75975 34.8407 7.70794 34.8578 7.90721L36.0074 18.1494C36.0159 18.3487 35.2339 18.3806 35.2211 18.2013Z" fill="#F07846"/>
<path opacity="0.3" d="M35.2211 18.2013L34.0801 7.963C34.0801 7.75975 34.8407 7.70794 34.8578 7.90721L36.0074 18.1494C36.0159 18.3487 35.2339 18.3806 35.2211 18.2013Z" fill="black"/>
<path d="M34.9989 16.2312C35.0546 16.6077 35.086 16.987 35.093 17.367C35.093 17.6938 34.4007 18.188 34.6186 18.8336C34.8366 19.4793 35.1186 20.4756 35.1186 20.4756C35.2214 20.513 35.3357 20.512 35.4377 20.4726C35.5396 20.4332 35.6213 20.3586 35.6656 20.2644L35.3835 19.272C35.3402 19.1273 35.3447 18.9738 35.3966 18.8316C35.4484 18.6893 35.5452 18.565 35.6741 18.475L35.7938 18.3952C35.8485 18.3615 35.9109 18.3401 35.976 18.3324C36.041 18.3248 36.1071 18.3313 36.1691 18.3513C36.2311 18.3714 36.2873 18.4044 36.3334 18.448C36.3794 18.4916 36.4141 18.5444 36.4348 18.6025L36.6314 19.2561C36.8242 19.234 37.0182 19.222 37.2125 19.2202C37.2125 19.2202 36.8792 17.9529 36.7083 17.4308C36.5715 17.0323 35.875 17.2276 35.8536 16.6895L35.7767 15.9961C35.7895 16.2791 35.157 16.4624 34.9989 16.2312Z" fill="#37474F"/>
<path opacity="0.15" d="M34.8493 7.90721C34.8493 7.70794 34.0545 7.75975 34.0716 7.963L34.3621 10.5455C34.606 10.7008 34.8856 10.8004 35.1784 10.8364L34.8493 7.90721Z" fill="black"/>
<path d="M42.8274 3.78794L42.1992 2.78364L44.8316 1.36886C44.8811 1.34645 44.9362 1.33685 44.9911 1.34105C45.0459 1.34526 45.0986 1.36312 45.1436 1.39277C45.269 1.4719 45.3729 1.57722 45.4471 1.70036C45.5213 1.8235 45.5637 1.96107 45.5709 2.10215C45.5764 2.15225 45.5679 2.20282 45.5462 2.24893C45.5244 2.29504 45.4903 2.33509 45.447 2.36518L42.8274 3.78794Z" fill="#455A64"/>
<path d="M42.9562 3.51744C42.9562 3.78047 42.7597 3.88408 42.5289 3.75655C42.4034 3.67742 42.2995 3.5721 42.2253 3.44896C42.1512 3.32582 42.1088 3.18825 42.1016 3.04717C42.1016 2.78414 42.2981 2.68051 42.5289 2.80804C42.6543 2.88718 42.7583 2.9925 42.8325 3.11564C42.9066 3.23878 42.949 3.37635 42.9562 3.51744Z" fill="#37474F"/>
<path d="M42.7041 3.38156C42.706 3.41876 42.6939 3.45543 42.6699 3.48518L42.6058 3.52105L39.1872 5.37023C38.9893 5.47488 38.8248 5.62675 38.7107 5.81024C38.5966 5.99373 38.5368 6.20224 38.5376 6.41438C38.5376 6.72215 38.4507 7.0245 38.2857 7.29103C38.1206 7.55756 37.8833 7.77889 37.5975 7.93278L35.2001 9.21207L34.9053 8.73781L37.2898 7.45454C37.4834 7.34938 37.644 7.19874 37.7558 7.01764C37.8675 6.83653 37.9264 6.63129 37.9265 6.42235C37.9283 6.1149 38.0159 5.81317 38.1807 5.54692C38.3456 5.28066 38.582 5.05906 38.8667 4.90395L42.3195 3.04679H42.3537C42.3961 3.03063 42.4437 3.03063 42.4862 3.04679C42.5478 3.08302 42.5996 3.13212 42.6375 3.19022C42.6753 3.24832 42.6981 3.31382 42.7041 3.38156Z" fill="#E0E0E0"/>
<path d="M36.9558 8.55174C36.9406 8.45325 36.8989 8.35995 36.8347 8.28051C36.7704 8.20108 36.6857 8.13809 36.5883 8.09742L35.0542 7.27246L33.4688 8.12532V8.98216L35.0072 9.80712C35.2585 9.93122 35.5376 9.99842 35.8219 10.0033C36.1062 10.0081 36.3878 9.95047 36.6438 9.83501C36.7338 9.79881 36.8109 9.7395 36.8661 9.664C36.9214 9.58851 36.9525 9.49993 36.9558 9.40859C36.9558 9.40859 36.9601 8.71115 36.9558 8.55174Z" fill="#37474F"/>
<path d="M35.0542 7.27246L36.5883 8.09742C37.0541 8.34849 37.0797 8.74304 36.6396 8.98216C36.3835 9.09762 36.102 9.15525 35.8176 9.15041C35.5333 9.14556 35.2542 9.07837 35.0029 8.95426L33.4688 8.12532L35.0542 7.27246Z" fill="#455A64"/>
<path d="M34.8323 9.32883C34.8332 9.34852 34.8299 9.36819 34.8226 9.38667C34.8152 9.40515 34.804 9.42208 34.7895 9.43644L34.7468 9.46035L32.8238 10.4925C32.7039 10.58 32.5594 10.6332 32.4078 10.646C32.2562 10.6587 32.1039 10.6303 31.9691 10.5643C31.7896 10.4686 31.576 10.2375 31.576 9.69947C31.576 9.4205 31.5033 9.32087 31.4734 9.30094C31.4435 9.28101 31.358 9.30094 31.2213 9.37267L25.666 12.3617L25.3711 11.8914L30.9264 8.89843C31.0475 8.81298 31.192 8.76127 31.3433 8.74927C31.4945 8.73728 31.6463 8.7655 31.7811 8.83067C31.9606 8.92632 32.1742 9.15349 32.1742 9.69549C32.1742 9.97446 32.2469 10.0701 32.2725 10.094C32.2982 10.1179 32.3879 10.094 32.5289 10.0263L34.4605 8.9861H34.4904C34.5126 8.97924 34.5362 8.97748 34.5592 8.98095C34.5823 8.98442 34.6041 8.99302 34.6229 9.00602C34.682 9.04125 34.7316 9.08868 34.7679 9.14466C34.8042 9.20064 34.8262 9.26365 34.8323 9.32883Z" fill="#E0E0E0"/>
<path d="M25.1489 13.0146L24.5293 12.0023L27.1574 10.5875C27.2075 10.5644 27.2634 10.5543 27.3191 10.5586C27.3748 10.5628 27.4282 10.5811 27.4736 10.6115C27.5991 10.6906 27.703 10.7959 27.7772 10.919C27.8514 11.0422 27.8938 11.1798 27.901 11.3208C27.9061 11.3709 27.8974 11.4213 27.8757 11.4674C27.854 11.5134 27.82 11.5535 27.777 11.5839L25.1489 13.0146Z" fill="#455A64"/>
<path d="M25.2765 12.7519C25.2765 13.015 25.08 13.1186 24.8492 12.9871C24.7233 12.9084 24.619 12.8032 24.5447 12.6799C24.4705 12.5567 24.4284 12.4189 24.4219 12.2777C24.4219 12.0186 24.6184 11.911 24.8492 12.0426C24.9747 12.1217 25.0786 12.227 25.1528 12.3501C25.227 12.4733 25.2693 12.6109 25.2765 12.7519Z" fill="#263238"/>
<path d="M37.8115 10.155C37.491 9.99556 35.8543 9.8481 35.0338 10.2984C34.2133 10.7488 35.6065 12.2393 36.2603 12.59L37.8115 10.155Z" fill="#F07846"/>
<path opacity="0.5" d="M37.8115 10.155C37.491 9.99556 35.8543 9.8481 35.0338 10.2984C34.2133 10.7488 35.6065 12.2393 36.2603 12.59L37.8115 10.155Z" fill="white"/>
<path d="M37.072 10.223C37.666 9.90419 38.1446 10.1632 38.1446 10.8049C38.1249 11.1522 38.0174 11.4903 37.831 11.7915C37.6446 12.0928 37.3846 12.3487 37.072 12.5385C36.478 12.8613 35.9951 12.6022 35.9951 11.9606C36.0163 11.6126 36.1248 11.2741 36.3119 10.9723C36.4989 10.6705 36.7592 10.4139 37.072 10.223Z" fill="#F07846"/>
<path opacity="0.8" d="M37.072 10.223C37.666 9.90419 38.1446 10.1632 38.1446 10.8049C38.1249 11.1522 38.0174 11.4903 37.831 11.7915C37.6446 12.0928 37.3846 12.3487 37.072 12.5385C36.478 12.8613 35.9951 12.6022 35.9951 11.9606C36.0163 11.6126 36.1248 11.2741 36.3119 10.9723C36.4989 10.6705 36.7592 10.4139 37.072 10.223Z" fill="white"/>
<path d="M37.0718 10.8675C37.3367 10.724 37.5504 10.8396 37.5504 11.1266C37.5415 11.282 37.4936 11.4334 37.4105 11.5684C37.3273 11.7034 37.2113 11.8183 37.0718 11.9037C36.8068 12.0472 36.5889 11.9316 36.5889 11.6446C36.5985 11.4889 36.6472 11.3374 36.7311 11.2025C36.815 11.0675 36.9316 10.9527 37.0718 10.8675Z" fill="#F07846"/>
</svg>
