<svg width="182" height="22" viewBox="0 0 182 22" fill="none" xmlns="http://www.w3.org/2000/svg">
<path d="M0 11.4652H8.58778V20.053C3.84488 20.053 0 16.2081 0 11.4652Z" fill="#FDBA2D"/>
<path d="M0 1.4924H8.58778V10.0802H0V1.4924Z" fill="#F07846"/>
<path d="M9.41602 11.4652H18.0037C18.0037 16.2081 14.1589 20.053 9.41602 20.053V11.4652Z" fill="#AF70EE"/>
<path d="M13.7099 10.0803C16.0813 10.0803 18.0038 8.15786 18.0038 5.78641C18.0038 3.41496 16.0813 1.49252 13.7099 1.49252C11.3385 1.49252 9.41602 3.41496 9.41602 5.78641C9.41602 8.15786 11.3385 10.0803 13.7099 10.0803Z" fill="#09C2B2"/>
<path d="M26.5879 19.726V1.06409H32.9781C35.2967 1.06409 37.0781 1.65784 38.3222 2.84546C39.5852 4.03302 40.2167 5.75784 40.2167 8.01987C40.2167 10.2819 39.5946 12.0067 38.3505 13.1943C37.1252 14.363 35.3344 14.9474 32.9781 14.9474H29.0196V19.726H26.5879ZM32.9781 12.4874C34.6558 12.4874 35.8717 12.1292 36.6257 11.4129C37.3797 10.6966 37.7567 9.56562 37.7567 8.01987C37.7567 6.43642 37.3797 5.29598 36.6257 4.59855C35.8905 3.88222 34.6747 3.52403 32.9781 3.52403H29.0196V12.4874H32.9781ZM44.9252 19.726H42.4653V1.06409H44.9252V19.726Z" fill="#F07846"/>
<mask id="mask0_2080_40258" style="mask-type:luminance" maskUnits="userSpaceOnUse" x="26" y="0" width="20" height="21">
<path d="M45.7299 0H26.0039V20.8219H45.7299V0Z" fill="white"/>
<path d="M26.5869 19.726V1.06418H32.9772C35.2957 1.06418 37.0771 1.65793 38.3213 2.84555C39.5842 4.03311 40.2157 5.75793 40.2157 8.01996C40.2157 10.282 39.5937 12.0068 38.3495 13.1944C37.1242 14.3631 35.3334 14.9475 32.9772 14.9475H29.0186V19.726H26.5869ZM32.9772 12.4875C34.6549 12.4875 35.8707 12.1293 36.6247 11.413C37.3787 10.6967 37.7557 9.56571 37.7557 8.01996C37.7557 6.43651 37.3787 5.29607 36.6247 4.59864C35.8895 3.88232 34.6737 3.52412 32.9772 3.52412H29.0186V12.4875H32.9772ZM44.9242 19.726H42.4643V1.06418H44.9242V19.726Z" fill="black"/>
</mask>
<g mask="url(#mask0_2080_40258)">
<path d="M26.587 19.726H26.0215V20.2916H26.587V19.726ZM26.587 1.06416V0.498627H26.0215V1.06416H26.587ZM38.3214 2.84553L37.9309 3.25457L37.934 3.25748L38.3214 2.84553ZM29.0187 14.9474V14.382H28.4532V14.9474H29.0187ZM29.0187 19.726V20.2916H29.5842V19.726H29.0187ZM36.6248 4.59863L36.2301 5.00361L36.2354 5.00876L36.2408 5.01375L36.6248 4.59863ZM29.0187 3.52411V2.95863H28.4532V3.52411H29.0187ZM29.0187 12.4875H28.4532V13.053H29.0187V12.4875ZM27.1525 19.726V1.06416H26.0215V19.726H27.1525ZM26.587 1.62964H32.9773V0.498627H26.587V1.62964ZM32.9773 1.62964C35.2021 1.62964 36.8242 2.19819 37.9309 3.25457L38.7118 2.43644C37.3303 1.1177 35.3896 0.498627 32.9773 0.498627V1.62964ZM37.934 3.25748C39.0513 4.30822 39.6503 5.86394 39.6503 8.01994H40.7813C40.7813 5.65189 40.1173 3.75797 38.7087 2.43353L37.934 3.25748ZM39.6503 8.01994C39.6503 10.1784 39.0593 11.7351 37.9591 12.7853L38.74 13.6036C40.128 12.2786 40.7813 10.3856 40.7813 8.01994H39.6503ZM37.9591 12.7853C36.8744 13.8201 35.2457 14.382 32.9773 14.382V15.513C35.4214 15.513 37.3742 14.9063 38.74 13.6036L37.9591 12.7853ZM32.9773 14.382H29.0187V15.513H32.9773V14.382ZM28.4532 14.9474V19.726H29.5842V14.9474H28.4532ZM29.0187 19.1605H26.587V20.2916H29.0187V19.1605ZM32.9773 13.053C34.7153 13.053 36.1067 12.6852 37.0143 11.823L36.2353 11.003C35.6349 11.5734 34.5946 11.922 32.9773 11.922V13.053ZM37.0143 11.823C37.9256 10.9573 38.3214 9.64531 38.3214 8.01994H37.1903C37.1903 9.48602 36.8321 10.4362 36.2353 11.003L37.0143 11.823ZM38.3214 8.01994C38.3214 6.36334 37.9287 5.0343 37.0088 4.18345L36.2408 5.01375C36.829 5.55786 37.1903 6.5097 37.1903 8.01994H38.3214ZM37.0195 4.19359C36.1278 3.32476 34.7303 2.95863 32.9773 2.95863V4.08964C34.6174 4.08964 35.6515 4.43983 36.2301 5.00361L37.0195 4.19359ZM32.9773 2.95863H29.0187V4.08964H32.9773V2.95863ZM28.4532 3.52411V12.4875H29.5842V3.52411H28.4532ZM29.0187 13.053H32.9773V11.922H29.0187V13.053ZM44.9243 19.726V20.2916H45.4899V19.726H44.9243ZM42.4644 19.726H41.8989V20.2916H42.4644V19.726ZM42.4644 1.06416V0.498627H41.8989V1.06416H42.4644ZM44.9243 1.06416H45.4899V0.498627H44.9243V1.06416ZM44.9243 19.1605H42.4644V20.2916H44.9243V19.1605ZM43.0299 19.726V1.06416H41.8989V19.726H43.0299ZM42.4644 1.62964H44.9243V0.498627H42.4644V1.62964ZM44.3589 1.06416V19.726H45.4899V1.06416H44.3589Z" fill="#F07846"/>
</g>
<path d="M97.0587 11.4696C97.0587 12.9964 96.6253 14.4196 95.7579 15.7392C94.9096 17.0398 93.76 18.0766 92.3085 18.8495C90.857 19.6223 89.2921 20.0087 87.6148 20.0087C85.8614 20.0087 84.2406 19.5752 82.7513 18.7081C81.2812 17.841 80.1124 16.6722 79.245 15.2019C78.3968 13.7127 77.9727 12.0822 77.9727 10.3102C77.9727 8.50063 78.3968 6.87006 79.245 5.41855C80.0932 3.94825 81.2527 2.79839 82.7228 1.96896C84.1935 1.13954 85.8236 0.724854 87.6148 0.724854C89.1606 0.724854 90.5836 1.05472 91.8844 1.7145C93.1847 2.37422 94.2406 3.31674 95.051 4.542L93.2417 6.01236C91.7902 4.12732 89.9518 3.1848 87.7277 3.1848C86.3518 3.1848 85.1074 3.49581 83.9951 4.11789C82.8833 4.73998 82.0066 5.59767 81.3655 6.69099C80.7436 7.76546 80.4329 8.97187 80.4329 10.3102C80.4329 11.6863 80.7529 12.9304 81.394 14.0426C82.0351 15.1359 82.902 15.9936 83.9951 16.6157C85.1074 17.2377 86.314 17.5488 87.6148 17.5488C88.7836 17.5488 89.8954 17.2943 90.9513 16.7853C92.0258 16.2575 92.8927 15.5318 93.5524 14.6081C94.2121 13.6656 94.542 12.6194 94.542 11.4696H86.8795V9.00957H97.0587V11.4696Z" fill="#F07846"/>
<mask id="mask1_2080_40258" style="mask-type:luminance" maskUnits="userSpaceOnUse" x="77" y="0" width="21" height="21">
<path d="M97.6636 0H77.3896V20.8219H97.6636V0Z" fill="white"/>
<path d="M97.0587 11.4696C97.0587 12.9964 96.6253 14.4197 95.7579 15.7392C94.9096 17.0398 93.76 18.0766 92.3085 18.8495C90.857 19.6224 89.2921 20.0088 87.6148 20.0088C85.8614 20.0088 84.2406 19.5752 82.7513 18.7081C81.2812 17.841 80.1124 16.6723 79.245 15.2019C78.3968 13.7128 77.9727 12.0822 77.9727 10.3103C77.9727 8.50066 78.3968 6.87009 79.245 5.41858C80.0932 3.94828 81.2527 2.79842 82.7228 1.96899C84.1935 1.13957 85.8236 0.724884 87.6148 0.724884C89.1606 0.724884 90.5836 1.05475 91.8844 1.71453C93.1847 2.37425 94.2406 3.31677 95.051 4.54203L93.2417 6.01239C91.7902 4.12735 89.9518 3.18483 87.7277 3.18483C86.3518 3.18483 85.1074 3.49584 83.9951 4.11792C82.8833 4.74001 82.0066 5.59771 81.3655 6.69102C80.7436 7.76549 80.4329 8.9719 80.4329 10.3103C80.4329 11.6864 80.7529 12.9305 81.394 14.0426C82.0351 15.136 82.902 15.9937 83.9951 16.6157C85.1074 17.2378 86.314 17.5488 87.6148 17.5488C88.7836 17.5488 89.8954 17.2944 90.9513 16.7854C92.0258 16.2575 92.8927 15.5318 93.5524 14.6082C94.2121 13.6657 94.542 12.6195 94.542 11.4696H86.8795V9.0096H97.0587V11.4696Z" fill="black"/>
</mask>
<g mask="url(#mask1_2080_40258)">
<path d="M95.7579 15.7392L95.2856 15.4286L95.2845 15.4302L95.7579 15.7392ZM82.7513 18.7081L82.4642 19.1952L82.4669 19.1968L82.7513 18.7081ZM79.245 15.2019L78.7535 15.4819L78.7557 15.4855L78.7579 15.4892L79.245 15.2019ZM79.245 5.41857L79.7333 5.70394L79.7349 5.70119L79.245 5.41857ZM95.0511 4.54202L95.4078 4.98092L95.8056 4.65763L95.5228 4.23002L95.0511 4.54202ZM93.2417 6.01237L92.7935 6.35736L93.1475 6.81731L93.5979 6.45128L93.2417 6.01237ZM81.3656 6.691L80.8779 6.40498L80.8763 6.40766L81.3656 6.691ZM81.3941 14.0426L80.9042 14.325L80.9064 14.3286L81.3941 14.0426ZM83.9952 16.6157L83.7157 17.1072L83.7196 17.1092L83.9952 16.6157ZM90.9513 16.7854L91.1968 17.2948L91.2007 17.2929L90.9513 16.7854ZM93.5524 14.6082L94.0127 14.9369L94.016 14.9324L93.5524 14.6082ZM94.542 11.4696H95.1075V10.904H94.542V11.4696ZM86.8796 11.4696H86.3141V12.0351H86.8796V11.4696ZM86.8796 9.00958V8.44405H86.3141V9.00958H86.8796ZM97.0587 9.00958H97.6242V8.44405H97.0587V9.00958ZM96.4933 11.4696C96.4933 12.8821 96.0944 14.198 95.2856 15.4286L96.2308 16.0497C97.1563 14.6413 97.6242 13.1107 97.6242 11.4696H96.4933ZM95.2845 15.4302C94.4916 16.6462 93.4149 17.6196 92.0428 18.3503L92.5743 19.3486C94.1048 18.5336 95.3283 17.4334 96.2319 16.0481L95.2845 15.4302ZM92.0428 18.3503C90.6746 19.0787 89.2017 19.4433 87.6149 19.4433V20.5743C89.3831 20.5743 91.039 20.166 92.5743 19.3486L92.0428 18.3503ZM87.6149 19.4433C85.9596 19.4433 84.4374 19.0353 83.0357 18.2194L82.4669 19.1968C84.0439 20.1151 85.7634 20.5743 87.6149 20.5743V19.4433ZM83.0385 18.221C81.6505 17.4025 80.5508 16.3025 79.7322 14.9147L78.7579 15.4892C79.6735 17.042 80.9113 18.2794 82.4642 19.1952L83.0385 18.221ZM79.7365 14.922C78.9387 13.5211 78.5382 11.9875 78.5382 10.3102H77.4072C77.4072 12.1769 77.8554 13.9044 78.7535 15.4819L79.7365 14.922ZM78.5382 10.3102C78.5382 8.59298 78.9398 7.06224 79.7333 5.70394L78.7568 5.13325C77.8543 6.67791 77.4072 8.40826 77.4072 10.3102H78.5382ZM79.7349 5.70119C80.5327 4.31802 81.6193 3.24092 83.0006 2.46152L82.445 1.47643C80.8861 2.35588 79.6538 3.57846 78.7552 5.13599L79.7349 5.70119ZM83.0006 2.46152C84.3815 1.68284 85.9152 1.29035 87.6149 1.29035V0.159332C85.7327 0.159332 84.0056 0.596264 82.445 1.47643L83.0006 2.46152ZM87.6149 1.29035C89.0768 1.29035 90.4116 1.60169 91.6286 2.21884L92.1404 1.21013C90.7557 0.507771 89.2439 0.159332 87.6149 0.159332V1.29035ZM91.6286 2.21884C92.8412 2.83391 93.8226 3.70985 94.5793 4.85407L95.5228 4.23002C94.6587 2.92366 93.5289 1.91456 92.1404 1.21013L91.6286 2.21884ZM94.6943 4.10317L92.885 5.57347L93.5979 6.45128L95.4078 4.98092L94.6943 4.10317ZM93.6894 5.66733C92.1398 3.65446 90.1415 2.61928 87.7278 2.61928V3.75035C89.7628 3.75035 91.4407 4.60021 92.7935 6.35736L93.6894 5.66733ZM87.7278 2.61928C86.2631 2.61928 84.9228 2.95139 83.7196 3.62437L84.2713 4.61144C85.2927 4.04032 86.4407 3.75035 87.7278 3.75035V2.61928ZM83.7196 3.62437C82.5201 4.29522 81.57 5.22437 80.8779 6.40498L81.8538 6.97698C82.4434 5.97095 83.2467 5.1847 84.2713 4.61144L83.7196 3.62437ZM80.8763 6.40766C80.2006 7.57489 79.867 8.88037 79.867 10.3102H80.9985C80.9985 9.06339 81.2867 7.95599 81.8554 6.97435L80.8763 6.40766ZM79.867 10.3102C79.867 11.7781 80.21 13.1208 80.9042 14.325L81.8839 13.7603C81.296 12.7402 80.9985 11.5946 80.9985 10.3102H79.867ZM80.9064 14.3286C81.5968 15.5068 82.5354 16.4357 83.7157 17.1072L84.2752 16.1242C83.2686 15.5516 82.473 14.765 81.8817 13.7566L80.9064 14.3286ZM83.7196 17.1092C84.9179 17.7795 86.2193 18.1143 87.6149 18.1143V16.9833C86.4089 16.9833 85.2976 16.696 84.2713 16.1221L83.7196 17.1092ZM87.6149 18.1143C88.8686 18.1143 90.0648 17.8406 91.1968 17.2948L90.7059 16.276C89.7261 16.7481 88.6982 16.9833 87.6149 16.9833V18.1143ZM91.2007 17.2929C92.3541 16.7262 93.2954 15.9409 94.0127 14.9369L93.0922 14.2794C92.49 15.1228 91.6971 15.7889 90.702 16.2778L91.2007 17.2929ZM94.016 14.9324C94.742 13.8949 95.1075 12.7355 95.1075 11.4696H93.9765C93.9765 12.5033 93.6823 13.4363 93.0894 14.2838L94.016 14.9324ZM94.542 10.904H86.8796V12.0351H94.542V10.904ZM87.445 11.4696V9.00958H86.3141V11.4696H87.445ZM86.8796 9.57511H97.0587V8.44405H86.8796V9.57511ZM96.4933 9.00958V11.4696H97.6242V9.00958H96.4933Z" fill="#F07846"/>
</g>
<path d="M163.044 19.726L163.072 1.06409H170.594C173.968 1.06409 176.503 1.85581 178.2 3.43921C179.896 5.00381 180.744 7.32239 180.744 10.395C180.744 13.4676 179.868 15.7956 178.115 17.3791C176.38 18.9436 173.874 19.726 170.594 19.726H163.044ZM170.65 17.266C173.27 17.266 175.193 16.7099 176.418 15.5977C177.663 14.4856 178.284 12.7513 178.284 10.395C178.284 7.98217 177.681 6.2385 176.475 5.16403C175.269 4.07072 173.327 3.52403 170.65 3.52403H165.504V17.266H170.65Z" fill="#F07846"/>
<mask id="mask2_2080_40258" style="mask-type:luminance" maskUnits="userSpaceOnUse" x="162" y="0" width="20" height="21">
<path d="M181.639 0H162.461V20.8219H181.639V0Z" fill="white"/>
<path d="M163.044 19.726L163.072 1.06418H170.594C173.968 1.06418 176.503 1.8559 178.2 3.4393C179.896 5.0039 180.744 7.32248 180.744 10.3951C180.744 13.4677 179.868 15.7957 178.115 17.3792C176.38 18.9437 173.874 19.726 170.594 19.726H163.044ZM170.65 17.266C173.27 17.266 175.193 16.71 176.418 15.5978C177.663 14.4857 178.284 12.7514 178.284 10.3951C178.284 7.98226 177.681 6.23859 176.475 5.16412C175.269 4.07081 173.327 3.52412 170.65 3.52412H165.504V17.266H170.65Z" fill="black"/>
</mask>
<g mask="url(#mask2_2080_40258)">
<path d="M163.044 19.726L162.479 19.7251L162.478 20.2916H163.044V19.726ZM163.073 1.06416V0.498627H162.508L162.507 1.06328L163.073 1.06416ZM178.2 3.43928L177.814 3.85271L177.816 3.85501L178.2 3.43928ZM176.418 15.5978L176.041 15.1762L176.038 15.1791L176.418 15.5978ZM176.475 5.16411L176.095 5.58318L176.099 5.58641L176.475 5.16411ZM165.504 3.52411V2.95863H164.938V3.52411H165.504ZM165.504 17.266H164.938V17.8316H165.504V17.266ZM163.61 19.7269L163.638 1.06504L162.507 1.06328L162.479 19.7251L163.61 19.7269ZM163.073 1.62964H170.594V0.498627H163.073V1.62964ZM170.594 1.62964C173.889 1.62964 176.261 2.4035 177.814 3.85271L178.585 3.02586C176.745 1.30822 174.047 0.498627 170.594 0.498627V1.62964ZM177.816 3.85501C179.362 5.28033 180.179 7.42559 180.179 10.3951H181.31C181.31 7.21934 180.431 4.72745 178.583 3.02356L177.816 3.85501ZM180.179 10.3951C180.179 13.3587 179.337 15.5133 177.736 16.9595L178.494 17.7991C180.399 16.0784 181.31 13.5767 181.31 10.3951H180.179ZM177.736 16.9595C176.141 18.3984 173.79 19.1605 170.594 19.1605V20.2916C173.957 20.2916 176.62 19.4893 178.494 17.7991L177.736 16.9595ZM170.594 19.1605H163.044V20.2916H170.594V19.1605ZM170.65 17.8316C173.333 17.8316 175.423 17.265 176.799 16.0165L176.038 15.1791C174.963 16.1549 173.208 16.7005 170.65 16.7005V17.8316ZM176.795 16.0194C178.202 14.7616 178.85 12.8441 178.85 10.3951H177.719C177.719 12.6587 177.122 14.2096 176.041 15.1762L176.795 16.0194ZM178.85 10.3951C178.85 7.9012 178.227 5.96739 176.851 4.7418L176.099 5.58641C177.136 6.5098 177.719 8.06328 177.719 10.3951H178.85ZM176.855 4.74509C175.495 3.51287 173.383 2.95863 170.65 2.95863V4.08964C173.271 4.08964 175.042 4.62876 176.095 5.58318L176.855 4.74509ZM170.65 2.95863H165.504V4.08964H170.65V2.95863ZM164.938 3.52411V17.266H166.069V3.52411H164.938ZM165.504 17.8316H170.65V16.7005H165.504V17.8316Z" fill="#F07846"/>
</g>
<path d="M57.0701 2.22241C59.6998 2.22241 61.8203 4.34307 61.8203 6.97271V20.7429H59.8411V7.17063C59.8411 5.53063 58.5122 4.2017 56.8722 4.2017H49.0682V2.22241H57.0701ZM53.4791 7.96236C56.9853 7.96236 59.8411 10.8465 59.8411 14.3526C59.8411 17.8305 56.9853 20.7429 53.4791 20.7429C49.9447 20.7429 47.0889 17.8871 47.0889 14.3526C47.0889 10.8182 49.9447 7.96236 53.4791 7.96236ZM53.4791 18.7636C55.9108 18.7636 57.8901 16.7843 57.8901 14.3526C57.8901 11.9209 55.9108 9.94165 53.4791 9.94165C51.0474 9.94165 49.0399 11.9209 49.0399 14.3526C49.0399 16.7843 51.0192 18.7636 53.4791 18.7636ZM74.0438 2.22241H75.9945V15.9926C75.9945 18.6222 73.874 20.7429 71.2729 20.7429H63.2422V18.7636H71.0466C72.7145 18.7636 74.0438 17.4346 74.0438 15.7947V9.71545C72.8844 10.7899 71.3293 11.4685 69.6329 11.4685C66.0981 11.4685 63.2422 8.64093 63.2422 5.10652V2.22241H65.1934V5.10652C65.1934 7.53819 67.2011 9.51748 69.6329 9.51748C72.0641 9.51748 74.0153 7.53819 74.0438 5.1348V2.22241Z" fill="#F07846"/>
<mask id="mask3_2080_40258" style="mask-type:luminance" maskUnits="userSpaceOnUse" x="46" y="1" width="32" height="21">
<path d="M77.0668 1.27136H46.3818V21.5453H77.0668V1.27136Z" fill="white"/>
<path d="M57.0701 2.22244C59.6998 2.22244 61.8203 4.3431 61.8203 6.97274V20.7429H59.8411V7.17066C59.8411 5.53066 58.5122 4.20173 56.8722 4.20173H49.0682V2.22244H57.0701ZM53.4791 7.96239C56.9853 7.96239 59.8411 10.8465 59.8411 14.3526C59.8411 17.8306 56.9853 20.7429 53.4791 20.7429C49.9447 20.7429 47.0889 17.8871 47.0889 14.3526C47.0889 10.8182 49.9447 7.96239 53.4791 7.96239ZM53.4791 18.7636C55.9108 18.7636 57.8901 16.7844 57.8901 14.3526C57.8901 11.921 55.9108 9.94168 53.4791 9.94168C51.0474 9.94168 49.0399 11.921 49.0399 14.3526C49.0399 16.7844 51.0192 18.7636 53.4791 18.7636ZM74.0438 2.22244H75.9945V15.9926C75.9945 18.6223 73.874 20.7429 71.2729 20.7429H63.2422V18.7636H71.0466C72.7145 18.7636 74.0438 17.4347 74.0438 15.7947V9.71548C72.8844 10.7899 71.3293 11.4685 69.6329 11.4685C66.0981 11.4685 63.2422 8.64096 63.2422 5.10655V2.22244H65.1934V5.10655C65.1934 7.53822 67.2011 9.51751 69.6329 9.51751C72.0641 9.51751 74.0153 7.53822 74.0438 5.13483V2.22244Z" fill="black"/>
</mask>
<g mask="url(#mask3_2080_40258)">
<path d="M61.8204 20.7429V21.3084H62.3858V20.7429H61.8204ZM59.8412 20.7429H59.2757V21.3084H59.8412V20.7429ZM49.0683 4.20171H48.5027V4.76719H49.0683V4.20171ZM49.0683 2.22243V1.65689H48.5027V2.22243H49.0683ZM57.0702 2.7879C59.3875 2.7879 61.2549 4.65541 61.2549 6.97273H62.3858C62.3858 4.03075 60.0122 1.65689 57.0702 1.65689V2.7879ZM61.2549 6.97273V20.7429H62.3858V6.97273H61.2549ZM61.8204 20.1774H59.8412V21.3084H61.8204V20.1774ZM60.4067 20.7429V7.17064H59.2757V20.7429H60.4067ZM60.4067 7.17064C60.4067 5.21832 58.8246 3.63618 56.8723 3.63618V4.76719C58.2 4.76719 59.2757 5.84297 59.2757 7.17064H60.4067ZM56.8723 3.63618H49.0683V4.76719H56.8723V3.63618ZM49.6337 4.20171V2.22243H48.5027V4.20171H49.6337ZM49.0683 2.7879H57.0702V1.65689H49.0683V2.7879ZM53.4792 8.52785C56.6698 8.52785 59.2757 11.1555 59.2757 14.3526H60.4067C60.4067 10.5374 57.301 7.39684 53.4792 7.39684V8.52785ZM59.2757 14.3526C59.2757 17.5231 56.6682 20.1774 53.4792 20.1774V21.3084C57.3026 21.3084 60.4067 18.1379 60.4067 14.3526H59.2757ZM53.4792 20.1774C50.2571 20.1774 47.6545 17.5748 47.6545 14.3526H46.5234C46.5234 18.1994 49.6325 21.3084 53.4792 21.3084V20.1774ZM47.6545 14.3526C47.6545 11.1305 50.2571 8.52785 53.4792 8.52785V7.39684C49.6325 7.39684 46.5234 10.5059 46.5234 14.3526H47.6545ZM53.4792 19.3291C56.2233 19.3291 58.4557 17.0967 58.4557 14.3526H57.3247C57.3247 16.472 55.5986 18.1981 53.4792 18.1981V19.3291ZM58.4557 14.3526C58.4557 11.6086 56.2233 9.37612 53.4792 9.37612V10.5071C55.5986 10.5071 57.3247 12.2333 57.3247 14.3526H58.4557ZM53.4792 9.37612C50.7399 9.37612 48.4745 11.6039 48.4745 14.3526H49.6055C49.6055 12.2379 51.3552 10.5071 53.4792 10.5071V9.37612ZM48.4745 14.3526C48.4745 17.099 50.7093 19.3291 53.4792 19.3291V18.1981C51.3292 18.1981 49.6055 16.4697 49.6055 14.3526H48.4745ZM74.0439 2.22243V1.65689H73.4785V2.22243H74.0439ZM75.9946 2.22243H76.5601V1.65689H75.9946V2.22243ZM63.2423 20.7429H62.6768V21.3084H63.2423V20.7429ZM63.2423 18.7636V18.1981H62.6768V18.7636H63.2423ZM74.0439 9.71547H74.6094V8.42023L73.6593 9.30067L74.0439 9.71547ZM63.2423 2.22243V1.65689H62.6768V2.22243H63.2423ZM65.1935 2.22243H65.759V1.65689H65.1935V2.22243ZM74.0439 5.13481L74.6094 5.14144V5.13481H74.0439ZM74.0439 2.7879H75.9946V1.65689H74.0439V2.7879ZM75.4291 2.22243V15.9926H76.5601V2.22243H75.4291ZM75.4291 15.9926C75.4291 18.3121 73.5595 20.1774 71.273 20.1774V21.3084C74.1886 21.3084 76.5601 18.9323 76.5601 15.9926H75.4291ZM71.273 20.1774H63.2423V21.3084H71.273V20.1774ZM63.8078 20.7429V18.7636H62.6768V20.7429H63.8078ZM63.2423 19.3291H71.0467V18.1981H63.2423V19.3291ZM71.0467 19.3291C73.0237 19.3291 74.6094 17.7505 74.6094 15.7947H73.4785C73.4785 17.1189 72.4061 18.1981 71.0467 18.1981V19.3291ZM74.6094 15.7947V9.71547H73.4785V15.7947H74.6094ZM73.6593 9.30067C72.5968 10.2857 71.176 10.903 69.633 10.903V12.034C71.4823 12.034 73.1721 11.2942 74.428 10.1302L73.6593 9.30067ZM69.633 10.903C66.4072 10.903 63.8078 8.32538 63.8078 5.10654H62.6768C62.6768 8.95656 65.7891 12.034 69.633 12.034V10.903ZM63.8078 5.10654V2.22243H62.6768V5.10654H63.8078ZM63.2423 2.7879H65.1935V1.65689H63.2423V2.7879ZM64.628 2.22243V5.10654H65.759V2.22243H64.628ZM64.628 5.10654C64.628 7.85525 66.8932 10.083 69.633 10.083V8.95201C67.5086 8.95201 65.759 7.22122 65.759 5.10654H64.628ZM69.633 10.083C72.3804 10.083 74.5776 7.84834 74.6094 5.14144L73.4785 5.12812C73.4538 7.22812 71.7486 8.95201 69.633 8.95201V10.083ZM74.6094 5.13481V2.22243H73.4785V5.13481H74.6094Z" fill="#F07846"/>
</g>
<path d="M111.806 8.09575C111.806 11.4888 109.148 14.2881 105.755 14.4577L111.806 20.2259H108.95L101.033 12.7047H101.004V20.2259H99.0537V8.09575C99.0537 4.56128 101.91 1.70544 105.444 1.70544C108.978 1.70544 111.806 4.56128 111.806 8.09575ZM102.418 11.3191C103.21 12.0543 104.284 12.5067 105.444 12.5067C107.847 12.5067 109.855 10.4991 109.855 8.09575C109.855 5.66402 107.876 3.68473 105.444 3.68473C103.012 3.68473 101.061 5.60747 101.004 8.0392V8.15229C101.033 9.33985 101.513 10.4143 102.305 11.206L102.418 11.3191ZM122.465 1.70544C127.583 1.70544 131.739 5.86199 131.739 10.9516C131.739 16.0694 127.583 20.2259 122.465 20.2259C117.375 20.2259 113.219 16.0694 113.219 10.9516C113.219 5.86199 117.375 1.70544 122.465 1.70544ZM129.76 10.9516C129.76 6.93646 126.509 3.68473 122.465 3.68473C118.45 3.68473 115.17 6.93646 115.17 10.9516C115.17 14.995 118.45 18.2467 122.465 18.2467C126.509 18.2467 129.76 14.995 129.76 10.9516ZM139.97 15.3343C136.209 15.3343 133.156 12.2805 133.156 8.51986V1.70544H135.106V8.51986C135.106 11.206 137.284 13.3833 139.97 13.3833C142.656 13.3833 144.833 11.206 144.833 8.51986V1.70544H146.784V8.51986C146.784 12.2805 143.73 15.3343 139.97 15.3343ZM133.156 18.2467H146.784V20.2259H133.156V18.2467ZM154.595 1.70544C158.129 1.70544 160.957 4.56128 160.957 8.09575V20.2259H159.005V8.09575C159.005 5.66402 157.026 3.68473 154.595 3.68473C152.135 3.68473 150.156 5.63575 150.156 8.09575V20.2259H148.204V8.09575C148.204 4.56128 151.06 1.70544 154.595 1.70544Z" fill="#F07846"/>
<mask id="mask4_2080_40258" style="mask-type:luminance" maskUnits="userSpaceOnUse" x="98" y="0" width="64" height="22">
<path d="M161.908 0.754517H98.3467V21.0285H161.908V0.754517Z" fill="white"/>
<path d="M111.806 8.09584C111.806 11.4889 109.148 14.2882 105.755 14.4578L111.806 20.226H108.95L101.033 12.7048H101.004V20.226H99.0537V8.09584C99.0537 4.56137 101.91 1.70554 105.444 1.70554C108.978 1.70554 111.806 4.56137 111.806 8.09584ZM102.418 11.3192C103.21 12.0544 104.284 12.5068 105.444 12.5068C107.847 12.5068 109.855 10.4992 109.855 8.09584C109.855 5.66411 107.876 3.68482 105.444 3.68482C103.012 3.68482 101.061 5.60756 101.004 8.03929V8.15238C101.033 9.33995 101.513 10.4144 102.305 11.2061L102.418 11.3192ZM122.465 1.70554C127.583 1.70554 131.739 5.86208 131.739 10.9517C131.739 16.0695 127.583 20.226 122.465 20.226C117.375 20.226 113.219 16.0695 113.219 10.9517C113.219 5.86208 117.375 1.70554 122.465 1.70554ZM129.76 10.9517C129.76 6.93655 126.509 3.68482 122.465 3.68482C118.45 3.68482 115.17 6.93655 115.17 10.9517C115.17 14.9951 118.45 18.2467 122.465 18.2467C126.509 18.2467 129.76 14.9951 129.76 10.9517ZM139.97 15.3344C136.209 15.3344 133.156 12.2806 133.156 8.51995V1.70554H135.106V8.51995C135.106 11.2061 137.284 13.3833 139.97 13.3833C142.656 13.3833 144.833 11.2061 144.833 8.51995V1.70554H146.784V8.51995C146.784 12.2806 143.73 15.3344 139.97 15.3344ZM133.156 18.2467H146.784V20.226H133.156V18.2467ZM154.595 1.70554C158.129 1.70554 160.957 4.56137 160.957 8.09584V20.226H159.005V8.09584C159.005 5.66411 157.026 3.68482 154.595 3.68482C152.135 3.68482 150.156 5.63584 150.156 8.09584V20.226H148.204V8.09584C148.204 4.56137 151.06 1.70554 154.595 1.70554Z" fill="black"/>
</mask>
<g mask="url(#mask4_2080_40258)">
<path d="M105.754 14.4578L105.725 13.8606L104.335 13.9301L105.342 14.8906L105.754 14.4578ZM111.806 20.226V20.8239H113.299L112.218 19.7932L111.806 20.226ZM108.95 20.226L108.538 20.6595L108.711 20.8239H108.95V20.226ZM101.033 12.7048L101.444 12.2712L101.272 12.1068H101.033V12.7048ZM101.004 12.7048V12.1068H100.406V12.7048H101.004ZM101.004 20.226V20.8239H101.602V20.226H101.004ZM99.0534 20.226H98.4551V20.8239H99.0534V20.226ZM102.418 11.3192L101.995 11.742L102.003 11.7499L102.011 11.7574L102.418 11.3192ZM101.004 8.03928L100.406 8.02536V8.03232V8.03928H101.004ZM101.004 8.15237H100.406V8.15949V8.16662L101.004 8.15237ZM111.207 8.09582C111.207 11.1706 108.799 13.7069 105.725 13.8606L105.784 15.055C109.496 14.8694 112.404 11.8071 112.404 8.09582H111.207ZM105.342 14.8906L111.393 20.6588L112.218 19.7932L106.167 14.025L105.342 14.8906ZM111.806 19.6281H108.95V20.8239H111.806V19.6281ZM109.361 19.7925L101.444 12.2712L100.621 13.1382L108.538 20.6595L109.361 19.7925ZM101.033 12.1068H101.004V13.3027H101.033V12.1068ZM100.406 12.7048V20.226H101.602V12.7048H100.406ZM101.004 19.6281H99.0534V20.8239H101.004V19.6281ZM99.6512 20.226V8.09582H98.4551V20.226H99.6512ZM99.6512 8.09582C99.6512 4.8916 102.239 2.30344 105.444 2.30344V1.1076C101.579 1.1076 98.4551 4.23117 98.4551 8.09582H99.6512ZM105.444 2.30344C108.644 2.30344 111.207 4.88815 111.207 8.09582H112.404C112.404 4.23462 109.312 1.1076 105.444 1.1076V2.30344ZM102.011 11.7574C102.909 12.5915 104.128 13.1048 105.444 13.1048V11.9089C104.44 11.9089 103.51 11.5172 102.825 10.8811L102.011 11.7574ZM105.444 13.1048C108.177 13.1048 110.452 10.8295 110.452 8.09582H109.257C109.257 10.169 107.516 11.9089 105.444 11.9089V13.1048ZM110.452 8.09582C110.452 5.33391 108.205 3.08689 105.444 3.08689V4.28273C107.545 4.28273 109.257 5.99434 109.257 8.09582H110.452ZM105.444 3.08689C102.684 3.08689 100.47 5.27193 100.406 8.02536L101.602 8.05314C101.651 5.94317 103.339 4.28273 105.444 4.28273V3.08689ZM100.406 8.03928V8.15237H101.602V8.03928H100.406ZM100.406 8.16662C100.439 9.51013 100.983 10.7302 101.882 11.6289L102.728 10.7833C102.043 10.0986 101.627 9.16974 101.602 8.13813L100.406 8.16662ZM101.882 11.6289L101.995 11.742L102.841 10.8964L102.728 10.7833L101.882 11.6289ZM122.465 2.30344C127.253 2.30344 131.141 6.19347 131.141 10.9517H132.337C132.337 5.53062 127.912 1.1076 122.465 1.1076V2.30344ZM131.141 10.9517C131.141 15.7393 127.252 19.6281 122.465 19.6281V20.8239C127.913 20.8239 132.337 16.3998 132.337 10.9517H131.141ZM122.465 19.6281C117.707 19.6281 113.817 15.7405 113.817 10.9517H112.621C112.621 16.3986 117.044 20.8239 122.465 20.8239V19.6281ZM113.817 10.9517C113.817 6.19226 117.705 2.30344 122.465 2.30344V1.1076C117.045 1.1076 112.621 5.53182 112.621 10.9517H113.817ZM130.358 10.9517C130.358 6.60476 126.837 3.08689 122.465 3.08689V4.28273C126.179 4.28273 129.162 7.26826 129.162 10.9517H130.358ZM122.465 3.08689C118.122 3.08689 114.572 6.60328 114.572 10.9517H115.767C115.767 7.26974 118.777 4.28273 122.465 4.28273V3.08689ZM114.572 10.9517C114.572 15.3268 118.121 18.8446 122.465 18.8446V17.6488C118.778 17.6488 115.767 14.6633 115.767 10.9517H114.572ZM122.465 18.8446C126.838 18.8446 130.358 15.3253 130.358 10.9517H129.162C129.162 14.6648 126.178 17.6488 122.465 17.6488V18.8446ZM133.155 1.70552V1.1076H132.557V1.70552H133.155ZM135.106 1.70552H135.704V1.1076H135.106V1.70552ZM144.833 1.70552V1.1076H144.235V1.70552H144.833ZM146.784 1.70552H147.382V1.1076H146.784V1.70552ZM133.155 18.2467V17.6488H132.557V18.2467H133.155ZM146.784 18.2467H147.382V17.6488H146.784V18.2467ZM146.784 20.226V20.8239H147.382V20.226H146.784ZM133.155 20.226H132.557V20.8239H133.155V20.226ZM139.97 14.7364C136.539 14.7364 133.753 11.9504 133.753 8.51993H132.557C132.557 12.6108 135.879 15.9323 139.97 15.9323V14.7364ZM133.753 8.51993V1.70552H132.557V8.51993H133.753ZM133.155 2.30344H135.106V1.1076H133.155V2.30344ZM134.508 1.70552V8.51993H135.704V1.70552H134.508ZM134.508 8.51993C134.508 11.5364 136.953 13.9812 139.97 13.9812V12.7854C137.613 12.7854 135.704 10.8759 135.704 8.51993H134.508ZM139.97 13.9812C142.986 13.9812 145.431 11.5364 145.431 8.51993H144.235C144.235 10.8759 142.325 12.7854 139.97 12.7854V13.9812ZM145.431 8.51993V1.70552H144.235V8.51993H145.431ZM144.833 2.30344H146.784V1.1076H144.833V2.30344ZM146.186 1.70552V8.51993H147.382V1.70552H146.186ZM146.186 8.51993C146.186 11.9504 143.4 14.7364 139.97 14.7364V15.9323C144.061 15.9323 147.382 12.6108 147.382 8.51993H146.186ZM133.155 18.8446H146.784V17.6488H133.155V18.8446ZM146.186 18.2467V20.226H147.382V18.2467H146.186ZM146.784 19.6281H133.155V20.8239H146.784V19.6281ZM133.753 20.226V18.2467H132.557V20.226H133.753ZM160.956 20.226V20.8239H161.554V20.226H160.956ZM159.005 20.226H158.407V20.8239H159.005V20.226ZM150.155 20.226V20.8239H150.753V20.226H150.155ZM148.204 20.226H147.606V20.8239H148.204V20.226ZM154.594 2.30344C157.795 2.30344 160.359 4.88815 160.359 8.09582H161.554C161.554 4.23462 158.463 1.1076 154.594 1.1076V2.30344ZM160.359 8.09582V20.226H161.554V8.09582H160.359ZM160.956 19.6281H159.005V20.8239H160.956V19.6281ZM159.603 20.226V8.09582H158.407V20.226H159.603ZM159.603 8.09582C159.603 5.33391 157.356 3.08689 154.594 3.08689V4.28273C156.696 4.28273 158.407 5.99434 158.407 8.09582H159.603ZM154.594 3.08689C151.809 3.08689 149.557 5.30065 149.557 8.09582H150.753C150.753 5.97106 152.459 4.28273 154.594 4.28273V3.08689ZM149.557 8.09582V20.226H150.753V8.09582H149.557ZM150.155 19.6281H148.204V20.8239H150.155V19.6281ZM148.802 20.226V8.09582H147.606V20.226H148.802ZM148.802 8.09582C148.802 4.8916 151.39 2.30344 154.594 2.30344V1.1076C150.73 1.1076 147.606 4.23117 147.606 8.09582H148.802Z" fill="#F07846"/>
</g>
</svg>
