<svg width="80" height="80" viewBox="0 0 80 80" fill="none" xmlns="http://www.w3.org/2000/svg">
<g clip-path="url(#clip0_182_1667)">
<rect width="80" height="80" rx="40" fill="#E8E5FA"/>
<path d="M84.4158 91.9534H-6.4707V81.253L7.41581 62.5916L10.8502 57.9758C11.8949 56.572 13.4474 55.6325 15.1758 55.359L17.3777 55.0455L29.5209 53.3153L31.5953 53.0195L31.7051 53.0037C31.7005 53.0288 31.6967 53.053 31.6958 53.0772C31.4939 55.8576 51.8391 55.1627 51.3926 53.0223L52.6651 53.2037L54.1953 53.4213L58.4716 54.0306L60.6809 54.3451L67.6242 55.3339C67.7953 55.3609 67.9646 55.3943 68.1312 55.4343C68.4102 55.5013 68.6828 55.5851 68.9488 55.6855C69.1609 55.7655 69.3693 55.8567 69.5712 55.9581C69.774 56.0595 69.9712 56.1711 70.1619 56.292C70.5916 56.5646 70.9898 56.8855 71.3488 57.2502C71.3888 57.2902 71.4288 57.332 71.4679 57.373C71.5451 57.4567 71.6214 57.5423 71.6949 57.6288C71.8419 57.8037 71.9814 57.9869 72.1116 58.1776L72.7674 59.1395L73.6456 60.4297L74.6307 61.8762L84.4065 76.2269L84.4158 91.9534Z" fill="#FFB9DA"/>
<path d="M31.7059 53.0037C31.7161 52.9497 31.7338 52.8948 31.7589 52.8381C32.1654 51.9544 32.3552 51.2148 32.41 50.5971C32.5784 48.7255 31.5152 47.9553 31.4798 47.6176C31.4491 47.3209 31.97 47.0483 32.5449 46.8409C32.9886 46.6799 33.464 46.5572 33.7421 46.4911V47.0986C32.9747 47.3172 32.0798 47.6809 33.7421 47.8725C33.9431 47.8957 34.1812 47.9172 34.4621 47.9339C37.7319 48.1395 46.0668 47.866 48.0938 47.7944C48.411 47.7832 48.7263 47.7404 49.0352 47.6641C49.0752 47.6548 49.1142 47.6465 49.1533 47.6362C49.7896 47.4604 50.5021 47.1581 49.0082 46.9274L48.9886 46.3813C49.6966 46.5209 51.2203 46.8632 51.1784 47.2083C51.1617 47.3553 50.9831 47.6864 50.8138 48.1748C50.5124 49.0409 50.2398 50.3999 50.9459 52.0939C51.0547 52.3544 51.1868 52.6223 51.3449 52.8976C51.3691 52.9395 51.3849 52.9813 51.3933 53.0223C51.8435 55.1813 31.1393 55.8697 31.7059 53.0037Z" fill="#FFB9DA"/>
<path d="M54.6308 15.4726C54.0559 15.9488 53.3015 15.9014 52.9647 15.8484C52.8819 15.8363 52.8252 15.8233 52.801 15.8177C52.7954 15.8158 52.7917 15.8149 52.7898 15.8149C52.7908 15.8149 52.7926 15.8167 52.7945 15.8186C52.9145 15.9172 54.8903 17.5749 53.7126 18.7656C53.3945 19.0865 52.9777 19.2233 52.5508 19.2586C52.015 19.3023 51.4633 19.1851 51.0643 19.066C50.7312 18.9674 50.5052 18.867 50.4857 18.8586C50.5117 18.9256 51.6596 21.8893 47.3182 20.5814C47.2661 20.4149 47.2112 20.2512 47.1536 20.093C47.1517 19.9498 47.148 19.8093 47.1415 19.6726C46.815 12.3656 40.0094 12.7572 37.9387 14.373C37.7647 14.5079 37.6243 14.6521 37.5238 14.8009C37.2857 14.8195 37.0522 14.8456 36.8243 14.8781C36.455 14.36 36.5536 13.5907 36.9917 13.0772C37.1396 12.9042 37.3787 12.8465 37.6019 12.7991C37.1619 12.6242 36.627 12.3107 36.5145 11.8093C36.468 11.6028 36.5015 11.4121 36.6122 11.2316C36.6466 11.1767 37.0912 10.7572 37.1164 10.8074C37.1089 10.7916 35.9684 8.49581 38.0243 8.00186C38.0243 8.00186 36.0131 4.62512 40.1694 5.72931C40.2233 5.74326 40.2782 5.75814 40.334 5.77396C40.334 5.77396 41.4791 2.86882 43.1033 5.66324C43.1033 5.66324 43.1117 5.58138 43.1415 5.4558C43.2419 5.02138 43.5833 4.06419 44.6373 4.14605C45.307 4.19814 45.867 4.66604 46.0754 5.29487C46.095 5.35348 46.1117 5.41303 46.1247 5.47349C46.1247 5.47442 46.1257 5.47627 46.1257 5.4772C46.1564 5.6251 46.1722 5.77673 46.1573 5.92278C46.1573 5.92278 47.3126 4.05023 49.0419 4.30139C49.9796 4.43814 50.6568 5.25488 50.6596 6.1572C50.6605 6.31813 50.6391 6.48185 50.5945 6.64464C50.5238 6.90046 50.4001 7.14791 50.1954 7.35256C50.1954 7.35256 51.0131 6.97116 51.9508 6.84093C52.7387 6.73116 53.4261 7.09489 53.8224 7.65582C54.1368 8.09954 54.2689 8.66696 54.1219 9.22231C54.0754 9.40092 53.9991 9.57768 53.8922 9.74884C53.8261 9.85489 53.7536 9.9451 53.6754 10.0139C53.6754 10.0139 56.975 10.9516 54.1433 12.9963C54.1433 12.9963 55.8326 14.4791 54.6308 15.4726Z" fill="#45216A"/>
<path d="M50.5945 27.9917C50.415 28.3042 50.1787 28.6177 49.8848 28.9126C49.6513 29.148 49.3806 29.3712 49.0736 29.574L49.0718 29.5759C48.9192 29.6763 48.7573 29.7722 48.5862 29.8615C47.9741 30.1805 47.2801 30.3275 46.5945 30.2475C45.9266 30.1694 45.2662 29.8866 45.6225 29.014C45.7434 28.7173 45.9815 28.3535 46.3769 27.9061C46.5294 27.7331 46.7062 27.548 46.9071 27.3498C46.8662 27.3712 46.8234 27.3926 46.7787 27.4149C45.9611 27.8224 44.6373 28.3154 44.9155 27.0642C45.0643 26.3954 45.3704 25.6801 45.6959 25.0466C45.7155 25.0075 45.7359 24.9694 45.7555 24.9312C45.7983 24.8503 45.8411 24.7721 45.8829 24.6949C45.8857 24.6884 45.8894 24.6819 45.8932 24.6754C45.8894 24.6791 45.8857 24.6828 45.8811 24.6866C45.8736 24.694 45.8662 24.7005 45.8578 24.708C45.8578 24.708 44.3825 25.4456 43.4866 24.9712C42.8308 24.6242 43.0494 23.7135 43.5648 22.92C43.6104 22.8493 43.6587 22.7805 43.708 22.7126C43.1908 22.9507 42.2792 23.2056 41.2355 22.7517C41.2355 22.7517 40.255 21.9824 41.2252 20.6512C41.1183 20.7842 40.2234 21.8521 38.7694 21.9061C37.6801 21.9461 37.588 20.8754 37.588 20.8754C37.588 20.8754 35.9732 21.9842 34.1257 21.7405C32.6392 21.5442 32.1787 20.2801 32.1787 20.2801C32.1787 20.2801 31.3145 21.4875 30.3397 21.308C30.0764 21.2596 29.8652 21.1163 29.7052 20.9089C29.6997 21.2075 29.6197 22.4856 28.655 22.668C28.4011 22.7154 28.1211 22.6642 27.8718 22.5247C27.6485 22.3991 27.4494 22.2028 27.3201 21.9424C27.3118 21.9256 27.3034 21.908 27.2969 21.8903C27.1778 21.6233 27.1285 21.2949 27.1918 20.9108C27.2578 20.5042 27.4485 20.0363 27.8141 19.5145C28.5899 18.4066 29.0736 18.8373 29.3573 19.4931C29.4076 18.5861 29.8466 17.5461 30.7155 16.8791C31.1099 16.5768 31.4476 16.6308 31.708 16.7954C31.9946 16.6029 32.5955 16.2298 33.4411 15.854C34.1164 15.5545 34.9471 15.2531 35.8987 15.0447C36.1955 14.9787 36.5052 14.9228 36.8252 14.8782C37.0532 14.8456 37.2866 14.8196 37.5248 14.801C37.708 14.7861 37.8941 14.7759 38.0829 14.7712C39.1266 14.7396 40.255 14.8484 41.4355 15.1777C44.1434 15.9321 46.148 17.3619 47.1545 20.0931C47.2122 20.2512 47.2671 20.4149 47.3192 20.5815C47.3508 20.6866 47.3825 20.7935 47.4122 20.9014C47.5397 20.9377 47.6569 20.9917 47.7555 21.0708C48.0792 21.3294 48.1108 21.72 47.9173 22.2C47.9518 22.1805 47.9852 22.161 48.0197 22.1442C48.0345 22.1359 48.0485 22.1284 48.0634 22.121C48.5443 21.8801 49.0792 21.8345 49.495 22.3889C50.0792 23.1684 50.4904 23.8829 49.9964 24.7945C49.8625 25.041 49.6634 25.3015 49.3825 25.5824C51.0252 24.9954 51.4606 26.4884 50.5945 27.9917Z" fill="#45216A"/>
<path d="M37.5254 14.801C38.7207 14.707 40.0417 14.7888 41.4361 15.1777C44.144 15.9321 46.1477 17.3628 47.1542 20.093C47.0668 11.7135 38.8435 12.8447 37.5254 14.801Z" fill="#FFB9DA"/>
<path d="M27.3206 21.9414C27.1355 22.5479 26.9058 23.6102 26.9941 24.9414C27.2192 24.1126 27.5085 23.2986 27.8723 22.5246C27.6481 22.3991 27.4499 22.2028 27.3206 21.9423V21.9414Z" fill="#45216A"/>
<path d="M29.8739 26.3461C29.3911 26.0596 28.845 25.8977 28.2683 25.8977C28.0943 25.8977 27.9232 25.9135 27.7557 25.9423C26.0143 26.2372 24.6748 28.0121 24.6748 30.1582C24.6748 30.7609 24.7808 31.3349 24.9715 31.854C24.3985 31.1368 24.0469 30.1693 24.0469 29.1033C24.0469 27.0856 25.3055 25.4177 26.9427 25.1396C27.0999 25.1135 27.2608 25.0986 27.4245 25.0986C28.3883 25.0986 29.258 25.5777 29.8739 26.3461Z" fill="#E1E1FF"/>
<path d="M39.804 26.6884C39.1929 26.0754 38.4012 25.7061 37.5371 25.7061C35.5984 25.7061 34.0273 27.5628 34.0273 29.8521C34.0273 30.693 34.2384 31.4754 34.6031 32.1284C33.8422 31.3684 33.3594 30.2317 33.3594 28.9628C33.3594 26.6726 34.9305 24.8168 36.8691 24.8168C38.0971 24.8168 39.1771 25.5609 39.804 26.6884Z" fill="#E1E1FF"/>
<path d="M33.7414 47.8726V47.0986C32.974 47.3172 32.0782 47.6809 33.7414 47.8726Z" fill="#EA68AD"/>
<path d="M51.0327 38.6149C51.2327 40.6586 50.6717 41.7023 50.4317 41.7544C50.1759 41.7163 49.4131 40.7107 49.2131 38.667C49.1471 37.9953 49.1452 37.3051 49.2792 36.6409C49.3117 36.4791 49.3527 36.3172 49.4066 36.1609C49.4224 36.1135 49.4401 36.067 49.4587 36.0214C49.5824 35.7172 50.015 35.3405 49.6485 35.027C49.5573 34.9488 49.4308 34.9144 49.3127 34.934C48.8122 35.0177 48.5517 35.7367 48.4252 36.2353C48.4048 36.3153 48.388 36.3907 48.3741 36.4567C48.2197 37.1879 48.215 37.9526 48.2876 38.6939C48.3601 39.4381 48.5285 40.2009 48.7843 40.8474C49.1434 41.7526 49.6755 42.426 50.3648 42.4865C50.4094 42.4902 50.455 42.4921 50.5006 42.4902C50.9155 42.4781 51.4755 42.24 51.788 41.173C51.9927 40.4735 52.0541 39.5563 51.9592 38.5898C51.841 37.3833 51.4727 36.1256 50.8829 35.4028C50.6699 35.5879 50.4373 35.7479 50.188 35.8763C50.5071 36.3321 50.8978 37.2372 51.0327 38.6167V38.6149Z" fill="#FFBE58"/>
<path d="M50.5665 29.2772C50.3534 29.1303 50.1246 29.0075 49.8837 28.9126C49.533 29.2651 49.1004 29.5926 48.5851 29.8614C48.2437 30.0391 47.8772 30.1637 47.5004 30.2251C47.2018 30.2735 46.8967 30.2828 46.5935 30.2475C45.9255 30.1693 45.2651 29.8865 45.6214 29.014C45.7888 28.6028 46.1814 28.0624 46.906 27.3498C46.1079 27.7637 44.6214 28.3833 44.9144 27.0642C45.093 26.2605 45.4995 25.3898 45.8921 24.6754C45.8809 24.6865 45.8688 24.6968 45.8567 24.7079C45.8567 24.7079 45.8539 24.7098 45.8483 24.7116C45.8483 24.7126 45.8474 24.7126 45.8474 24.7126C45.7181 24.7749 44.3386 25.4233 43.4855 24.9712C42.7721 24.5935 43.0939 23.5489 43.7069 22.7126C43.1897 22.9507 42.2781 23.2056 41.2344 22.7517C41.2344 22.7517 40.2539 21.9824 41.2241 20.6512C41.1172 20.7842 40.2223 21.8521 38.7683 21.9061C37.679 21.9461 37.5869 20.8754 37.5869 20.8754C37.5869 20.8754 35.9721 21.9842 34.1246 21.7405C32.6381 21.5442 32.1776 20.28 32.1776 20.28C32.1776 20.28 31.3135 21.4875 30.3386 21.3079C30.0753 21.2596 29.8642 21.1163 29.7042 20.9089C29.7023 21 29.6939 21.1814 29.6548 21.3963C29.599 21.7098 29.479 22.0921 29.2232 22.3591C29.08 22.5089 28.8939 22.6223 28.6539 22.6679C28.4 22.7154 28.12 22.6642 27.8707 22.5247C27.5079 23.2996 27.2176 24.1126 26.9935 24.9414C26.9748 25.0075 26.9581 25.0735 26.9414 25.1396C27.0986 25.1135 27.2595 25.0986 27.4232 25.0986C27.8204 25.0986 28.2018 25.1796 28.5553 25.3293C29.8642 25.881 30.8009 27.3628 30.8009 29.1033C30.8009 31.2065 29.4335 32.9312 27.6958 33.0958C27.6065 33.1042 27.5153 33.1089 27.4232 33.1089C26.9172 33.1089 26.4381 32.9758 26.0074 32.7396C25.959 37.4828 27.0316 42.5107 31.2232 43.7665C31.6195 43.8865 32.0428 43.9712 32.4958 44.0196C32.9228 44.0642 33.3376 44.0912 33.7404 44.1024V47.8726C33.9414 47.8958 34.1795 47.9172 34.4604 47.934C37.7302 48.1396 46.0651 47.8661 48.0921 47.7944C48.4093 47.7833 48.7246 47.7405 49.0334 47.6642L49.0065 46.9275L48.9869 46.3814L48.8279 42.0363L48.7841 40.8465C48.5274 40.201 48.36 39.4372 48.2865 38.693C48.2139 37.9517 48.2195 37.187 48.3739 36.4558C48.3869 36.3907 48.4046 36.3154 48.4251 36.2344C48.4465 36.1489 48.4725 36.0568 48.5023 35.9628C48.6483 35.5079 48.8976 35.0038 49.3125 34.934C49.4307 34.9135 49.5572 34.9489 49.6483 35.0261C50.0148 35.3396 49.5832 35.7163 49.4595 36.0205C49.44 36.067 49.4232 36.1135 49.4074 36.16C49.68 36.0977 49.9423 36.0019 50.1879 35.8754C50.4372 35.7461 50.6697 35.587 50.8828 35.4019C51.679 34.7089 52.1888 33.6493 52.1888 32.4623C52.1888 31.1256 51.5423 29.9498 50.5665 29.2772ZM40.3758 29.0856C40.32 31.3182 38.7721 33.1089 36.8688 33.1089C34.9655 33.1089 33.359 31.2521 33.359 28.9628C33.359 26.6735 34.9302 24.8168 36.8688 24.8168C38.8074 24.8168 40.3786 26.6726 40.3786 28.9628C40.3786 29.0038 40.3767 29.0447 40.3758 29.0856Z" fill="#C47451"/>
<path d="M49.1529 47.6363C49.7892 47.4605 50.5018 47.1582 49.0078 46.9275L49.0348 47.6642C49.0739 47.6549 49.1139 47.6466 49.1529 47.6354V47.6363Z" fill="#EA68AD"/>
<path d="M68.9496 55.6846C68.5244 55.5237 68.0807 55.4055 67.6249 55.333C68.0807 55.4046 68.5244 55.5237 68.9496 55.6846Z" fill="#8EB9F6"/>
<path d="M72.1119 58.1777C71.5919 57.4149 70.9258 56.7758 70.1621 56.2921C70.9258 56.7768 71.5919 57.4149 72.1119 58.1777Z" fill="#8EB9F6"/>
<path d="M54.201 76.892C54.8363 79.6185 53.7061 82.7571 51.2996 84.1869C49.8605 85.0418 48.1265 85.2558 46.4521 85.2279C45.9972 85.2204 45.5331 85.1944 45.1098 85.0269C44.6679 84.852 44.2996 84.5358 43.9191 84.2511C43.1135 83.6493 42.2131 83.172 41.2577 82.8595C39.6177 82.3237 37.8586 82.2818 36.1824 81.8753C34.5061 81.4688 32.7917 80.5609 32.1414 78.9636C31.774 78.0622 31.7926 77.0465 31.9517 76.0865C32.2521 74.2725 33.0391 72.5413 34.2093 71.1237C34.8047 70.4018 35.5145 69.7488 36.3731 69.3739C39.8177 67.8697 45.44 69.7069 48.7433 70.9553C51.3619 71.945 53.5665 74.1674 54.2019 76.8939L54.201 76.892Z" fill="#8EB9F6"/>
<path d="M29.7994 57.1721C29.6199 57.7963 29.4143 58.4279 29.0245 58.9479C28.1166 60.16 26.4339 60.4912 24.9204 60.4391C22.1241 60.3432 17.2655 59.1209 17.3287 55.5628C17.3315 55.3851 17.3483 55.2121 17.3771 55.0455L29.5204 53.3153C29.5846 53.3897 29.6441 53.4679 29.699 53.5497C30.3901 54.5897 30.1446 55.9721 29.7994 57.1721Z" fill="#8EB9F6"/>
<path d="M72.7676 59.1395L73.6457 60.4298L72.7676 59.1395Z" fill="#8EB9F6"/>
<path d="M73.6447 60.4297C73.5172 60.5292 73.386 60.6241 73.253 60.7153C72.7674 61.0474 72.2465 61.3218 71.6902 61.5209C70.5433 61.932 69.3005 62.0037 68.0837 61.9358C65.6716 61.799 63.2251 61.0827 61.386 59.5144C60.6233 58.8632 59.5888 57.3655 58.9684 55.8204C58.7256 55.2158 58.5461 54.6027 58.4707 54.0306L60.68 54.345L67.6233 55.3339C67.7944 55.3609 67.9637 55.3943 68.1302 55.4343C68.4093 55.5013 68.6819 55.5851 68.9479 55.6855C69.16 55.7655 69.3684 55.8567 69.5702 55.9581C69.773 56.0595 69.9702 56.1711 70.1609 56.292C70.5907 56.5646 70.9888 56.8855 71.3479 57.2502C71.3879 57.2902 71.4279 57.332 71.467 57.373C71.5442 57.4567 71.6205 57.5413 71.694 57.6288C71.8409 57.8037 71.9805 57.9869 72.1107 58.1776L72.7665 59.1395L73.6447 60.4297Z" fill="#FF4C3E"/>
<path d="M58.4707 54.0306L60.68 54.345L58.4707 54.0306Z" fill="#8EB9F6"/>
<path d="M50.8124 48.1748C50.8124 48.1748 50.8115 48.1785 50.8105 48.1804C50.8105 48.1785 50.8115 48.1767 50.8124 48.1748Z" fill="#8EB9F6"/>
<path d="M50.8112 48.1796C50.8112 48.1796 50.8121 48.1758 50.8131 48.174C50.3926 48.1405 49.9526 48.2121 49.4866 48.4279C49.2754 48.5256 49.0717 48.6605 48.9535 48.8605C48.8642 49.0112 48.8307 49.1879 48.7982 49.3609C48.7312 49.7219 48.6652 50.1042 48.7954 50.4475C48.8987 50.7182 49.1107 50.9303 49.3182 51.133C49.7638 51.5703 50.2624 52.0335 50.8847 52.0893C50.9052 52.0912 50.9247 52.0921 50.9452 52.093C50.614 51.2986 50.4987 50.5786 50.4996 49.9479C50.4996 49.9061 50.4996 49.8642 50.5014 49.8233C50.5191 49.1665 50.6614 48.6121 50.8112 48.1796Z" fill="#FF4C3E"/>
<path d="M36.3711 69.373C35.5134 69.7479 34.8037 70.4009 34.2074 71.1228C33.0372 72.5405 32.2502 74.2716 31.9497 76.0856C31.7906 77.0465 31.772 78.0614 32.1395 78.9628C32.7897 80.561 34.5041 81.4679 36.1804 81.8744C37.8567 82.2809 39.6167 82.3228 41.2558 82.8586C42.212 83.1712 43.1116 83.6484 43.9172 84.2502C44.2976 84.5349 44.666 84.8512 45.1078 85.026C45.5311 85.1935 45.9953 85.2195 46.4502 85.227C48.1246 85.2549 49.8586 85.0409 51.2976 84.1861C53.7051 82.7563 54.8353 79.6177 54.199 76.8912C53.5627 74.1647 51.359 71.9424 48.7404 70.9526C45.4372 69.7042 39.8148 67.867 36.3702 69.3712L36.3711 69.373Z" fill="#FF4C3E"/>
<path d="M17.3771 55.0455C17.3483 55.2121 17.3315 55.3851 17.3287 55.5628C17.2655 59.1209 22.1241 60.3432 24.9204 60.4391C26.4339 60.4912 28.1166 60.16 29.0245 58.9479C29.4143 58.4279 29.6199 57.7963 29.7994 57.1721C30.1446 55.9721 30.3901 54.5897 29.699 53.5497C29.6441 53.4679 29.5846 53.3897 29.5204 53.3153L17.3771 55.0455Z" fill="#FF4C3E"/>
<path d="M35.4679 53.0921C35.3433 53.4177 35.1051 53.7851 34.7563 53.759C34.4568 53.7376 34.2577 53.4102 34.254 53.1097C34.2503 52.8093 34.3833 52.5274 34.4893 52.2455C34.8717 51.2149 34.8735 50.0521 34.5098 49.0167C34.4596 48.8753 34.5042 48.7097 34.6335 48.6325C34.6568 48.6186 34.681 48.6083 34.7061 48.6018C34.9135 48.546 35.1293 48.6642 35.2791 48.8177C35.5563 49.1023 35.6791 49.4995 35.7535 49.8902C35.9582 50.9563 35.8568 52.0781 35.467 53.0921H35.4679Z" fill="#FFD2EA"/>
<path d="M38.48 49.4102C38.5554 49.7069 38.6893 49.986 38.773 50.2809C38.8596 50.5897 38.8893 50.9125 38.9107 51.2325C38.96 51.973 38.9637 52.733 38.734 53.439C38.6642 53.653 38.587 53.9237 38.7563 54.0725C38.8103 54.12 38.8819 54.1441 38.9535 54.159C39.3944 54.2502 39.8819 53.9897 40.0512 53.573C40.1275 53.386 40.1433 53.1804 40.1526 52.9795C40.1703 52.6158 40.1693 52.2502 40.1442 51.8874C40.1163 51.4865 40.0596 51.0893 40.0298 50.6883C39.9963 50.2427 39.9926 49.7804 39.8075 49.3739C39.6549 49.039 39.347 48.7618 38.9758 48.7116C38.5414 48.6521 38.3833 49.0269 38.481 49.4111L38.48 49.4102Z" fill="#FFD2EA"/>
<path d="M46.9448 49.0493C47.0741 49.2577 47.088 49.5581 47.1011 49.8177C47.1652 51.0623 47.7197 52.3107 47.4015 53.5154C47.3783 53.6019 47.3448 53.6958 47.2657 53.7377C47.2192 53.7628 47.1643 53.7656 47.1113 53.7637C46.8462 53.7563 46.4294 53.6233 46.289 53.3721C46.169 53.1591 46.1643 52.8 46.1262 52.5581C46.0201 51.8828 45.9903 51.1981 45.9997 50.5154C46.0043 50.187 45.9717 49.7535 46.088 49.4437C46.1438 49.294 46.5224 48.7414 46.7485 48.8614C46.8331 48.9061 46.8964 48.9702 46.9438 49.0474L46.9448 49.0493Z" fill="#FFD2EA"/>
<path d="M44.2939 49.4819C44.3442 50.0177 44.133 50.5386 44.0158 51.0642C43.8679 51.7303 43.8707 52.4214 43.92 53.1024C43.9349 53.3061 43.9535 53.5135 43.9069 53.7117C43.8604 53.9107 43.7376 54.1033 43.546 54.1758C43.2707 54.28 42.9544 54.094 42.8111 53.8363C42.6688 53.5786 42.6558 53.2717 42.6474 52.9777C42.6232 52.1749 42.5981 51.3712 42.5739 50.5684C42.5581 50.0503 42.573 49.2624 43.0762 48.9414C43.5879 48.6149 44.2362 48.8679 44.293 49.48L44.2939 49.4819Z" fill="#FFD2EA"/>
<g style="mix-blend-mode:screen">
<path d="M31.2232 43.7665C27.0316 42.5107 25.959 37.4828 26.0074 32.7395C26.4381 32.9758 26.9172 33.1088 27.4232 33.1088C27.5153 33.1088 27.6065 33.1042 27.6958 33.0958C27.7097 36.9683 28.519 41.0521 31.2232 43.7665Z" fill="#C47451"/>
</g>
<g style="mix-blend-mode:screen">
<path d="M27.4233 25.0985C27.2595 25.0985 27.0986 25.1134 26.9414 25.1395C26.9582 25.0734 26.9749 25.0074 26.9935 24.9413C27.2177 24.1125 27.5079 23.2995 27.8707 22.5246C28.12 22.6641 28.4 22.7153 28.654 22.6678C28.894 22.6222 29.08 22.5088 29.2233 22.359L29.2949 22.3971C29.2949 22.3971 28.934 23.5385 28.5554 25.3292C28.2019 25.1795 27.8205 25.0985 27.4233 25.0985Z" fill="#C47451"/>
</g>
<g style="mix-blend-mode:multiply" opacity="0.7">
<path d="M44.8278 38.613C44.798 38.7349 43.0268 45.8167 36.1143 47.5246C35.3822 47.706 34.5934 47.827 33.7422 47.8726V44.1023C33.7422 44.1023 40.5134 44.7014 44.8278 38.613Z" fill="#C47451"/>
</g>
<g style="mix-blend-mode:multiply" opacity="0.7">
<path d="M49.0352 47.6641C49.0352 47.6641 36.0101 48.4167 33.7422 47.8725C34.5934 47.8269 35.3822 47.706 36.1143 47.5246C36.7394 47.5339 45.7096 47.6362 48.9887 46.3813L49.0352 47.6641Z" fill="#C47451"/>
</g>
<g style="mix-blend-mode:multiply" opacity="0.7">
<path d="M48.8296 42.6428C48.5645 42.3693 48.3385 42.0084 48.1543 41.5991C47.8734 40.9731 47.6892 40.2335 47.6083 39.5117C47.5283 38.7935 47.5348 38.0531 47.7031 37.3433C47.718 37.28 47.7376 37.2075 47.7608 37.1293C47.8743 36.7303 48.0901 36.1861 48.4715 35.9619C48.439 36.0652 48.4101 36.1666 48.3869 36.2605C48.3645 36.3498 48.345 36.4326 48.331 36.5042C48.1608 37.3089 48.1552 38.1498 48.2352 38.9647C48.3162 39.7833 48.6045 40.3079 48.8864 41.0177L48.8306 42.6419L48.8296 42.6428Z" fill="#C47451"/>
</g>
<g style="mix-blend-mode:multiply" opacity="0.7">
<path d="M50.568 29.2772C48.8471 30.4177 47.7047 30.2642 47.502 30.2251C47.8787 30.1637 48.2452 30.0391 48.5866 29.8614C49.102 29.5926 49.5345 29.2652 49.8852 28.9126C50.1261 29.0075 50.355 29.1303 50.568 29.2772Z" fill="#C47451"/>
</g>
<g style="mix-blend-mode:multiply" opacity="0.7">
<path d="M45.8488 24.7126C45.8023 24.7963 45.7474 24.8772 45.6897 24.9526C45.326 25.4298 44.7995 25.8028 44.206 25.8856C43.6116 25.9684 42.9595 25.7191 42.6488 25.2065C42.3781 24.761 42.393 24.2047 42.4163 23.6838C41.939 23.9805 41.2888 23.8447 40.8432 23.5023C40.3976 23.1609 40.1139 22.654 39.8544 22.1554C39.166 22.8382 37.9409 22.8744 37.2135 22.2335C37.1111 22.1442 37.0135 22.04 36.8832 22.0047C36.7614 21.9712 36.6321 22.0019 36.5102 22.0326C35.7595 22.2214 34.993 22.3879 34.219 22.3675C33.4451 22.3479 32.6535 22.1275 32.0683 21.6205C31.66 22.6177 30.3735 22.2335 29.8163 21.6196C29.7549 21.5516 29.7018 21.4772 29.6562 21.3963C29.6953 21.1814 29.7037 21 29.7056 20.9089C29.8656 21.1163 30.0767 21.2596 30.34 21.3079C31.3149 21.4875 32.179 20.28 32.179 20.28C32.179 20.28 32.6395 21.5442 34.126 21.7405C35.9735 21.9842 37.5883 20.8754 37.5883 20.8754C37.5883 20.8754 37.6804 21.9461 38.7697 21.9061C40.2237 21.8521 41.1186 20.7842 41.2256 20.6512C40.2553 21.9824 41.2358 22.7517 41.2358 22.7517C42.2795 23.2056 43.1911 22.9507 43.7083 22.7126C43.0953 23.5489 42.7735 24.5935 43.4869 24.9712C44.34 25.4233 45.7195 24.7749 45.8488 24.7126Z" fill="#C47451"/>
</g>
<g style="mix-blend-mode:screen">
<path d="M37.482 15.1748C36.7983 15.4036 36.1341 15.7023 35.4783 15.9897C34.7257 16.319 33.9713 16.6706 33.2894 17.1357C32.5862 17.6148 31.9573 18.1971 31.3973 18.8353C31.122 19.1488 30.8662 19.4781 30.6178 19.8139C30.4364 20.0595 30.229 20.4837 29.8885 20.5134C29.6011 20.5385 29.3778 20.2651 29.0987 20.1944C28.7648 20.1106 28.4252 20.3385 28.2252 20.6185C28.0252 20.8985 27.9155 21.2334 27.7239 21.5199C27.6197 21.6762 27.4662 21.8213 27.2969 21.8902C27.1778 21.6232 27.1285 21.2948 27.1918 20.9106C27.2578 20.5041 27.4485 20.0362 27.8141 19.5144C28.5899 18.4065 29.0736 18.8372 29.3573 19.493C29.4076 18.586 29.8466 17.546 30.7155 16.879C31.1099 16.5767 31.4476 16.6306 31.708 16.7953C31.9946 16.6027 32.5955 16.2297 33.4411 15.8539C34.1164 15.5543 34.9471 15.253 35.8987 15.0446C36.4969 14.9134 37.0932 14.9302 37.6922 14.8251C37.7983 14.8065 37.9034 14.7832 38.0113 14.7823C38.228 14.7804 38.4383 14.8716 38.655 14.8688C38.2569 14.9395 37.8662 15.0464 37.4829 15.1757L37.482 15.1748Z" fill="#45216A"/>
</g>
<g style="mix-blend-mode:multiply" opacity="0.4">
<path d="M49.9971 24.7944C49.639 24.7693 49.252 24.6782 49.0734 24.3731C48.9943 24.2382 48.9683 24.0782 48.8929 23.9405C48.732 23.6456 48.3813 23.5098 48.1646 23.2521C47.9246 22.9684 47.8809 22.4968 48.0204 22.1442C48.0353 22.1358 48.0492 22.1284 48.0641 22.121C48.545 21.88 49.0799 21.8344 49.4957 22.3889C50.0799 23.1684 50.4911 23.8828 49.9971 24.7944Z" fill="#45216A"/>
</g>
<g style="mix-blend-mode:screen">
<path d="M40.1694 5.72924C40.1619 5.77204 40.1508 5.81388 40.135 5.85574C39.814 5.6697 39.3843 5.91342 39.2298 6.25016C38.9489 6.86225 39.3219 7.64459 38.8419 8.18691C38.7247 8.31901 38.5703 8.41109 38.4382 8.5283C38.0559 8.86784 37.8912 9.40923 37.9312 9.91899C37.9712 10.4288 38.1945 10.9097 38.4857 11.3302C38.5861 11.4753 38.6968 11.6204 38.7433 11.7906C38.8643 12.2362 38.5191 12.6576 38.2261 13.0139C37.9424 13.3581 37.6754 13.7469 37.5629 14.1851C37.5303 14.3116 37.5684 14.7153 37.4959 14.7934C37.468 14.8241 36.8354 14.893 36.8243 14.8771C36.455 14.359 36.5536 13.5897 36.9917 13.0762C37.1396 12.9032 37.3787 12.8455 37.6019 12.7981C37.1619 12.6232 36.627 12.3097 36.5145 11.8083C36.468 11.6018 36.5015 11.4111 36.6122 11.2306C36.6466 11.1757 37.0912 10.7562 37.1164 10.8064C37.1089 10.7906 35.9684 8.49482 38.0243 8.00087C38.0243 8.00087 36.0131 4.62413 40.1694 5.72831V5.72924Z" fill="#45216A"/>
</g>
<g style="mix-blend-mode:multiply" opacity="0.5">
<path d="M52.9665 15.8484C52.8837 15.8363 52.8269 15.8233 52.8027 15.8177C52.8511 15.814 52.9069 15.8261 52.9665 15.8484Z" fill="#45216A"/>
</g>
<g style="mix-blend-mode:multiply" opacity="0.4">
<path d="M53.7137 18.7656C53.3956 19.0865 52.9789 19.2233 52.5519 19.2586C52.0161 19.3023 51.4644 19.1851 51.0654 19.066C50.7323 18.9674 50.5063 18.867 50.4868 18.8586C50.5128 18.9256 51.6607 21.8893 47.3193 20.5814C47.2672 20.4149 47.2123 20.2512 47.1547 20.093C47.1528 19.9498 47.1491 19.8093 47.1426 19.6726C47.191 19.6688 47.2449 19.6819 47.2933 19.6958C47.8412 19.853 48.4775 19.9711 48.9426 19.64C49.3305 19.3637 49.47 18.8614 49.5835 18.3991C50.0579 18.4446 50.5351 18.4698 51.0114 18.4716C51.457 18.4744 51.9221 18.4521 52.3091 18.2326C52.7193 18 52.9714 17.5367 52.9993 17.0716C53.0114 16.8605 52.9761 16.6539 52.897 16.4577C52.8468 16.3339 52.5863 16.0205 52.6858 15.8809C52.7137 15.8419 52.7509 15.8233 52.7956 15.8186C52.9156 15.9172 54.8914 17.5749 53.7137 18.7656Z" fill="#45216A"/>
</g>
<g style="mix-blend-mode:screen">
<path d="M45.8583 24.7078C45.8583 24.7078 44.3829 25.4455 43.4871 24.9711C42.8313 24.6241 43.0499 23.7134 43.5652 22.9199C43.6108 22.9236 43.6527 22.9358 43.688 22.9581C43.8666 23.0716 43.7048 23.3925 43.7225 23.5785C43.7513 23.8753 43.9215 24.1609 44.1764 24.3171C44.515 24.5246 44.9411 24.5051 45.3373 24.4744C45.4545 24.4651 45.5764 24.4558 45.688 24.4958C45.7755 24.5274 45.8555 24.599 45.8815 24.6864C45.8741 24.6939 45.8666 24.7004 45.8583 24.7078Z" fill="#45216A"/>
</g>
<g style="mix-blend-mode:screen">
<path d="M46.8775 27.32C46.8756 27.3246 46.871 27.3302 46.8644 27.3358C46.8347 27.3628 46.8058 27.3888 46.7779 27.4149C45.9603 27.8223 44.6365 28.3153 44.9147 27.0642C45.004 26.6632 45.1407 26.2726 45.2989 25.894C45.3807 25.6977 45.4682 25.5051 45.5612 25.3135C45.6021 25.2288 45.6431 25.146 45.6933 25.0679C45.7407 24.9935 45.7677 24.9088 45.8198 24.8353C45.8356 24.813 45.8524 24.7916 45.8747 24.7767C45.897 24.7619 45.9258 24.7544 45.951 24.7628C45.9593 24.826 45.9426 24.8884 45.9324 24.9507C45.9165 25.0391 45.9286 25.1265 45.9184 25.2149C45.91 25.2856 45.8942 25.3591 45.8821 25.4298C45.8561 25.5926 45.8189 25.7535 45.7826 25.9144C45.7342 26.1265 45.6858 26.3377 45.6375 26.5497C45.631 26.5767 45.6254 26.6037 45.6207 26.6307C45.5965 26.773 45.6142 26.9219 45.6719 27.0539C45.711 27.1442 45.7705 27.2288 45.857 27.2753C45.9361 27.3172 46.0291 27.3228 46.1184 27.3209C46.2635 27.3191 46.4077 27.3004 46.5491 27.2679C46.5826 27.2604 46.9082 27.2577 46.8793 27.32H46.8775Z" fill="#45216A"/>
</g>
<g style="mix-blend-mode:screen">
<path d="M49.0726 29.574L49.0707 29.5758C48.9182 29.6763 48.7563 29.7721 48.5851 29.8614C47.973 30.1805 47.2791 30.3274 46.5935 30.2474C45.9256 30.1693 45.2651 29.8865 45.6214 29.0139C45.7423 28.7172 45.9805 28.3535 46.3758 27.906C46.4502 27.8549 46.5154 27.7907 46.5795 27.7275C46.6223 27.6847 46.7702 27.4884 46.8419 27.5302C46.9005 27.5647 46.733 27.7619 46.7023 27.8149C46.6344 27.9321 46.5758 28.0549 46.5386 28.1851C46.493 28.346 46.48 28.5154 46.4809 28.6828C46.4819 28.8865 46.5107 29.1079 46.653 29.254C46.7712 29.3758 46.9479 29.4223 47.1172 29.4372C47.7275 29.4921 48.3172 29.2149 48.9275 29.1479C49.0372 29.1358 49.174 29.1442 49.2251 29.2428C49.2856 29.36 49.174 29.4893 49.0726 29.574Z" fill="#45216A"/>
</g>
<g style="mix-blend-mode:screen" opacity="0.8">
<path d="M32.4595 50.5851C32.4558 50.5023 32.4437 50.4186 32.4288 50.3209C32.399 50.133 32.4241 49.9293 32.4009 49.7377C32.3609 49.4102 32.2762 49.0902 32.1451 48.7879C31.9795 48.4056 31.6799 48.0986 31.5153 47.7237C31.5004 47.6893 31.4846 47.6549 31.4799 47.6177C31.4558 47.3823 31.7441 47.214 31.9153 47.1172C32.0651 47.0335 32.6334 46.6902 32.799 46.8288C32.8502 46.8716 32.8455 46.9554 32.8092 47.0121C32.7088 47.1712 32.5813 47.2726 32.5283 47.4642C32.4753 47.6558 32.4827 47.8586 32.5292 48.0484C32.586 48.28 32.6948 48.4958 32.7637 48.7247C32.9153 49.227 32.9004 49.8224 32.8204 50.3368C32.7553 50.7563 32.5953 51.1731 32.2976 51.4763C32.3413 51.2828 32.3851 51.0893 32.4288 50.8958C32.4558 50.7786 32.4623 50.6819 32.4586 50.5842L32.4595 50.5851Z" fill="#FFD2EA"/>
</g>
<g style="mix-blend-mode:multiply">
<path d="M41.0063 56.2828C28.8825 55.8335 31.6332 53.0828 31.6332 53.0828L31.6956 53.0772C31.4937 55.8577 51.8388 55.1628 51.3923 53.0223L52.6649 53.2037C54.036 54.0028 51.8118 56.6828 41.0063 56.2828Z" fill="#FFD2EA"/>
</g>
<g style="mix-blend-mode:screen" opacity="0.7">
<path d="M28.3593 55.1488L17.7462 57.0335C15.5165 57.2828 13.3928 58.1227 11.5956 59.466L7.41602 62.5907L10.8504 57.9748C11.8951 56.5711 13.4476 55.6316 15.176 55.3581L17.3779 55.0446L29.5211 53.3144L31.5956 53.0186L31.696 53.0762C31.696 53.0762 31.8076 53.0027 31.589 53.2697C30.7732 54.2623 29.6244 54.9237 28.3593 55.1488Z" fill="#FFB9DA"/>
</g>
<g style="mix-blend-mode:screen" opacity="0.7">
<path d="M74.6304 61.8762L73.2537 60.7153L71.4723 59.213C69.6779 57.6995 67.4732 56.7544 65.1402 56.4976L58.969 55.8204L56.2323 55.5702C55.4155 55.4958 54.7011 54.9907 54.3579 54.2455C54.2341 53.9776 54.4146 53.6679 54.7095 53.6437L55.1858 53.6046L58.4714 54.0297L60.6807 54.3441L67.6239 55.333C67.7951 55.36 67.9644 55.3934 68.1309 55.4334C68.41 55.5004 68.6825 55.5842 68.9486 55.6846C69.1607 55.7646 69.369 55.8558 69.5709 55.9572C69.7737 56.0586 69.9709 56.1702 70.1616 56.2911C70.5914 56.5637 70.9895 56.8846 71.3486 57.2493C71.3886 57.2893 71.4286 57.3311 71.4676 57.3721C71.5449 57.4558 71.6211 57.5414 71.6946 57.6279C71.8416 57.8028 71.9811 57.986 72.1114 58.1767L72.7672 59.1386L73.6453 60.4288L74.6304 61.8753V61.8762Z" fill="#FFB9DA"/>
</g>
<path d="M30.8013 29.1033C30.8013 31.3154 29.2887 33.1089 27.4236 33.1089C26.9175 33.1089 26.4385 32.9758 26.0078 32.7396C25.6152 32.5238 25.2627 32.2214 24.9706 31.854C24.7799 31.3349 24.6738 30.761 24.6738 30.1582C24.6738 28.0121 26.0134 26.2372 27.7548 25.9424C27.9222 25.9135 28.0934 25.8977 28.2673 25.8977C28.8441 25.8977 29.3901 26.0596 29.8729 26.3461C30.4487 27.0642 30.8013 28.0345 30.8013 29.1033Z" fill="#B8B4EF"/>
<path d="M40.379 28.9628C40.379 29.0037 40.3771 29.0446 40.3762 29.0856C40.3204 31.3181 38.7725 33.1088 36.8692 33.1088C36.005 33.1088 35.2143 32.7405 34.6032 32.1284C34.2385 31.4753 34.0273 30.693 34.0273 29.8521C34.0273 27.5628 35.5985 25.7061 37.5371 25.7061C38.4013 25.7061 39.1929 26.0753 39.8041 26.6884C40.1678 27.3414 40.379 28.1228 40.379 28.9628Z" fill="#B8B4EF"/>
<path d="M49.409 36.2995C49.3458 36.2995 49.2881 36.2558 49.2732 36.1916C49.2556 36.1162 49.303 36.0418 49.3783 36.0241C49.6379 35.9646 49.89 35.8725 50.1263 35.7506C50.1951 35.7153 50.2788 35.7423 50.3142 35.8111C50.3495 35.8799 50.3225 35.9637 50.2537 35.999C49.996 36.1311 49.7225 36.2316 49.4407 36.2967C49.4304 36.2995 49.4193 36.3004 49.409 36.3004V36.2995Z" fill="#231F20"/>
<path d="M50.19 36.0138C50.1398 36.0138 50.0905 35.9859 50.0663 35.9385C50.031 35.8697 50.0579 35.7859 50.1268 35.7506C50.3631 35.6287 50.5873 35.4762 50.7938 35.2966C50.8514 35.2455 50.9398 35.252 50.991 35.3106C51.0412 35.3683 51.0356 35.4566 50.977 35.5078C50.7538 35.7022 50.51 35.8678 50.2542 35.9999C50.2338 36.0101 50.2124 36.0157 50.19 36.0157V36.0138Z" fill="#231F20"/>
<path d="M50.8855 35.5414C50.8465 35.5414 50.8074 35.5255 50.7804 35.493C50.7302 35.4353 50.7358 35.3469 50.7944 35.2958C51.5944 34.6 52.053 33.5665 52.053 32.4623C52.053 30.9414 51.1618 29.5665 49.8362 29.0418C49.7646 29.0139 49.7293 28.9321 49.7581 28.8604C49.786 28.7888 49.8669 28.7534 49.9395 28.7823C51.3711 29.3479 52.333 30.8269 52.333 32.4623C52.333 33.6483 51.839 34.7572 50.9786 35.5069C50.9525 35.5302 50.92 35.5414 50.8874 35.5414H50.8855Z" fill="#231F20"/>
<path d="M48.4262 36.3739C48.4262 36.3739 48.4197 36.3739 48.4159 36.3739C47.9629 36.3404 47.5276 36.2213 47.122 36.0186C47.0532 35.9841 47.0252 35.9004 47.0597 35.8316C47.0941 35.7627 47.1778 35.7348 47.2466 35.7693C47.6197 35.9553 48.0197 36.066 48.4364 36.0958C48.5136 36.1014 48.5713 36.1683 48.5657 36.2455C48.5601 36.319 48.4987 36.3748 48.4271 36.3748L48.4262 36.3739Z" fill="#231F20"/>
<path d="M49.3011 34.4138C49.2732 34.4138 49.2453 34.4054 49.2202 34.3878C49.183 34.3608 48.2993 33.7283 48.2081 33.0315C48.1765 32.7878 48.2425 32.5664 48.4035 32.372C48.8742 31.8073 49.5402 32.3227 49.8249 32.5422C49.8491 32.5608 49.8807 32.5868 49.917 32.6166C50.3691 32.9887 50.503 33.0148 50.543 32.9971C50.543 32.9971 50.5737 32.9636 50.5644 32.8129C50.5365 32.3785 50.4016 31.9524 50.1728 31.5813C49.9877 31.2799 49.7691 31.0631 49.5235 30.9385C48.9932 30.6696 48.3104 30.7971 47.7132 30.958C47.6388 30.9775 47.5625 30.9338 47.5421 30.8594C47.5216 30.785 47.5663 30.7087 47.6407 30.6882C48.2891 30.5143 49.0351 30.3775 49.6491 30.6892C49.9412 30.8371 50.197 31.0882 50.41 31.4343C50.6621 31.8445 50.8109 32.3143 50.8416 32.7943C50.8565 33.0269 50.7988 33.1785 50.6695 33.2454C50.4267 33.3692 50.077 33.1087 49.7393 32.8315C49.7058 32.8036 49.676 32.7794 49.6537 32.7627C49.2109 32.4203 48.8649 32.2529 48.6174 32.5496C48.5058 32.6836 48.463 32.8287 48.4844 32.9943C48.5588 33.5701 49.3728 34.1534 49.3812 34.1589C49.4444 34.2036 49.4584 34.291 49.4146 34.3534C49.3877 34.3915 49.3439 34.412 49.3002 34.412L49.3011 34.4138Z" fill="#231F20"/>
<path d="M32.0518 33.1125C31.6499 33.1125 31.4462 32.6967 31.3653 32.5302C30.9215 31.625 31.2388 30.5097 31.516 29.7488C31.542 29.6762 31.6229 29.639 31.6946 29.665C31.7671 29.6911 31.8043 29.7711 31.7783 29.8437C31.5188 30.5562 31.2192 31.5962 31.6155 32.4065C31.7792 32.7395 31.9309 32.8641 32.1253 32.8241C32.5076 32.7441 32.8574 32.5432 33.1783 32.3376C33.2434 32.2957 33.3299 32.3153 33.3709 32.3804C33.4118 32.4455 33.3932 32.532 33.3281 32.5729C32.9848 32.7925 32.6081 33.0083 32.1811 33.0976C32.1355 33.1069 32.0918 33.1116 32.0509 33.1116L32.0518 33.1125Z" fill="#231F20"/>
<path d="M38.0909 35.5441C38.0564 35.5441 38.0229 35.532 37.996 35.5069C37.9402 35.4539 37.9355 35.3693 37.9876 35.3134L37.9941 35.3069C38.0462 35.2502 38.1374 35.2437 38.1941 35.2957C38.2509 35.3478 38.2574 35.4334 38.2053 35.4892L38.195 35.4995C38.1671 35.5293 38.1281 35.5441 38.0899 35.5441H38.0909Z" fill="#231F20"/>
<path d="M34.9728 37.1451C34.2491 37.1451 33.4603 36.8883 32.6547 36.1823C32.597 36.1311 32.5914 36.0437 32.6417 35.9851C32.6928 35.9274 32.7803 35.9209 32.8389 35.972C33.5905 36.6316 35.5989 37.8883 37.9887 35.3134C38.0407 35.2567 38.1291 35.2539 38.1859 35.306C38.2426 35.3581 38.2454 35.4464 38.1933 35.5032C37.7421 35.9897 36.5059 37.1441 34.9728 37.1441V37.1451Z" fill="#231F20"/>
<path d="M38.0887 35.5488C38.0701 35.5488 38.0505 35.5451 38.0319 35.5367C37.7817 35.4251 37.5696 35.2586 37.4022 35.04C37.3547 34.9786 37.3668 34.8912 37.4273 34.8447C37.4887 34.7972 37.5761 34.8093 37.6226 34.8698C37.7621 35.0512 37.938 35.1898 38.1454 35.2819C38.2161 35.3135 38.2477 35.3953 38.2161 35.466C38.1928 35.5181 38.1417 35.5488 38.0887 35.5488Z" fill="#231F20"/>
<path d="M38.7819 35.692C38.6089 35.692 38.3261 35.6669 38.0322 35.5357C37.9615 35.5041 37.9299 35.4222 37.9615 35.3515C37.9931 35.2808 38.075 35.2492 38.1457 35.2808C38.5364 35.4548 38.9122 35.4064 38.9159 35.4055C38.9922 35.3943 39.0629 35.4483 39.0731 35.5245C39.0833 35.6008 39.0313 35.6715 38.955 35.6818C38.9485 35.6818 38.8833 35.691 38.7819 35.691V35.692Z" fill="#231F20"/>
<path d="M33.7433 44.2418C33.7433 44.2418 33.7405 44.2418 33.7396 44.2418C33.3238 44.2298 32.9015 44.2018 32.4838 44.1572C30.0401 43.8986 28.241 42.559 27.1387 40.1758C26.2661 38.2902 25.8391 35.7869 25.8708 32.7376C25.8708 32.6614 25.934 32.6 26.0103 32.6H26.0122C26.0894 32.6 26.1508 32.6642 26.1498 32.7414C26.0615 41.3823 29.561 43.5683 32.5136 43.8809C32.9238 43.9246 33.3387 43.9525 33.748 43.9637C33.8252 43.9656 33.8857 44.0297 33.8838 44.1069C33.8819 44.1823 33.8196 44.2428 33.7443 44.2428L33.7433 44.2418Z" fill="#231F20"/>
<path d="M34.1701 44.2483C34.0277 44.2483 33.8845 44.2464 33.7394 44.2418C33.6622 44.2399 33.6017 44.1757 33.6036 44.0985C33.6054 44.0213 33.6724 43.9571 33.7468 43.9627C37.7208 44.0753 40.4836 42.5785 42.1003 41.3023C43.8547 39.9171 44.6789 38.4855 44.6873 38.4716C44.7254 38.4046 44.8101 38.3813 44.877 38.4195C44.944 38.4576 44.9673 38.5423 44.9291 38.6092C44.8947 38.6697 44.0761 40.0948 42.2817 41.5134C40.6863 42.7748 38.0026 44.2474 34.1682 44.2474L34.1701 44.2483Z" fill="#231F20"/>
<path d="M26.9945 25.0809C26.9824 25.0809 26.9703 25.079 26.9582 25.0763C26.8838 25.0558 26.84 24.9795 26.8605 24.9051C27.0949 24.04 27.3935 23.2195 27.747 22.4651C27.7796 22.3953 27.8633 22.3646 27.9331 22.3981C28.0028 22.4307 28.0326 22.5144 28 22.5842C27.6531 23.3237 27.361 24.1293 27.1303 24.9786C27.1135 25.0409 27.0568 25.0818 26.9954 25.0818L26.9945 25.0809Z" fill="#231F20"/>
<path d="M26.9428 25.279C26.9316 25.279 26.9195 25.2771 26.9074 25.2743C26.833 25.2548 26.7883 25.1785 26.807 25.1041L26.82 25.052C26.833 25.0027 26.8451 24.9534 26.859 24.9041C26.8795 24.8297 26.9567 24.786 27.0302 24.8064C27.1046 24.8269 27.1483 24.9032 27.1279 24.9776C27.1149 25.026 27.1028 25.0734 27.0897 25.1218L27.0767 25.1739C27.0609 25.2371 27.0042 25.2781 26.9418 25.2781L26.9428 25.279Z" fill="#231F20"/>
<path d="M49.0357 47.8037C48.9613 47.8037 48.899 47.7442 48.8962 47.6688L48.8692 46.9321C48.8664 46.8549 48.9269 46.7907 49.0032 46.7879C49.0795 46.7842 49.1446 46.8455 49.1474 46.9218L49.1743 47.6586C49.1771 47.7358 49.1167 47.8 49.0404 47.8028C49.0385 47.8028 49.0367 47.8028 49.0348 47.8028L49.0357 47.8037Z" fill="#231F20"/>
<path d="M48.9889 46.5208C48.9145 46.5208 48.8522 46.4613 48.8494 46.3859L48.6466 40.8511C48.6438 40.7738 48.7043 40.7097 48.7805 40.7069C48.854 40.7013 48.9219 40.7646 48.9247 40.8408L49.1275 46.3757C49.1303 46.4529 49.0698 46.5171 48.9936 46.5199C48.9917 46.5199 48.9898 46.5199 48.988 46.5199L48.9889 46.5208Z" fill="#231F20"/>
<path d="M49.0088 47.067C48.9344 47.067 48.872 47.0074 48.8692 46.9321L48.8497 46.386C48.8469 46.3088 48.9074 46.2447 48.9837 46.2419C49.0599 46.2381 49.125 46.2995 49.1278 46.3758L49.1474 46.9218C49.1502 46.9991 49.0897 47.0632 49.0134 47.066C49.0116 47.066 49.0097 47.066 49.0078 47.066L49.0088 47.067Z" fill="#231F20"/>
<path d="M20.1943 92.093H-6.46984C-6.54705 92.093 -6.60938 92.0306 -6.60938 91.9534V81.253C-6.60938 81.2232 -6.60007 81.1934 -6.58147 81.1692L10.7395 57.892C11.812 56.4502 13.3804 55.5013 15.1553 55.2204L31.6864 52.8651C31.7627 52.8548 31.8334 52.9069 31.8446 52.9832C31.8557 53.0595 31.8027 53.1302 31.7264 53.1413L15.1971 55.4967C13.4976 55.7655 11.9934 56.6753 10.9636 58.0585L-6.33031 81.2985V91.813H20.1943C20.2716 91.813 20.3339 91.8753 20.3339 91.9525C20.3339 92.0297 20.2716 92.0921 20.1943 92.0921V92.093Z" fill="#231F20"/>
<path d="M84.4166 92.093H20.1942C20.117 92.093 20.0547 92.0307 20.0547 91.9535C20.0547 91.8763 20.117 91.814 20.1942 91.814H84.277L84.2677 76.2698L71.997 58.2558C70.9821 56.7674 69.3812 55.7526 67.6035 55.4716L51.3738 53.16C51.2975 53.1488 51.2445 53.0781 51.2556 53.0019C51.2668 52.9256 51.3365 52.8735 51.4138 52.8837L67.6454 55.1954C69.5012 55.4884 71.17 56.547 72.2286 58.0986L84.5235 76.1479C84.5393 76.1712 84.5477 76.1982 84.5477 76.2261L84.557 91.9526C84.557 91.9898 84.5421 92.0251 84.5161 92.0512C84.49 92.0772 84.4547 92.0921 84.4175 92.0921L84.4166 92.093Z" fill="#231F20"/>
<path d="M33.7431 48.012C33.6658 48.012 33.6035 47.9497 33.6035 47.8725V47.0985C33.6035 47.0213 33.6658 46.959 33.7431 46.959C33.8203 46.959 33.8826 47.0213 33.8826 47.0985V47.8725C33.8826 47.9497 33.8203 48.012 33.7431 48.012Z" fill="#231F20"/>
<path d="M33.7431 47.2381C33.6658 47.2381 33.6035 47.1758 33.6035 47.0985V46.4911C33.6035 46.4139 33.6658 46.3516 33.7431 46.3516C33.8203 46.3516 33.8826 46.4139 33.8826 46.4911V47.0985C33.8826 47.1758 33.8203 47.2381 33.7431 47.2381Z" fill="#231F20"/>
<path d="M33.7431 44.2409C33.6658 44.2409 33.6035 44.1795 33.6035 44.1023V44.0995C33.6035 44.0223 33.6658 43.96 33.7431 43.96C33.8203 43.96 33.8826 44.0223 33.8826 44.0995C33.8826 44.1767 33.8203 44.24 33.7431 44.24V44.2409Z" fill="#231F20"/>
<path d="M33.7431 46.6307C33.6658 46.6307 33.6035 46.5683 33.6035 46.4911V44.1023C33.6035 44.0251 33.6658 43.9628 33.7431 43.9628C33.8203 43.9628 33.8826 44.0251 33.8826 44.1023V46.4911C33.8826 46.5683 33.8203 46.6307 33.7431 46.6307Z" fill="#231F20"/>
<path d="M46.97 30.4083C46.8398 30.4083 46.7096 30.4009 46.5803 30.386C46.0258 30.3209 45.6584 30.1432 45.4891 29.8558C45.3477 29.6176 45.3505 29.3162 45.4947 28.9618C45.5235 28.8902 45.6054 28.8558 45.677 28.8855C45.7486 28.9144 45.783 28.9962 45.7533 29.0679C45.6435 29.3376 45.6351 29.5553 45.7291 29.7144C45.8826 29.9739 46.2937 30.0725 46.6128 30.1097C47.2537 30.1851 47.9142 30.0558 48.5235 29.7386C49.0007 29.4893 49.4268 29.1786 49.7877 28.8148C49.8417 28.76 49.931 28.76 49.9849 28.8148C50.0398 28.8688 50.0398 28.9572 49.9849 29.012C49.6026 29.3962 49.1542 29.7237 48.6519 29.986C48.1151 30.266 47.5403 30.4093 46.97 30.4093V30.4083Z" fill="#231F20"/>
<path d="M45.6225 29.1534C45.6049 29.1534 45.5872 29.1496 45.5695 29.1431C45.4979 29.1143 45.4644 29.0324 45.4932 28.9608C45.63 28.6259 45.8997 28.2324 46.2979 27.785C45.6551 28.0389 45.2039 28.0696 44.9518 27.8761C44.7481 27.7189 44.6895 27.4362 44.7788 27.0334C44.9109 26.4371 45.177 25.7487 45.5714 24.9822C45.0616 25.1785 44.1025 25.4548 43.4216 25.0938C43.1816 24.9664 43.029 24.7692 42.9686 24.5068C42.8765 24.1059 43.0188 23.5608 43.3528 22.9962C42.8179 23.1599 42.0402 23.252 41.1807 22.878C41.1695 22.8734 41.1593 22.8669 41.15 22.8594C40.8616 22.6324 40.5072 22.0761 40.7295 21.3171C40.2895 21.6538 39.6263 22.012 38.7751 22.0436C37.9602 22.0734 37.6011 21.5236 37.4886 21.1013C37.0114 21.3841 35.6495 22.0799 34.1091 21.8771C32.9221 21.7208 32.3584 20.9301 32.1491 20.5403C31.8514 20.8873 31.1304 21.5934 30.3156 21.4427C30.1351 21.4092 29.9686 21.3338 29.8235 21.2213C29.7611 21.7375 29.5295 22.6417 28.6821 22.8017C28.3956 22.8557 28.0849 22.7999 27.8058 22.6427C27.7388 22.6054 27.7146 22.5199 27.7518 22.4529C27.7891 22.3859 27.8746 22.3617 27.9416 22.3989C28.1639 22.5227 28.4086 22.5682 28.63 22.5273C29.497 22.3636 29.563 21.1459 29.5667 20.9031C29.5677 20.8436 29.6058 20.7915 29.6625 20.7729C29.7184 20.7543 29.7807 20.7729 29.817 20.8203C29.963 21.0101 30.1472 21.1273 30.3658 21.1673C31.243 21.3292 32.0579 20.2073 32.0663 20.1952C32.096 20.1534 32.1472 20.132 32.1984 20.1385C32.2495 20.1459 32.2932 20.1803 32.3109 20.2287C32.3286 20.2771 32.7639 21.4166 34.1453 21.598C35.9184 21.8324 37.4942 20.7664 37.51 20.7561C37.5509 20.7282 37.6039 20.7236 37.6486 20.745C37.6932 20.7664 37.7239 20.8101 37.7277 20.8594C37.7314 20.8975 37.8225 21.7934 38.7649 21.7627C40.2328 21.7087 41.1165 20.5608 41.1249 20.5496C41.1714 20.4882 41.2579 20.4762 41.3193 20.5217C41.3807 20.5673 41.3937 20.6548 41.3481 20.7162C40.5072 21.8575 41.2002 22.532 41.31 22.6269C42.2709 23.038 43.1128 22.8296 43.6504 22.5813C43.7081 22.5543 43.777 22.5701 43.817 22.6194C43.857 22.6687 43.8588 22.7385 43.8216 22.7906C43.3714 23.4055 43.149 24.038 43.2421 24.4408C43.2839 24.6231 43.3863 24.7543 43.5537 24.8436C44.3286 25.2538 45.6216 24.6631 45.7807 24.5869C45.7863 24.5822 45.7909 24.5775 45.7965 24.5729C45.8458 24.5236 45.9239 24.518 45.9788 24.5599C46.0346 24.6017 46.0504 24.678 46.017 24.7385C45.5258 25.6324 45.2011 26.4241 45.0532 27.0901C45.0095 27.2873 44.9863 27.545 45.1239 27.651C45.3491 27.8241 45.9928 27.6641 46.8449 27.2213C46.9063 27.1896 46.9816 27.2073 47.0216 27.2631C47.0625 27.319 47.056 27.3962 47.0067 27.4445C46.3491 28.091 45.9277 28.6343 45.7528 29.0622C45.7304 29.1161 45.6784 29.1487 45.6235 29.1487L45.6225 29.1534Z" fill="#231F20"/>
<path d="M27.3215 22.0809C27.2703 22.0809 27.221 22.0521 27.1959 22.0037C27.0368 21.6818 26.9875 21.2958 27.0545 20.8883C27.0666 20.8121 27.1391 20.76 27.2145 20.773C27.2908 20.7851 27.3419 20.8576 27.3298 20.933C27.2722 21.2883 27.3112 21.6065 27.4461 21.88C27.4805 21.9488 27.4517 22.0325 27.3829 22.0669C27.3633 22.0772 27.3419 22.0818 27.3215 22.0818V22.0809Z" fill="#231F20"/>
<path d="M27.8725 22.6631C27.8492 22.6631 27.826 22.6576 27.8046 22.6455C27.5422 22.4985 27.3311 22.2762 27.1962 22.0027C27.1618 21.9338 27.1906 21.8501 27.2594 21.8157C27.3283 21.7813 27.412 21.8101 27.4464 21.879C27.5571 22.1013 27.7274 22.2827 27.9413 22.4018C28.0083 22.439 28.0325 22.5245 27.9953 22.5915C27.9701 22.6371 27.9227 22.6631 27.8734 22.6631H27.8725Z" fill="#231F20"/>
<path d="M26.9936 25.0808C26.921 25.0808 26.8596 25.0241 26.854 24.9506C26.7657 23.6166 26.9861 22.5562 27.1861 21.9013C27.2085 21.8278 27.2866 21.7859 27.3601 21.8083C27.4336 21.8306 27.4754 21.9087 27.4531 21.9822C27.295 22.5004 27.0429 23.572 27.1322 24.932C27.1368 25.0092 27.0792 25.0752 27.002 25.0808C26.9992 25.0808 26.9954 25.0808 26.9927 25.0808H26.9936Z" fill="#231F20"/>
<path d="M26.9953 25.0846C26.9181 25.0846 26.8557 25.0223 26.8557 24.9451C26.8511 24.8679 26.9088 24.8047 26.986 24.7991C27.065 24.7944 27.1292 24.8549 27.1348 24.9312C27.1348 24.934 27.1348 24.9414 27.1348 24.9442C27.1348 25.0214 27.0725 25.0837 26.9953 25.0837V25.0846Z" fill="#231F20"/>
<path d="M47.3193 20.7209C47.2598 20.7209 47.2049 20.6828 47.1863 20.6223C47.1342 20.453 47.0793 20.2912 47.0244 20.1405C46.9974 20.0679 47.0347 19.9879 47.1072 19.9609C47.1798 19.934 47.2598 19.9712 47.2867 20.0437C47.3444 20.1991 47.4002 20.3656 47.4542 20.5395C47.4765 20.613 47.4356 20.6912 47.3621 20.7144C47.3481 20.7181 47.3342 20.7209 47.3212 20.7209H47.3193Z" fill="#231F20"/>
<path d="M49.8853 29.0521C49.85 29.0521 49.8137 29.0382 49.7867 29.0112C49.7318 28.9572 49.7318 28.8688 49.7867 28.814C50.6025 27.9935 51.1979 26.6586 50.7355 25.9312C50.5067 25.5712 50.0435 25.4939 49.4295 25.7135C49.3681 25.7358 49.2993 25.7116 49.2649 25.6568C49.2295 25.6019 49.2379 25.5293 49.2844 25.4837C50.5346 24.2326 50.1141 23.4465 49.3839 22.4726C49.0425 22.0177 48.5858 21.9684 47.9886 22.32C47.9374 22.3507 47.8723 22.3442 47.8267 22.3051C47.7811 22.2661 47.7662 22.2028 47.7886 22.147C47.9681 21.7033 47.9281 21.386 47.6686 21.1786C47.5886 21.1153 47.4928 21.0679 47.3746 21.0344C47.3272 21.0214 47.2909 20.9842 47.2779 20.9368C47.249 20.8298 47.2183 20.7246 47.1858 20.6214C47.1635 20.5479 47.2044 20.4698 47.2779 20.4465C47.3523 20.4242 47.4295 20.4651 47.4528 20.5386C47.4779 20.6214 47.503 20.7042 47.5262 20.7888C47.6472 20.8307 47.7532 20.8884 47.8435 20.9591C48.0518 21.1256 48.2528 21.4223 48.1476 21.9265C48.7383 21.6837 49.2388 21.8112 49.6072 22.3023C50.2788 23.1981 50.7904 24.107 49.7979 25.3302C50.3216 25.254 50.7365 25.4084 50.9718 25.7795C51.5141 26.6344 50.8965 28.093 49.9848 29.0084C49.9579 29.0354 49.9216 29.0493 49.8862 29.0493L49.8853 29.0521Z" fill="#231F20"/>
<path d="M47.1556 20.2316C47.0988 20.2316 47.0458 20.1963 47.0244 20.1405C46.11 17.6605 44.323 16.1256 41.3993 15.3116C40.1435 14.9619 38.844 14.8372 37.537 14.9395C37.4616 14.9442 37.3928 14.8884 37.3872 14.8111C37.3807 14.7339 37.4384 14.667 37.5156 14.6614C38.8551 14.5553 40.1872 14.6837 41.4747 15.0428C44.4914 15.8837 46.3388 17.4725 47.2868 20.0446C47.3137 20.1172 47.2765 20.1972 47.204 20.2242C47.1881 20.2297 47.1714 20.2325 47.1556 20.2325V20.2316Z" fill="#231F20"/>
<path d="M36.8247 15.0167C36.7558 15.0167 36.6963 14.9664 36.687 14.8967C36.6758 14.8204 36.7298 14.7497 36.8061 14.7395C37.0442 14.706 37.2824 14.6799 37.5149 14.6623C37.5903 14.6576 37.6591 14.7134 37.6647 14.7906C37.6712 14.8678 37.6135 14.9348 37.5363 14.9404C37.3093 14.9581 37.0768 14.9841 36.8442 15.0167C36.8377 15.0167 36.8312 15.0176 36.8247 15.0176V15.0167Z" fill="#231F20"/>
<path d="M33.4424 15.9935C33.3885 15.9935 33.3383 15.9628 33.315 15.9107C33.2834 15.84 33.315 15.7581 33.3857 15.7265C34.1913 15.3693 35.0266 15.093 35.8704 14.9079C35.9457 14.8912 36.0201 14.9386 36.0369 15.0139C36.0536 15.0893 36.0062 15.1637 35.9308 15.1805C35.1057 15.3618 34.288 15.6316 33.5001 15.9814C33.4815 15.9898 33.4629 15.9935 33.4434 15.9935H33.4424Z" fill="#231F20"/>
<path d="M35.8989 15.1832C35.8348 15.1832 35.7771 15.1385 35.7631 15.0734C35.7464 14.9981 35.7938 14.9236 35.8692 14.9069C36.1789 14.839 36.4943 14.7822 36.8068 14.7385C36.8831 14.7274 36.9538 14.7813 36.9641 14.8576C36.9743 14.9339 36.9213 15.0046 36.845 15.0148C36.5399 15.0576 36.232 15.1125 35.9296 15.1795C35.9194 15.1813 35.9092 15.1832 35.8999 15.1832H35.8989Z" fill="#231F20"/>
<path d="M27.1922 21.0501C27.1847 21.0501 27.1773 21.0501 27.1699 21.0483C27.0936 21.0362 27.0424 20.9636 27.0545 20.8883C27.1299 20.4287 27.3466 19.9394 27.7001 19.4352C28.0712 18.905 28.4126 18.6641 28.7419 18.6976C28.9373 18.7171 29.114 18.8343 29.2694 19.0473C29.4294 18.145 29.9196 17.3143 30.6312 16.7692C31.0675 16.4334 31.4443 16.4967 31.7038 16.6325C32.0145 16.4287 32.595 16.079 33.3847 15.7274C33.4545 15.6957 33.5373 15.7274 33.5689 15.7981C33.6005 15.8688 33.5689 15.9506 33.4982 15.9822C32.661 16.3543 32.0666 16.7246 31.7866 16.9115C31.741 16.9422 31.6805 16.9432 31.634 16.9134C31.3643 16.7422 31.0917 16.7673 30.8015 16.9897C29.9047 17.678 29.5401 18.7376 29.4982 19.5004C29.4945 19.5645 29.4471 19.6185 29.3838 19.6297C29.3196 19.6408 29.2573 19.6073 29.2312 19.5478C29.1233 19.2994 28.9466 18.998 28.7159 18.9748C28.5019 18.9525 28.2294 19.1673 27.9308 19.5952C27.6015 20.065 27.3996 20.5153 27.3317 20.9339C27.3205 21.0027 27.261 21.0511 27.194 21.0511L27.1922 21.0501Z" fill="#231F20"/>
<path d="M52.3188 19.4065C51.8323 19.4065 51.3588 19.2985 51.0276 19.199C50.9541 19.1767 50.9113 19.0995 50.9337 19.0251C50.956 18.9516 51.0341 18.9088 51.1076 18.9311C51.4723 19.0399 52.0164 19.1609 52.542 19.1181C52.6202 19.1125 52.6862 19.1692 52.6927 19.2455C52.6992 19.3227 52.6416 19.3897 52.5653 19.3962C52.4834 19.4027 52.4016 19.4055 52.3197 19.4055L52.3188 19.4065Z" fill="#231F20"/>
<path d="M36.8256 15.0167C36.7819 15.0167 36.7391 14.9962 36.7121 14.9581C36.3149 14.4009 36.3884 13.5711 36.887 12.986C36.9754 12.8827 37.0879 12.8139 37.2042 12.7664C36.8349 12.5664 36.4768 12.2688 36.3809 11.839C36.327 11.599 36.3661 11.3702 36.4963 11.1581C36.5056 11.1423 36.7447 10.8799 36.9372 10.7441C36.7958 10.4092 36.4628 9.47342 36.8088 8.73295C36.9912 8.34225 37.3307 8.06692 37.8191 7.91436C37.6079 7.50785 37.1279 6.42599 37.6079 5.80088C37.9921 5.30041 38.8833 5.23529 40.2572 5.60738C40.4079 5.27808 40.8907 4.36832 41.6274 4.31251C42.1047 4.27809 42.5791 4.6046 43.0386 5.29018C43.2098 4.68367 43.6758 3.93018 44.6516 4.00646C45.4312 4.06692 46.0944 4.65761 46.2637 5.44366C46.2693 5.46878 46.274 5.49483 46.2786 5.51995C46.713 4.9739 47.713 3.96738 49.0647 4.16366C49.6386 4.24738 50.1512 4.57668 50.4721 5.06691C50.7865 5.54877 50.8814 6.13669 50.7316 6.68181C50.6963 6.81111 50.6498 6.93203 50.5921 7.04366C50.9251 6.92366 51.4088 6.77576 51.9344 6.70227C52.714 6.59343 53.4823 6.9283 53.9391 7.57482C53.9837 7.63807 53.9688 7.72459 53.9056 7.76924C53.8423 7.81389 53.7558 7.799 53.7112 7.73574C53.3084 7.16644 52.6591 6.88273 51.9726 6.97854C51.0684 7.10413 50.2656 7.47528 50.2572 7.479C50.1958 7.50784 50.1223 7.4883 50.0842 7.43249C50.0451 7.37667 50.0516 7.30133 50.1 7.25389C50.2693 7.08459 50.3912 6.86692 50.4628 6.60738C50.5912 6.14041 50.5093 5.63437 50.2386 5.21948C49.9614 4.7953 49.5195 4.51156 49.0247 4.43901C47.407 4.20273 46.2898 5.97761 46.2786 5.99621C46.2442 6.0511 46.1763 6.0753 46.1149 6.05483C46.0535 6.03437 46.0144 5.97296 46.0209 5.90878C46.033 5.78785 46.0228 5.65109 45.9902 5.50225C45.8461 4.83621 45.287 4.33576 44.6293 4.2846C43.4256 4.19436 43.2507 5.61762 43.2442 5.67808C43.2377 5.73762 43.193 5.78692 43.1344 5.79902C43.0758 5.81111 43.0154 5.78504 42.9847 5.73295C42.5251 4.94225 42.0749 4.55809 41.6479 4.59065C40.9391 4.6446 40.4712 5.81297 40.4665 5.82507C40.4405 5.89204 40.3679 5.92738 40.2991 5.90785C38.9986 5.53947 38.1437 5.56086 37.8302 5.97016C37.4386 6.47993 37.9261 7.55715 38.1475 7.92924C38.1698 7.96738 38.1735 8.0139 38.1558 8.05483C38.1381 8.09576 38.1028 8.12552 38.06 8.13668C37.5642 8.25575 37.2293 8.49574 37.0637 8.85016C36.7 9.62877 37.2395 10.733 37.2451 10.7432C37.2795 10.812 37.2516 10.8958 37.1828 10.9302C37.167 10.9376 37.1502 10.9423 37.1344 10.9441C37.0414 11.0055 36.7763 11.2502 36.7326 11.3088C36.6442 11.453 36.6172 11.6083 36.6554 11.7776C36.7558 12.2241 37.2563 12.5088 37.6581 12.6678C37.7149 12.6902 37.7512 12.7478 37.7456 12.8092C37.74 12.8706 37.6954 12.9209 37.6358 12.9339C37.4116 12.9823 37.2163 13.0325 37.1019 13.1665C36.6916 13.6483 36.6228 14.3478 36.9419 14.7953C36.9865 14.8576 36.9726 14.945 36.9093 14.9897C36.8851 15.0074 36.8563 15.0157 36.8284 15.0157L36.8256 15.0167Z" fill="#231F20"/>
<path d="M54.1243 9.36174C54.1122 9.36174 54.1011 9.3599 54.089 9.35711C54.0145 9.33757 53.9699 9.26129 53.9894 9.18687C54.1187 8.69756 54.0173 8.16918 53.7113 7.73663C53.6666 7.67337 53.6815 7.58687 53.7448 7.54222C53.808 7.49757 53.8945 7.51244 53.9392 7.5757C54.2927 8.07616 54.4099 8.68919 54.2592 9.2585C54.2424 9.32082 54.1866 9.36267 54.1243 9.36267V9.36174Z" fill="#231F20"/>
<path d="M52.5532 19.3971C52.4815 19.3971 52.4201 19.3422 52.4146 19.2687C52.4081 19.1915 52.4657 19.1246 52.542 19.1181C52.9941 19.0808 53.356 18.9292 53.6155 18.666C53.8555 18.4232 53.9643 18.1515 53.9467 17.8371C53.8936 16.8939 52.715 15.9311 52.7039 15.9218C52.6527 15.8799 52.6369 15.8083 52.6676 15.7497C52.6974 15.6911 52.7643 15.6613 52.8285 15.6781C52.8388 15.6808 53.848 15.9404 54.5457 15.3636C54.7978 15.1553 54.9225 14.9181 54.9262 14.639C54.9374 13.8864 54.0629 13.1078 54.0536 13.1004C54.022 13.0725 54.0043 13.0315 54.0062 12.9887C54.0081 12.946 54.0294 12.9069 54.0639 12.8827C54.8611 12.3069 55.2239 11.7813 55.1429 11.3218C55.0062 10.5441 53.6536 10.1516 53.6406 10.1478C53.5913 10.1339 53.5541 10.0939 53.5429 10.0446C53.5318 9.99433 53.5485 9.94317 53.5876 9.90875C53.6518 9.85294 53.715 9.77387 53.7774 9.67527C53.8741 9.52085 53.9457 9.3562 53.9904 9.18689C54.0099 9.11247 54.0862 9.06782 54.1606 9.08735C54.235 9.10689 54.2797 9.18317 54.2601 9.25759C54.2081 9.4548 54.1253 9.64458 54.0136 9.82318C53.9857 9.86876 53.956 9.91061 53.9271 9.94875C54.3532 10.105 55.288 10.5292 55.4192 11.2734C55.515 11.8185 55.1597 12.4018 54.3634 13.0092C54.6276 13.2743 55.2164 13.9441 55.2062 14.6436C55.2006 15.0055 55.0388 15.3199 54.7243 15.5804C54.2322 15.9869 53.6285 16.0399 53.2201 16.0167C53.6062 16.4027 54.1857 17.0985 54.2267 17.8222C54.249 18.2148 54.1104 18.5655 53.8155 18.8641C53.5067 19.1757 53.0862 19.3553 52.5662 19.3981C52.5625 19.3981 52.5588 19.3981 52.555 19.3981L52.5532 19.3971Z" fill="#231F20"/>
<path d="M49.1718 21.0521C48.6583 21.0521 48.0276 20.9395 47.2807 20.7144C47.2072 20.6921 47.1653 20.6139 47.1876 20.5404C47.21 20.467 47.2881 20.4251 47.3616 20.4474C48.8351 20.8911 49.8379 20.8809 50.2621 20.4176C50.7439 19.8921 50.3625 18.9181 50.3588 18.9088C50.3374 18.8558 50.3504 18.7953 50.3923 18.7562C50.4332 18.7172 50.4946 18.707 50.5458 18.7302C50.5476 18.7311 50.7746 18.8325 51.1076 18.9321C51.1811 18.9544 51.2239 19.0316 51.2016 19.106C51.1793 19.1795 51.1011 19.2223 51.0277 19.2C50.9049 19.1637 50.797 19.1265 50.7077 19.0949C50.8025 19.4753 50.8863 20.1488 50.4676 20.6065C50.196 20.9042 49.7625 21.053 49.1718 21.053V21.0521Z" fill="#231F20"/>
<path d="M47.1555 20.2316C47.0792 20.2316 47.0169 20.1702 47.016 20.0939C46.9815 16.7776 45.5983 14.5423 43.1211 13.799C40.9304 13.1423 38.3332 13.8529 37.642 14.8781C37.5992 14.9423 37.5118 14.959 37.4485 14.9162C37.3843 14.8734 37.3676 14.786 37.4104 14.7227C38.1694 13.5971 40.8634 12.8316 43.2011 13.532C44.3899 13.8883 45.3453 14.5664 46.0401 15.5469C46.8532 16.6939 47.2746 18.2223 47.2941 20.0911C47.2941 20.1683 47.2327 20.2316 47.1564 20.2325H47.1546L47.1555 20.2316Z" fill="#231F20"/>
<path d="M26.0096 32.879C25.9873 32.879 25.964 32.8735 25.9426 32.8623C24.7063 32.1842 23.9082 30.7098 23.9082 29.1042C23.9082 27.0567 25.2031 25.2939 26.9203 25.0028C26.9966 24.9907 27.0682 25.0409 27.0812 25.1172C27.0943 25.1935 27.0431 25.2651 26.9668 25.2781C25.3817 25.547 24.1873 27.1916 24.1873 29.1042C24.1873 30.6093 24.9287 31.9888 26.0766 32.6176C26.1445 32.6549 26.1687 32.7395 26.1315 32.8074C26.1063 32.8539 26.058 32.88 26.0087 32.88L26.0096 32.879Z" fill="#231F20"/>
<path d="M30.802 29.2427C30.7248 29.2427 30.6624 29.1804 30.6624 29.1032C30.6624 26.972 29.2094 25.2381 27.4243 25.2381C27.2745 25.2381 27.1201 25.2511 26.9657 25.2771C26.8894 25.2892 26.8178 25.239 26.8048 25.1627C26.7917 25.0864 26.8429 25.0148 26.9192 25.0018C27.0885 24.9729 27.2587 24.959 27.4243 24.959C29.3638 24.959 30.9415 26.8185 30.9415 29.1032C30.9415 29.1804 30.8792 29.2427 30.802 29.2427Z" fill="#231F20"/>
<path d="M27.4243 33.2473C26.908 33.2473 26.4084 33.1171 25.9415 32.8613C25.8736 32.8241 25.8494 32.7394 25.8866 32.6715C25.9238 32.6036 26.0084 32.5794 26.0763 32.6166C26.5024 32.8501 26.9554 32.9683 27.4252 32.9683C29.2103 32.9683 30.6633 31.2343 30.6633 29.1032C30.6633 29.0259 30.7257 28.9636 30.8029 28.9636C30.8801 28.9636 30.9424 29.0259 30.9424 29.1032C30.9424 31.3887 29.3647 33.2473 27.4252 33.2473H27.4243Z" fill="#231F20"/>
<path d="M36.87 33.2474C34.8579 33.2474 33.2207 31.3246 33.2207 28.9619C33.2207 26.5991 34.8579 24.6763 36.87 24.6763C38.8821 24.6763 40.5193 26.5991 40.5193 28.9619C40.5193 28.9916 40.5193 29.0214 40.5174 29.0512V29.0884C40.4598 31.4204 38.8579 33.2474 36.8709 33.2474H36.87ZM36.87 24.9553C35.0114 24.9553 33.4998 26.7526 33.4998 28.9619C33.4998 31.1712 35.0114 32.9684 36.87 32.9684C38.7286 32.9684 40.1835 31.2614 40.2374 29.0809V29.0428C40.2393 29.0158 40.2402 28.9888 40.2402 28.9619C40.2402 26.7526 38.7286 24.9553 36.87 24.9553Z" fill="#231F20"/>
<path d="M33.3608 29.2428C33.3283 29.2428 33.2967 29.2316 33.2697 29.2093C32.0883 28.1953 30.9422 29.1665 30.8939 29.2093C30.8353 29.2595 30.7478 29.2539 30.6967 29.1953C30.6455 29.1367 30.652 29.0493 30.7106 28.9981C30.7246 28.986 32.0892 27.8288 33.4511 28.9981C33.5097 29.0483 33.5162 29.1367 33.466 29.1953C33.438 29.2279 33.399 29.2437 33.3599 29.2437L33.3608 29.2428Z" fill="#231F20"/>
<path d="M40.3563 29.225C40.2801 29.225 40.2177 29.1636 40.2168 29.0873C40.2159 29.0101 40.2773 28.9469 40.3545 28.9459H40.3749C40.3749 28.9459 40.3759 28.9459 40.3768 28.9459C40.4531 28.9459 40.5154 29.0073 40.5163 29.0836C40.5173 29.1608 40.4559 29.2241 40.3787 29.225H40.3582C40.3582 29.225 40.3573 29.225 40.3563 29.225Z" fill="#231F20"/>
<path d="M40.3778 29.2241C40.3015 29.2241 40.2392 29.1627 40.2383 29.0864C40.2374 29.0092 40.2988 28.946 40.376 28.945L45.6215 28.8734H45.6234C45.6997 28.8734 45.762 28.9348 45.7629 29.0111C45.7639 29.0883 45.7025 29.1516 45.6253 29.1525L40.3797 29.2241H40.3778Z" fill="#231F20"/>
<path d="M33.4216 15.2279C33.3398 15.2279 33.2579 15.2213 33.177 15.2074C33.1007 15.1953 33.0495 15.1227 33.0626 15.0474C33.0747 14.9711 33.1472 14.92 33.2226 14.933C33.4309 14.9674 33.6468 14.9469 33.8458 14.8734C33.8998 14.853 33.9547 14.8288 34.0114 14.8037C34.1528 14.7404 34.2979 14.6753 34.4663 14.6651C34.6486 14.6548 34.8151 14.7097 34.9751 14.7637C35.0086 14.7748 35.0421 14.786 35.0756 14.7972C35.3388 14.88 35.6133 14.9162 35.8942 14.9051C35.9733 14.9013 36.0365 14.9618 36.0393 15.039C36.0421 15.1162 35.9826 15.1813 35.9054 15.1841C35.5937 15.1962 35.2849 15.1562 34.9919 15.0632C34.9565 15.052 34.9212 15.04 34.8858 15.0279C34.7454 14.9804 34.6114 14.9348 34.484 14.9432C34.3668 14.9506 34.2495 15.0027 34.1258 15.0585C34.0672 15.0846 34.0058 15.1125 33.9426 15.1358C33.7761 15.1972 33.5993 15.2288 33.4226 15.2288L33.4216 15.2279Z" fill="#231F20"/>
<path d="M31.331 16.1581C31.2901 16.1581 31.2491 16.1395 31.2212 16.1051C31.1738 16.0446 31.184 15.9572 31.2445 15.9088C31.6398 15.5972 32.2621 15.6447 32.811 15.6856C32.9794 15.6986 33.1384 15.7107 33.2789 15.7107C33.3077 15.7107 33.3366 15.7107 33.3663 15.7116H33.4445C33.5217 15.7135 33.5831 15.7767 33.5831 15.8539C33.5831 15.9302 33.5198 15.9925 33.4435 15.9925H33.3617C33.3338 15.9907 33.3059 15.9907 33.278 15.9898C33.1282 15.9898 32.9645 15.9767 32.7905 15.9637C32.2928 15.9256 31.7282 15.8837 31.4175 16.1274C31.3924 16.1479 31.3617 16.1572 31.331 16.1572V16.1581Z" fill="#231F20"/>
<path d="M55.6711 9.19527C55.6478 9.19527 55.6236 9.18967 55.6013 9.17665C55.4645 9.09758 55.2971 9.06504 55.1194 9.03062C54.8515 8.97853 54.5752 8.92457 54.3799 8.70317C54.2608 8.56736 54.2059 8.40456 54.1538 8.24735C54.1418 8.21014 54.1297 8.17387 54.1166 8.13759C54.0469 7.94596 53.9576 7.83155 53.8497 7.79713C53.8357 7.79248 53.8208 7.78968 53.805 7.78782C53.7287 7.77945 53.6729 7.71062 53.6804 7.63434C53.6887 7.55806 53.7594 7.50317 53.8338 7.50968C53.8683 7.5134 53.9018 7.51991 53.9334 7.53014C54.1278 7.59154 54.2776 7.76363 54.378 8.04177C54.392 8.07991 54.405 8.11898 54.418 8.15805C54.4636 8.29479 54.5064 8.42411 54.5883 8.51713C54.7204 8.6669 54.9399 8.70969 55.1715 8.75527C55.3641 8.79248 55.5631 8.83155 55.7399 8.93387C55.8069 8.97201 55.8292 9.0576 55.7911 9.12457C55.765 9.16922 55.7185 9.19434 55.6701 9.19434L55.6711 9.19527Z" fill="#231F20"/>
<path d="M55.1237 10.3022C55.1144 10.3022 55.1041 10.3022 55.0948 10.2994C54.7916 10.2362 54.479 10.1534 54.2948 9.8985C54.2213 9.7971 54.1813 9.68548 54.1432 9.57757C54.1078 9.47804 54.0744 9.38501 54.0185 9.31431C53.9683 9.2557 53.9739 9.16734 54.0325 9.11711C54.0902 9.06688 54.1767 9.07245 54.2269 9.12919C54.2297 9.13198 54.2344 9.13664 54.2353 9.13851C54.3218 9.24734 54.3646 9.36734 54.4055 9.48362C54.439 9.57664 54.4697 9.66501 54.5199 9.73384C54.6455 9.9078 54.8902 9.97107 55.1506 10.025C55.226 10.0408 55.2744 10.1143 55.2585 10.1897C55.2446 10.2557 55.1869 10.3004 55.1218 10.3004L55.1237 10.3022Z" fill="#231F20"/>
<path d="M52.9696 20.2362C52.9371 20.2362 52.9045 20.225 52.8785 20.2018C52.5789 19.9404 52.2059 19.6157 51.778 19.5543C51.7436 19.5497 51.7082 19.546 51.6729 19.5432C51.6059 19.5367 51.5361 19.5301 51.4654 19.5134C51.258 19.4641 51.0701 19.3292 50.9501 19.1422C50.9082 19.0771 50.9268 18.9915 50.9919 18.9497C51.0571 18.9087 51.1426 18.9264 51.1845 18.9915C51.2654 19.118 51.391 19.2092 51.5296 19.2418C51.5826 19.2539 51.6394 19.2595 51.6999 19.266C51.7389 19.2697 51.7789 19.2734 51.818 19.279C52.3268 19.3525 52.7343 19.7069 53.0626 19.9925C53.1203 20.0427 53.1268 20.1311 53.0766 20.1897C53.0487 20.2213 53.0105 20.2371 52.9715 20.2371L52.9696 20.2362Z" fill="#231F20"/>
<path d="M53.7334 19.5237C53.7176 19.5237 53.7008 19.5209 53.6841 19.5153C53.6153 19.4893 53.5557 19.4521 53.5018 19.4186C53.4376 19.3786 53.3818 19.3432 53.3269 19.3367C53.2655 19.3284 53.1966 19.3553 53.1157 19.3851C53.0366 19.4149 52.9473 19.4483 52.8478 19.4539C52.7418 19.4595 52.6394 19.4298 52.5585 19.4065L52.512 19.3925C52.4385 19.3702 52.3957 19.293 52.418 19.2195C52.4404 19.146 52.5176 19.1032 52.5911 19.1256L52.6366 19.1386C52.7046 19.1581 52.7725 19.1786 52.8339 19.1758C52.8897 19.173 52.952 19.1498 53.0171 19.1246C53.1176 19.0865 53.2329 19.0446 53.3622 19.0604C53.4776 19.0753 53.5687 19.1321 53.6497 19.1832C53.6962 19.2121 53.739 19.239 53.7818 19.2549C53.8543 19.2818 53.8906 19.3618 53.8636 19.4344C53.8422 19.4902 53.7892 19.5246 53.7325 19.5246L53.7334 19.5237Z" fill="#231F20"/>
<path d="M27.1934 21.0464C27.1618 21.0464 27.1292 21.0353 27.1041 21.0139C27.0464 20.9636 27.0371 20.8781 27.0874 20.8204L27.1004 20.8046C27.1497 20.745 27.2371 20.7367 27.2967 20.785C27.3562 20.8343 27.3646 20.9218 27.3162 20.9813L27.3023 20.9971C27.2743 21.0297 27.2334 21.0464 27.1934 21.0464Z" fill="#231F20"/>
<path d="M26.5444 22.5469C26.5025 22.5469 26.4616 22.5283 26.4337 22.4929C26.3862 22.4315 26.3974 22.3441 26.4588 22.2976C26.5918 22.1953 26.6114 22.0055 26.6337 21.7869C26.6495 21.6343 26.6653 21.4762 26.7239 21.3292C26.7928 21.1553 26.9109 21.0213 27.0253 20.8911C27.0458 20.8678 27.0662 20.8446 27.0867 20.8204C27.1369 20.7618 27.2244 20.7553 27.2839 20.8055C27.3425 20.8557 27.349 20.9441 27.2988 21.0027C27.2774 21.0269 27.256 21.052 27.2346 21.0762C27.1314 21.1934 27.0346 21.3041 26.9834 21.4325C26.9397 21.5441 26.9258 21.6762 26.9109 21.8167C26.8858 22.0641 26.8569 22.3441 26.629 22.5199C26.6039 22.5395 26.5732 22.5487 26.5435 22.5487L26.5444 22.5469Z" fill="#231F20"/>
<path d="M50.4696 42.6288C50.4314 42.6288 50.3924 42.6269 50.3542 42.6242C49.6677 42.5637 49.0798 41.9665 48.6565 40.8976C48.6277 40.826 48.6631 40.7451 48.7347 40.7162C48.8063 40.6883 48.8872 40.7228 48.9161 40.7944C49.2928 41.7451 49.8128 42.2958 50.3793 42.346C50.4184 42.3497 50.4593 42.3507 50.4993 42.3497C51.0277 42.3349 51.4277 41.9135 51.6565 41.1321C51.8565 40.4493 51.9161 39.5507 51.8231 38.6018C51.6956 37.2986 51.3049 36.1349 50.7775 35.4893C50.7291 35.4297 50.7375 35.3414 50.797 35.293C50.8565 35.2437 50.9449 35.253 50.9933 35.3125C51.5533 35.999 51.9672 37.2176 52.1003 38.5739C52.197 39.5572 52.1338 40.493 51.9235 41.2102C51.5868 42.3581 50.9672 42.6149 50.5058 42.6279C50.4938 42.6279 50.4807 42.6279 50.4686 42.6279L50.4696 42.6288Z" fill="#231F20"/>
<path d="M50.4339 41.8939C50.4274 41.8939 50.42 41.8939 50.4135 41.892C50.0414 41.8371 49.2758 40.7171 49.0758 38.6799C48.9986 37.8967 49.0219 37.2204 49.1446 36.612C49.1819 36.4269 49.2256 36.2641 49.2767 36.1143C49.3019 36.0409 49.3809 36.0027 49.4544 36.0278C49.527 36.053 49.566 36.132 49.5409 36.2055C49.4935 36.3441 49.4535 36.4948 49.4181 36.6678C49.3009 37.2483 49.2795 37.8976 49.3539 38.653C49.5353 40.5013 50.1939 41.4809 50.4265 41.6046C50.6014 41.4725 51.0823 40.5274 50.8963 38.6278C50.7419 37.052 50.2712 36.2334 50.0758 35.9543C50.0312 35.8911 50.047 35.8046 50.1102 35.7599C50.1735 35.7153 50.2609 35.7311 50.3046 35.7944C50.5121 36.0911 51.0135 36.959 51.1744 38.6009C51.3744 40.6455 50.8265 41.812 50.4637 41.8902C50.4544 41.892 50.4442 41.893 50.4339 41.893V41.8939Z" fill="#231F20"/>
<path d="M48.4271 36.3738C48.4159 36.3738 48.4038 36.3729 48.3927 36.3692C48.3182 36.3506 48.2727 36.2743 48.2913 36.1999C48.508 35.3431 48.8448 34.8706 49.2913 34.7952C49.4494 34.7683 49.6187 34.8148 49.7406 34.9199C50.1052 35.2306 49.8708 35.6018 49.7164 35.8483C49.6652 35.9292 49.6169 36.0064 49.5899 36.0734C49.5722 36.1171 49.5555 36.1617 49.5406 36.2055C49.5155 36.278 49.4364 36.3171 49.3629 36.292C49.2903 36.2669 49.2513 36.1878 49.2764 36.1143C49.2931 36.065 49.3117 36.0157 49.3313 35.9673C49.3675 35.878 49.4243 35.7869 49.4801 35.6994C49.6606 35.412 49.7229 35.2715 49.5592 35.132C49.4996 35.0808 49.4141 35.0576 49.3368 35.0706C49.0187 35.1236 48.7434 35.5496 48.561 36.2687C48.5452 36.332 48.4885 36.3738 48.4262 36.3738H48.4271Z" fill="#231F20"/>
<path d="M48.7863 40.985C48.7304 40.985 48.6783 40.9515 48.6569 40.8966C48.4076 40.2678 48.2272 39.4892 48.1509 38.706C48.0681 37.865 48.0988 37.0976 48.2402 36.426C48.2542 36.359 48.2718 36.2818 48.2923 36.1999C48.3109 36.1255 48.3872 36.0799 48.4616 36.0985C48.536 36.1171 48.5816 36.1934 48.563 36.2678C48.5435 36.3459 48.5267 36.4194 48.5128 36.4836C48.3769 37.1273 48.349 37.866 48.4281 38.679C48.5025 39.4371 48.6756 40.1888 48.9156 40.7943C48.9444 40.866 48.909 40.9469 48.8374 40.9757C48.8207 40.9822 48.803 40.986 48.7863 40.986V40.985Z" fill="#231F20"/>
<path d="M49.0355 47.8037C48.9732 47.8037 48.9155 47.7609 48.8997 47.6977C48.8811 47.6232 48.9267 47.547 49.0021 47.5293L49.0467 47.5191C49.07 47.5135 49.0932 47.5079 49.1165 47.5023C49.5332 47.387 49.682 47.3005 49.7332 47.2595C49.6746 47.2223 49.4979 47.1451 48.9872 47.066C48.9109 47.0539 48.8588 46.9832 48.8709 46.907C48.883 46.8307 48.9546 46.7786 49.03 46.7907C49.7388 46.8995 50.0197 47.027 50.0327 47.2428C50.0448 47.4502 49.8011 47.6037 49.1909 47.7712C49.1639 47.7786 49.1369 47.7851 49.11 47.7907L49.069 47.8C49.0579 47.8028 49.0467 47.8037 49.0355 47.8037Z" fill="#231F20"/>
<path d="M37.9132 48.1488C36.5467 48.1488 35.3253 48.1273 34.4537 48.0734C34.1802 48.0567 33.9355 48.0353 33.7272 48.0111C33.6509 48.0027 33.596 47.9329 33.6044 47.8566C33.6127 47.7804 33.6825 47.7255 33.7588 47.7338C33.9625 47.7571 34.2025 47.7776 34.4713 47.7943C37.7718 48.0008 46.3941 47.7143 48.0899 47.6548C48.3997 47.6436 48.7067 47.6018 49.0034 47.5283C49.0788 47.5097 49.1541 47.5562 49.1718 47.6306C49.1904 47.705 49.1448 47.7813 49.0695 47.799C48.7541 47.8762 48.4276 47.9218 48.0992 47.9329C46.3588 47.9943 41.6081 48.1478 37.9132 48.1478V48.1488Z" fill="#231F20"/>
<path d="M33.744 48.012C33.7385 48.012 33.7329 48.012 33.7282 48.012C32.9812 47.9255 32.6826 47.8064 32.665 47.586C32.6519 47.4213 32.7682 47.2324 33.7059 46.9655C33.7794 46.9441 33.8575 46.9869 33.878 47.0613C33.8994 47.1357 33.8557 47.2129 33.7822 47.2334C33.2064 47.3971 33.0212 47.5125 32.9636 47.5608C33.0259 47.5971 33.2129 47.6715 33.7599 47.7348C33.8361 47.7431 33.891 47.8129 33.8826 47.8892C33.8743 47.9599 33.8138 48.0129 33.744 48.0129V48.012Z" fill="#231F20"/>
<path d="M40.5367 55.0445C37.0967 55.0445 33.3646 54.7422 32.0595 53.878C31.6669 53.6185 31.5022 53.3143 31.5692 52.9757C31.5841 52.9003 31.6585 52.851 31.7329 52.8659C31.8083 52.8808 31.8576 52.9543 31.8427 53.0297C31.799 53.2492 31.9209 53.451 32.2139 53.6445C33.3748 54.4129 37.1208 54.8483 41.7553 54.7524C46.1776 54.6613 49.9822 54.1115 51.0074 53.4176C51.1971 53.2892 51.2818 53.1655 51.2576 53.0501C51.2418 52.9748 51.2902 52.9003 51.3655 52.8855C51.4399 52.8697 51.5153 52.918 51.5302 52.9934C51.5795 53.2296 51.4557 53.4501 51.1636 53.6482C49.9134 54.4957 45.5404 54.9534 41.7608 55.0315C41.3599 55.0399 40.9506 55.0445 40.5367 55.0445Z" fill="#231F20"/>
<path d="M51.3937 53.1618C51.3285 53.1618 51.2709 53.1162 51.2569 53.0502C51.2513 53.0232 51.2402 52.9953 51.2244 52.9674C51.0671 52.6939 50.9304 52.4186 50.8169 52.1479C50.2541 50.7981 50.2104 49.4837 50.682 48.1292C50.763 47.8958 50.8457 47.6976 50.9127 47.5386C50.9778 47.3841 51.0337 47.2502 51.0402 47.1925C51.0057 47.0828 50.4234 46.8065 48.962 46.5181C48.8867 46.5032 48.8374 46.4297 48.8523 46.3544C48.8671 46.279 48.9406 46.2297 49.016 46.2446C51.3797 46.7106 51.336 47.0716 51.3174 47.2251C51.3062 47.3218 51.2523 47.4511 51.1704 47.6465C51.1053 47.8018 51.0243 47.9953 50.9462 48.2204C50.4978 49.5079 50.5406 50.7572 51.0755 52.0399C51.1843 52.2995 51.3155 52.5646 51.4671 52.8279C51.4978 52.8818 51.5192 52.9376 51.5313 52.9944C51.5471 53.0697 51.4978 53.1432 51.4225 53.159C51.4132 53.1609 51.4039 53.1618 51.3946 53.1618H51.3937Z" fill="#231F20"/>
<path d="M31.7056 53.1422C31.6963 53.1422 31.6879 53.1422 31.6786 53.1394C31.6032 53.1246 31.5539 53.0511 31.5688 52.9757C31.5818 52.9097 31.6032 52.8436 31.633 52.7794C32.9037 50.0148 32.0051 48.705 31.5735 48.0753C31.447 47.8902 31.3549 47.7571 31.3418 47.6306C31.2944 47.1674 32.0907 46.7385 33.7111 46.3543C33.7865 46.3367 33.8609 46.3832 33.8795 46.4576C33.8972 46.5329 33.8507 46.6074 33.7763 46.626C32.2628 46.9841 31.5977 47.3832 31.6209 47.6018C31.6265 47.6576 31.7177 47.7897 31.8051 47.9171C32.2665 48.5888 33.2256 49.9869 31.8879 52.8948C31.8674 52.9385 31.8535 52.9832 31.8442 53.0288C31.8311 53.0948 31.7725 53.1413 31.7074 53.1413L31.7056 53.1422Z" fill="#231F20"/>
<path d="M20.1947 92.0929C20.1212 92.0929 20.0589 92.0352 20.0551 91.9608C19.9389 89.665 18.9817 87.4083 17.2114 85.2548C15.497 83.1692 14.643 80.8557 14.6747 78.3776C14.6998 76.3999 15.2868 74.3162 16.4179 72.185C18.3389 68.5683 21.2105 66.0259 21.2393 66.0008C21.297 65.9506 21.3854 65.9562 21.4365 66.0138C21.4877 66.0715 21.4812 66.1599 21.4235 66.2111C21.3947 66.2362 18.5575 68.7488 16.6617 72.3227C15.5528 74.4139 14.9779 76.4529 14.9537 78.385C14.924 80.7943 15.7556 83.0455 17.4263 85.078C19.2356 87.2789 20.2142 89.5897 20.3333 91.9469C20.337 92.0241 20.2784 92.0892 20.2012 92.0929C20.1984 92.0929 20.1965 92.0929 20.1937 92.0929H20.1947Z" fill="#231F20"/>
<path d="M68.8476 62.0967C68.5983 62.0967 68.3416 62.0892 68.0764 62.0743C66.1695 61.9664 63.4448 61.4529 61.296 59.6195C60.2457 58.7236 58.6113 56.1711 58.3332 54.0474C58.3276 54.0036 58.3425 53.9609 58.3732 53.9302C58.4039 53.8995 58.4467 53.8855 58.4913 53.8911L67.6439 55.1944C69.4997 55.4874 71.1685 56.546 72.2271 58.0976L73.7611 60.3497C73.803 60.4101 73.7899 60.493 73.7313 60.5385C73.1006 61.0288 72.4299 61.4027 71.7378 61.6511C70.9062 61.9497 69.9546 62.0957 68.8476 62.0957V62.0967ZM58.6374 54.1944C58.9713 56.1878 60.5155 58.5869 61.4774 59.4074C63.5676 61.1897 66.2281 61.6901 68.0923 61.7953C69.4988 61.8743 70.6616 61.7404 71.6439 61.3888C72.2699 61.1646 72.8792 60.8315 73.456 60.398L71.9964 58.2548C70.9816 56.7664 69.3797 55.7516 67.602 55.4706L58.6364 54.1944H58.6374Z" fill="#231F20"/>
<path d="M50.9454 52.2334C50.9454 52.2334 50.9417 52.2334 50.9389 52.2334C50.9166 52.2325 50.8943 52.2316 50.872 52.2297C50.2245 52.172 49.7213 51.7255 49.2208 51.2344C49.0254 51.0437 48.7827 50.8055 48.6655 50.4986C48.5185 50.1097 48.5975 49.6809 48.6617 49.3367C48.6943 49.1618 48.7315 48.9637 48.8338 48.7907C48.9501 48.5934 49.1445 48.4334 49.4282 48.3023C49.8896 48.0883 50.3594 47.9981 50.8245 48.0362C50.8673 48.0399 50.9064 48.0632 50.9306 48.0995C50.9538 48.1358 50.9594 48.1804 50.9454 48.2213C50.498 49.5088 50.5399 50.7581 51.0747 52.0409C51.0934 52.0846 51.0878 52.1358 51.0599 52.1748C51.0338 52.212 50.991 52.2344 50.9454 52.2344V52.2334ZM50.6143 48.306C50.2571 48.306 49.9054 48.3879 49.5454 48.5553C49.3147 48.6623 49.1603 48.7851 49.0738 48.932C48.9966 49.0623 48.965 49.2279 48.9352 49.3869C48.8747 49.7125 48.8059 50.0827 48.9259 50.3981C49.0208 50.6474 49.231 50.8521 49.4161 51.0335C49.832 51.4409 50.2459 51.8148 50.7287 51.9237C50.2738 50.7116 50.2394 49.5237 50.6236 48.306H50.6152H50.6143Z" fill="#231F20"/>
<path d="M46.7246 85.3693C46.6344 85.3693 46.5432 85.3693 46.4511 85.3675C46.0176 85.36 45.5171 85.3377 45.0604 85.1572C44.6771 85.0056 44.3506 84.7553 44.0353 84.5135C43.9692 84.4633 43.9032 84.4121 43.8371 84.3628C43.025 83.7563 42.1432 83.2949 41.2157 82.9916C40.2827 82.6865 39.2883 82.5405 38.3264 82.3991C37.6092 82.294 36.8678 82.1842 36.1506 82.0102C33.3339 81.3265 32.3488 79.84 32.013 79.0149C31.6846 78.2084 31.6195 77.2428 31.8148 76.0623C32.1199 74.2158 32.9116 72.4772 34.1023 71.0335C34.8148 70.1693 35.5395 69.5842 36.3171 69.2446C38.9069 68.1135 42.9878 68.6298 48.7925 70.8233C51.5916 71.8809 53.7162 74.1935 54.3376 76.8605C55.012 79.7535 53.7646 82.8856 51.3711 84.307C50.1692 85.0214 48.6464 85.3693 46.7237 85.3693H46.7246ZM36.4288 69.5004C35.692 69.8223 35.0018 70.3814 34.3171 71.2112C33.1571 72.6167 32.3869 74.3098 32.0892 76.1079C31.9032 77.2354 31.9618 78.1525 32.2706 78.9097C32.5869 79.6856 33.519 81.0846 36.2157 81.7386C36.9209 81.9098 37.6557 82.0177 38.3664 82.1228C39.3395 82.266 40.3469 82.414 41.3013 82.7265C42.2585 83.0391 43.1674 83.5144 44.0037 84.1386C44.0706 84.1889 44.1376 84.24 44.2046 84.2911C44.505 84.5218 44.8157 84.76 45.1627 84.8968C45.5757 85.0595 46.0474 85.0809 46.4557 85.0874C48.4557 85.1209 50.0167 84.787 51.2297 84.066C53.5209 82.7051 54.7144 79.7005 54.0669 76.9228C53.466 74.346 51.4074 72.1079 48.6948 71.0837C42.9618 68.9181 38.9488 68.4 36.4297 69.5004H36.4288Z" fill="#231F20"/>
<path d="M25.2087 60.5832C25.1054 60.5832 25.0078 60.5813 24.9166 60.5786C23.1873 60.519 21.3464 60.0883 19.9919 59.4251C18.1305 58.5134 17.1612 57.1767 17.1901 55.5609C17.1929 55.3804 17.2096 55.1999 17.2403 55.0223C17.2505 54.9627 17.298 54.9162 17.3585 54.9078L29.5017 53.1776C29.5491 53.1711 29.5957 53.1888 29.6273 53.2241C29.6952 53.3023 29.7584 53.386 29.8161 53.4725C30.5547 54.5841 30.2673 56.0539 29.9352 57.2111C29.7566 57.8325 29.5473 58.4855 29.138 59.0316C28.151 60.3488 26.3594 60.5832 25.2096 60.5832H25.2087ZM17.4998 55.1692C17.4812 55.3004 17.471 55.4325 17.4691 55.5646C17.4422 57.0865 18.3324 58.3004 20.1147 59.1739C21.4357 59.8204 23.2338 60.2418 24.9259 60.2995C25.9873 60.3358 27.9147 60.1981 28.9138 58.8641C29.2952 58.3553 29.4943 57.7302 29.6664 57.133C29.9826 56.0334 30.2589 54.6418 29.5836 53.6269C29.5464 53.5711 29.5064 53.5171 29.4636 53.4641L17.4998 55.1692Z" fill="#231F20"/>
</g>
<defs>
<clipPath id="clip0_182_1667">
<rect width="80" height="80" rx="40" fill="white"/>
</clipPath>
</defs>
</svg>
